<mxfile host="app.diagrams.net" modified="2022-06-15T07:53:53.797Z" agent="5.0 (Windows NT 10.0; Win64; x64) AppleWebKit/537.36 (KHTML, like Gecko) Chrome/102.0.5005.115 Safari/537.36" etag="wpmUBuhM1RqSxmDqe6CX" version="20.0.1" type="github">
  <diagram id="l0w2aRD2kjbMWUY8mmi0" name="Page-1">
    <mxGraphModel dx="1718" dy="885" grid="1" gridSize="10" guides="1" tooltips="1" connect="1" arrows="1" fold="1" page="1" pageScale="1" pageWidth="850" pageHeight="1100" math="0" shadow="0">
      <root>
        <mxCell id="0" />
        <mxCell id="1" parent="0" />
        <mxCell id="WKG7Bg_0KT1rRg3zPcpV-22" style="edgeStyle=orthogonalEdgeStyle;rounded=0;orthogonalLoop=1;jettySize=auto;html=1;exitX=1;exitY=0.5;exitDx=0;exitDy=0;fontFamily=Lucida Console;fontSize=16;" edge="1" parent="1" source="WKG7Bg_0KT1rRg3zPcpV-1" target="WKG7Bg_0KT1rRg3zPcpV-9">
          <mxGeometry relative="1" as="geometry" />
        </mxCell>
        <mxCell id="WKG7Bg_0KT1rRg3zPcpV-1" value="Sensory Percussion" style="shape=image;verticalLabelPosition=bottom;labelBackgroundColor=default;verticalAlign=top;aspect=fixed;imageAspect=0;image=data:image/png,iVBORw0KGgoAAAANSUhEUgAAAoQAAAJMCAYAAAEUC4cAAAAACXBIWXMAAAsSAAALEgHS3X78AAAgAElEQVR42u3dX1BUV/r/+09z0kVCiQ1fjeVXxqHjaKE3YiqE3AlGrgMkc3lEPN4lMWPMxc9JKsY4lcTfRRIjk9x5wp9zmSjkGiPtXQipkdwghePAOGQsY77SaJFQfQ7rXNA4iA3s3v937/erypqM0r2bZ69+9rPWXmvthDFGcKaMEBBEgkgQQRAJIkEkiCCIBJEgEsQAJBKJ04lEwiz7MxTazxqGAYh8gJrsvNYYk4h1EBOJhKsHDyqggQTR7eAFHUxfg7he8G58u0O1NUlL75WsGw9NIH0L4moB/Pn7Xara6Oz6tlZA/Qim50FMJBIzklIr/z43Xuf6sVYLpteB9DSIq7U+LwK4XjC9DKRnQSwUQK+DF1QgyzwKYGeQAVzteF5VBZ60xJUf1u8A+t0iy0o5gH4dv8zLAL77+qZQ9G1XBtLtr7WrX+ewtcLlZmYX9PTzE8v/KmOMaQ5VEMMcwNXyo1u5MVbjiQW+1qdDE8REItHvVSs8eOiWl3F9LzRfZy++yoVKE7dOzvL3duMrXeb1V8bpey39WW+gwWHf3pEnwpi7znTdLRjQZN24F4FMBf519uqqnKwbf+S9loLnxvuPjs2roW3Sta90qK/OS4FzM4CSVL+nPLw9lq8+r3E9t7odwFAOQCz/Oof5F/XyCs3N+8WG0EwQA0YQF7/OQwQxYK4W2ytrOyc2N0woe3/Bs95QLL7O2fsLvnT7wtISByS1rjVw4Fbd6NZ7u/0ZHQfRGNPmRa248hfd3DARn6uzm2d56b0OHrr18OvtwZXZ8VBYaMcTV54Qr1q4G0F8wq2zuTyQU9M5y7O7rPSfQ9/j4UZViHLiyg8U5gtBZOrElYVyqbZC14O48oOFpTj2+nN40RIzYQrk6Ni8J2WNJxeWtS4yQV1oCkwd8WSOoic5sdAH9btFHj1525cAetYSg26RJTPdeK1AehlMvwPoaYmz3i+QrBvX0ZO3XQ1eEAH0pSUua5GntcYEIjsts9DArd8BXDqQr38kGSt/arclzWDfdpMbrzO58TpzrKPaWH2t379TYAskPZrJf8QY0x3ZAYgggxn0ct3A77EYYxLL/1h82fs2XlO6LZFRHBBEgkgQCSIIIkEkiAQRBJEghhx9Z1ohASSABBAEkAASQAIIAkgACSABDEsnPZEYWrGDe2coP2dIdm+3+yHeNMaci2UA2bU9JIELOpB+TtJslnRlrZ+xOlGz92JWR/98OxSB9CWAa7U6p/Ouz3Td1V/++ktgQSyZCeuZ4Tm1FN4j8VljzLVIBjCIZROrrHFxbc9X3+rAoNac5MbrdOGjrSv/uimRSByPTAsMyxIyL1eBetYCwxK8Qsf1ooRye0Px5rAEb8nP3+/yNIhut8ArYQqepIIPtHG6i5wnOTDs+zOwibj7+XAyNAGMwu4gBdSWfAscHZvXK69Oe9YK3fCE118VN3JWsm5ce3eX64eBtOslV+B7u3pRWy3fWXjpz4/X51157472VLhboJctOYx7GD4Rxq+vtDi60tRY4Xl6SCQS/caYtpJqgUubPaYqy3S57/ePbC/vgdaSvArnxuuUvb+ghrZJ1W5LluY+rl4/LHrpAnLjyg5X39fNh3456spFtIB+LA86KWWYmUBf2N4VPiwBPBLFALa4+ICu0D6qY2XRPNKfdu1hL24ObYWyDiz0kBg3t7sPbU/Eza6WX8FyOpgQytGYZN24ZmYXHD9fPipX4Tfd/lAj/Wk9/fyEei9mXW/Zbg9IuL57+ruvb9KpY5sdv+fKbUE92j191BizL1QBDHOPxIsbS64kmZUfxM1CNey4rRmWrlxYN/mOdF946Spaqq3P1a9wWL/KXs/Qcr0Fhumr7MexvfoKPxt0EP3aWtmzKb6JROKapPog+rh+7kvt9Rzp45I+9SuIq7X0SG8rX+jC4nH3zLfg+RbAtYIoLU63uHB2a6QCt/xAfu6C3iyLu5m/+/qmh7ugD/Ztt7wLunzeCT2QxYb5yY21HjQG3xccBjJiaYxJu7jx9miQm3iHavdzLT5otajXOB3Pi8xFhMEEEEACSAAJIAggASSABBAEkACGBH1h8C0GaISgEQI0QtAIARohaIQAjRA0QoBGCBohQCNcRSKRmFzx5DE3/vQTWRrhyobWv1qDkQfrhSS1rtFA22J7HuI0i8brh7e5Lah1WjTCkDa6VGWZLpz9b7W2bLD082s9282mASebY9MII9DwUpVlujuyy9fP6mDzDs8eC0cjtN/wOiV9Wcxrwrgp3dR0TjtfvBm7S3akG2ExWe/CR1vV8XIqUr/f5oYJZe8vWP3xHmNMJ40wZI3PrX1Mw6CIS3fkGmOkGmEikZiRtG46i9ITKTxskM8YYyZphD5nv1JvfHYaYxRqxtA3QhqfK43xfWPMaRqhBw0w7o1vuRMf3FFX771IZsXQNkIaoDdZMYwNsSxqDfDCR1tpgA6+nGG8dRm6TLhWkGh81h08dEtX13jISZgyYhkNsDRd7tu+5uPBw5QRQ5MJ1wrKz9/vCtVj13YeuKmpn3IF/22wb/tjT/umRoxAI8w/P7qp0L8FMbFgNc+1TurH6/OrZuflJzxMmTsUO/FHoBFG4jJc6HGsKy0fKhns2x6az77Ww4aDboiBN8K1nnpw49sdqq1JhuIkZobnHp7I9b4YUXveHI0wQp2R9S63o2PzamibjMTnD1NDfCKs385UZfiGMHPjdQ8b2lonlJ58hBphIpE4vdq/haUzslL9nvLINrJUZVkx8xN9E3S6eY884J+vv6gJ5edi3XGMrDV+mUgkmmmE8NzM7JqX4mtxbYQZmoZ/znTdXat3PBNY3yCsQzRhXh+yfMwwSj3jsA7RME5YhPM99/TWh3ce/v/l97R7L2Z19M+3Q90Yw9oIqQmLsNQAc+N1yo3XPTKpouPllHLjddq7u3zdEx6E3ovZtf75/UATUdjvHYeR1dt2TGKw5omon/AgTmSybnzVzxXG+8abGybW+ueewJNQFOYThqkhrpzOVUjY5j8ylct6I2yTdCkqnZSoCHsDDFUjtFIb0hDda4CSqoMcGwxt73i9b2bU5umFuAEeCUsDDF0jpCE6d+KDO+vF6IAxpjtMnznMi9/7JbVyeXYt+4V2B4bQDlYbY9rIitYcPXk7sg0w1JmwmA5LXLPizOyCnn5+Yr0fGzXG7Av1+Y3Y/oQ0Rj2+liWK2S+yjTDfELslHV7v5451VOuTd7bEquaLWuOLbCMstjFK4buDUWxvd70t36La+CLfCJc1xrSkf1j9+f2NFbocokXpbnS4or6Df0k9x8TubJyg60ibvfzQdzhi2QjdaJDLubkDxMpJr3aV4qPGYvFsu7U2XIqAA8aYoZI+P3F6wOKyRnla4V3zXB2m+7o0Qv8bp6XnpLgksk9gohGGq9E2L/u/k1F5eA2NEFiB1XagEQI0QtAIARohaIQAjRA0QoBGCBohwG07kAkBGiFohACNEDRCgEYIGiFAIwSNEKARgkYI0AhBIwRohKARAjRC0AgBGiFohACNEDRCgEYIGiFAIyxCIpFoTiQS3YlEwqzyZyiRSJxesZc11osri98LNrbjkj714K1L/pkkNEL7jS6tIp6P55ZSfDoTjbD4xheaXz7ODbIshg3vYU0Xti9E/k+aTFi6jW9SUm2EPvIRY0w3jbA0Gt+QovtwRUl6ptSfFFXKj5p1tbPR0Z7Sx29vsfQE+czwnM50/aKrw3PUjHFthE7rvY72lC6c3er659p54Kamfso5eYspY0yaRlii2e+rz2vU2rLBt8969ORt9V7KkhVLqRHaeUxs7bakblzZEfhnT9aNx7rjUhKNsNjLr1eX2yAaYylkxcg3wmIaYFgyn9uNMeoNMdKNsJgGmBuvi9zvV0xjjHJDLIto46uy2gAH+7ZHsgEufXFqtyV9GREgE3qUAaPa+JxkxShmxLJSbICpyrKSaoDFfKGimBHLSq0Bvvv6Jt0d2aVSVKoNMTKXYyuBHelPq35PuUrd5oYJZe8vlMyluaxUGuDP3++KRQOUpLsju7R3d7mVuJ0jE7rTALslHV6vAVqZWFBqnmud1I/X5yOfDaPQCNf8gIN929XUWKG4stJrDntDLItyA9y7uzzWDdBqZyXsHZXQZsJEInFNUr0bvUUyYrizYZgboaEBxqMhltEAS8dLBzdY6eSRCZ02wqjMhCEbRrgRkgU9b4ihWyIQqcG1n7/fRQuzIFW55mkN3bLXUDXC9bJgHAek7Vjv3nl+GSyNsFhchovT0b7mcptQrcMOTU1ILeh7bRiaRfWRyIRhbYBnuu7q4KFb6r2YDeXnW2eSwz/C8jlDkQnXWy8ctka4VoaJ0mcNy3BNWDLhqg3w47e3hOaEzswurDsOZ3MNcVBf/uNkQgv1YJgyy/IGtnLHhpVbfIT1c4cxGzLmYdHBQ7ceaWArtwy5cWWH9sd8Ro9dT4Q5C371eU1oAmVlh63LfdsfZp3NDRP6+osaWlgUGuFa/NygyCqr2S57f0Ety7JniOtCE/Qlmctxkab+lSMIccqEoWyEFvcXPNZRrU/eCU/PPsy99kAz4VpDBGGqByXpxrf/mT62uWFi3RMdpgYYdkFfjj+NSj1YW5N8pN5L1o0/vFNy9OTtRxpgGHvJ776+Kbx1aZDjhFEZHyzmspaqLAvtDhBrfPbPjDGBDVzTMSlSbrxOFz7auuq/RXQLkj+RCSOUCaMsrHdOyISIfccEoBGCRgjQCEEjBGiEoBECNEIEj6lcNqx254HNmsiEgTZAaXGuYZRW2y3zfpwbYTaqDbB2W1K58bqHf6w21KAcXGOpgTHmdJwbYdtq/3Cm626oTuLyzzPYt/2xy27YJ1xYWagVlMDXHUdxzfFan2vp5/buLtcPA+lIlBFBL3QKdcckjJc1q7Om13u+COiYxMr5nntr/XMm6M8XhkyY0Sr75XW0p3Th7NZQZWWrtdV6m5j76a0P76x1KW6OfSZcKwi9l8LTeV4+pf/oydvrlg/svsDl2HUdL6ce+XIsb3BWdusKSlj3TgxV73i9HnLY7kJYaWxR2ZFLIdmtNRSZcK0hAqs7HvglN1636u74776+KVILtMKyXXAk9qyO+5M8vcra7NRaxFBBFHa3ipowPdmpLERBWXOoYGqa3bDcrl1phEXa+eJNWpZ7DtAIbV4iTnxwh+bjTi04RCO0qav3Hi1sHTOzC+v9yJGwfebIPWpWYp+aUugRRyETrjnMPzD4gNZmrzNSTcfEem1Ytda///G1aVrcChkLEyuMMTNh/OyhvBznL8n7JP2Ny3LpXoZD3zExxlxz4fJDA1z0WZg/f2gzodVOSpi35w1JAwx1Fgx1JrRaTGfvL+i51kkaYEQbYCQaYb6YHl3rZ368Ph+7hlgqDTASl2Orl+U4XZot1sI9xphOGmEADbHUe80WG2B2vWEuGiEN0csGGJnLcJQ6JrYCnKwbL5npXwcP3SrZBhjJTFhsRox6VixmLDSKDTCSmdBOwJN14xodi9aOCMVkvyg3wEhnQjsZMQpZMTM8V+xyhlFjzL5In8OoN8J8Q5yRlIpyY5yaztmZPf6sldubNEL/GuK6Ex4KCXol39GTt23tNBHly2/JNkK7l+cgsuPA4ANH09FKqQGWZCPMN8TTkt5z8h5ub8a088BNxwv5S63xlXQjdCMrrmZ/Y4UOt29U7e+Sj1zGM8Nzynw3p8zwr17sijpljEmX7Hkq5UboZWP0S6lmv9g1wig2xjg0viWx2hrOGJMI+cmdisBnpBG63BjfDMlHqs5/pnQcz0esLsfrXKo7JX3pc8ObIfI0wrUaZbOkK25dZiXto9HRCL1qqEuX+CEiQiMEHROARggaIUAjBI0QoBGCRgjQCEEjBGiEoBECNELQCAEaIWiEAI0QNEKARggaIUAjBI0QoBEioljyCYCrMSEAQCIEABIhAJAIAYBECAAkQgAgEQIAiRAASIQAQCIEABIhAJAIAYBECAAkQgAgEQIAiRAASIQAQCIEABIhAJAIAYBECAAkQgAgEQJAfDxBCGBXIpGoktQpqU1SU0AfIyupW1K/MWaIswJbbZkHvGONRHdc0qcl8utkJB03xlzjzIJEiJXJLi2pX1J9jMPwpjHmHK2BRIh4JL1OSV8SCWsVpDGmmTCQCBH9xHct5pWe244YY7oJA4kQ4U58k5JqiQSJESTCOCW+05LeIxKhkDXGVBEGEiFi1t3d31ihNw5Xq7VlQ6CfY2o6p56LWZ3vuafs/YWwnKpnuUNNIkQJJL9UZZkunP3vwBOdUzOzC3rrwzvqvZQlKYJEGLHk1y3psF/H+/jtLXrjcHWsYjwzu6CG1klN/ZTz87DVxpgZWjiJEKsnvypJ9/zo0l7u207AC8gMz6nl0C0/DjVqjNlHxEmE+E8CHJKHS9Q62lO6cHYrgbZhajqnnS/epEokEcLDBOhZ8H/+fpeqNrKnhttOfHBHXb2eFe1MxyERkgCdqN2W1I0rOwhuaXSje4wxnUSYRFiKyc/18b9UZZnujuwiuCEwMPhAf3xt2u23ZRyRREgFSLc3mp5rndSP1+epEEmEcDsB7t1drh8G0gQ1QmZmF/T08xNuvmW7MaafyJIIo5IAh+TSXeDBvu1qaqwgqBG3uWHCtVUvxpgEESURhjkBujYOSPeXbvM6WNtMIgxlEpyRlCIBwueEyPI9EmEoEmBa0j+cvs9If1r1e8oJKF1mqkMSYeSSoOPNEN59fZNOHdtMMGMuWTfuxtuwQoVE6HsSdBQ45gBipdGxeTW0TTp9m/eNMaeJJokw9F1hxgHhcXeZrnKR+DYWlwSPO0mCqcoy5cbrSIJY092RXbrxraPlkikv17FTEcY7CQ7JwdxA5gPCDqdjh8w5JBG6mQQn5eChSLnxOoII2155dVrfXH5AMiQRkgQRb05vpJAMSYROkqDt6TFsi4WwdZVJhqtj1H71JNhtNwl2tKdIgvCEkx4GN1BIhMU2mE7ZfHAS2+KDZEjXuFQSoa2gvHRwg77+ooYAIuzdZOYZkgi9SYKMCa5vZnZBO1/8u6XJwiw99DwZvmmMOUcESYSFkqDtmyPcHV49+TndnJRKe3VOnpvCzRMSYaEkmJbNVSMkQXvVyv7GCh1u36ja3yWV+W5Of/nrL2v+fBwfQm+Fk3mGJEMSoStd4q8+r1FrywYCaDEJWr1oHD15W72XsgxBeN9F5hGi4q7xUhI8bud1qcoykqDFL+W7r28qqnK+cHZrwZ+f+imn8z33CLJ7vZIviR4VoaNqkC7x41Ybs3ISK5f26sPqYr91V+wrQrvVYEd7iq9PoUT43dxjf/fSQarmkHuPijDmFSHVoD9dY7vxOt9zT299eOexv9/PTj4FTf0rp6mfcnZeesAYMxTXuD0R8yRoa1IpX8K11W5LPvZlTNaNF50Mz3TdLXgnmYuQJ0MJVyTF9g5yrCtCu3sM8kVc31q7LK+3Q/eJD+6oq/eerdfC/g7XcZ5KE/dESLfYQy49g0MSz3gphoNJ1u3GmP44xoxLa5GOdTCh16r6PeXKjdfp5+/tJ7CO9pRy43UkwSI42An9NBVh/KrBZi2OixSFrplzM7MLOtN1V72Xso904fY3VuiNw9XMzXSB3SlHce0exzkRdsvGVlt0ixEFBw/d0tXhORIhXeN1HebrgpJt3O0bCQKJEIi32t8lCQKJEIg3uzdM8mPnJEIAIBECAIkQQNRlbNwxlqS4rjeOcyLM8HVByTbu7+YIAonQkiFOP0q3IvyVIBSBlSVFGuzb7mQJU+wNDD7QH1+bXvNneFiTc6wsIREWkwyL/uX3N1boct92vmlFeK51Uj9en7f9+pH+tOr3lBNI7xNhxhjTHMd4PUGTKc7VYcZerNp54KbdTUIfsbSDDeu8rem9mLX70tN0jeNZEZ6T9KdiX3fj2x2qrWHmvp2KxOpT/1bbU6+jPaULZ7cSYLrFJMKgu8fsjVf8F3Hv7nL9MJB25b0Yp/UkEU4ZY9KxzQMkwgSP8fOB3V17pqZz2vniTdfej+GIVVUbY2biGjcGXKRnCYG3nDzxjyGIIi8cNsdk45wESYSLDeAaXx9v9V6yPXiv0bF5Auhtl1iSDsQ9dtw1/k9V+Dc/u3xx+0Jubpgoelx1Znah4DNPbny7gyCvMDD4wEkxMBT3+NE1dlgVHj15mwBauDhk7y8oWTduKV4zs4s/+/TzE4/924WPttJdLmC9Sepr4CE84mbJo8GweeOE6TSrXyScdIupvj3vEo8aY/YRQSrCld6086JCdzUhXTi7VbnxOsdP/suN15EEPeiRkASpCF2vCqlY3KkUU5Vl+uTtLep4OUWg1tF7Maujf7adCKvjfqeYREgyRMStNr/Sos+MMceJIomQZIi4JsFYryBZDWOEq3vG7gsdDF4Da8oMzzkakyYJkgiLbTCTko6QDBEWvRezajl0y0mbThBFusZ2u8idkr6km4wgHTx0y9EWcCRBEmHgyZDdUuCE094FSZBE6GYyTEv6h93X125L6sYVlobBupnZhYKra0iCJMIwJERHAaOrDD+6wuLuMIkw7MnQ7ialoCts0ZvGmHNEkkToRzKclFTr5D14BgeWc+MZL3SF7eFbaL/BpeVwU9enn59gmg3UezGrZN04SZCKMN5dZYnnoMSRGzdD8tqNMf1ElEQYhmTYKQdTbJYwfkgCpAokEVIdkhBJgNY8y2MmSIRhT4ZVku659X5MuYk2h9tlrcRmqiTCeHaXl4z0p1W/p5zARoQbd4HpBpMISykhdks67Nb7cWMlvDLDc442RiABkgjjkBCvSap38z072lO6cHYrwQ2Qy2N/y7GLNImQCpGkGMvkRwVIIoxdQmyTdMmL96b77D6Xb3qslDXGVBFlEmHck6KnJ4JqsXgOt8S3qscY00m0SYTwodu8EvMUfa/46P6SCGEzKc5I8u25li8d3KCvv6iJRWwHBh/oj69N+31YlsKRCOEgIbo6QdtOgvzknS2qrUlGLnbne+7prQ/vBPkReHQmiRClUCmuJ1VZpjcOV6vphQpfH0nQezGrnkuzTjcw9QL7AZII4XNS7JYPY4pYF3P+SIQIUWKclMMNY2HJEWNMN2EgESIaiXFIUhORcOyAMWaIMJQmdqguccaYZmNMYumPpGckZYnMmj5bHrP8H5IgFSFiUDkel/RpzH7tUUltxphJWgAVISBjzLkCVdBSFfl+hH+1TL5bW+h320cSBBUh3K4q2yQ15//Ue3iojKQhSUN0WUEiBAC6xgBAIgQAEiEAkAgBgEQIACRCACARAgCJEABIhABAIgQAEiEAkAgBgEQIACRCACARAgCJEABIhABAIgQAEiEAkAgBgEQIACRCACARAkAxeK4xACpCQgCARAgAJEIAIBECAIkQAEiEAEAiBAASIQCQCAGARAgAJEIAIBECAIkQAEiEAEAiBAASIQCQCAGARAgAJEIAIBECAIkQAEiEAEAiBAASIQCQCAGARAgAJEIAIBECAIkQAEiEAEAiBAASIQCQCAGARAgAJEIAIBECAIkQAEiEAEAiBAASIQCQCAGARAgAJEIAIBECAIkQAEiEAEAiBIDS8wQhgBcSiUSzpHT+T3P+r5uKfJuMpMn8nyFjzBCRhSft1RhDFOAk2bVJ6pSUCuhjZCT1S+o2xsxwVkAihNdJ77ik1gh83ClJ54wx5zhzIBHCSeLbJ+mcje5sWL1JYgSJEFaS33FJn8bgV81I6jTGTHLWQSJEnJLfakYltZEUSYREIX7Jr03SJSLxmAFjTBthIBGitBPgkEpnzM9rR4wx3YSBRIjSSH77JP2NSNjWY4zpJAwkQkQzAXZK+pJIuGbUGLOPMJAIQQKENGWMSRMGEiFIgCAhkggRqgSYlvQPIhGYjDGmmTBEG7vPRDsJzpAEA9eUSCRMfj4mqAjhYwLsV0jX/O5vrFBT41NqeqFCTY0Vrr3vzOyCMsNz+mbwgQYG7yt7fyGsp+cZJmeTCOFtAgzNVJhUZZneOFytwy+nVFuTDPSzDAw+0Pmee7o6PBeWU8UdZhIhPEqCk5Jqgzp+7bakTh3bpI6XU6GP1dR0Tme6flHvpWzQH+UAeyiSCBHxKrCjPaWP396iqo3RHkoeGHygoyf/HVR3muqQRAiHSfCapHq/k9+Fs1tLNqYBJkXGDkmEKDIBVkm652e3d2QgHfnKr1jne+7prQ/v+HlIluuRCGExCXbKp4nR776+SaeObY59zGdmF9TQOqmpn3J+HC5rjKmipZMIEXBXeLBvu6tTW0rJwUO3/Lr7XM0zVkiEeDwJen4ibny7I/CpLlFx9ORtP+46s9UXiRD5BOj5eCAJMNQJkc1gSYSxT4KeTo2hC+yenQduejmGyLghiTC2SbBTHt0UOdZRrU/e2UKQXTYzu6Cnn5/w7P2NMQmiTCKMUxLslnTY7fdNVZbp7sguAuyx3otZHf3zbZIhiRBhS4J0g0unu0wyJBGWehJ0fXpM7bakblzZQXADkhmeU8uhW168NdNrSIQkQSu++rxGrS0bCG4IbG6Y8GLZHsnQJ2zM6l932NUkmBuvIwmGyN2RXXr39U1uv+09IktFWEpJ0LUxwf2NFbrct53AhpQXd5YZM6QijHoSPO5mErzw0VaSYMhVbSxTbrxOqcoyN9sR1QoVYWSTYJukS26938/f74rd7jBR91zrpH68Pk9lSEUY2ySYdjMJ5sbrSIIR9MNA2tVxw/zDukBFGJlE6EpQmSBdGlyeYsPaZCrC+CTB2m1JkmCJaGqs0Eh/2q23a80vzwQVYWiT4Iwkx0832ru7XD8MpAloiXH5jjJzDKkIQ5kEu0mCWEvVxjL9/L1rVT5zDKkIQ5cEXdlOiyRIZVgktu+iIgwVkiCCqAxT+Z4IqAgDrwYdjwtydzieRsfm1dA26cZb8ahQKsJAk+BpuTAuSBKMp/o95Rp0Z6XQP4gmiTCoJFgl6T2n7/69B38AACAASURBVJMbryOYMdbUWOHKpOv87kaga+x7InQcOJIglri0HO+AMWaIaFIR+tkldsTFCbYoAT8MpN3YqOEKkSQR+slRl/hYR7Xq95QTRTzCjbFiush0jf2qBh3dJeYOMdbi0hxD7iJTEXqaBJvl8C4xSRBrqdpY5sbNE+4iUxF6mggdBevGtztUW5MkkFiXC89AedMYc45IUhG6nQS7nby+oz1FEoSfPYdPiSIVYeiqQabKoFgu7GOYMcY0E0kqQreS4JCT17u44whipKmxQrXbHPUimogiidDVNumkS8w2+7DrxpUdTi/ik0SRROhGNeioIV04u5UgwpELHzlqQ7VE0ML3nDHCdROh7QCN9KeZOA1XJOvGnbx8yhiTJopUhL5Xg6nKMpIgXONwnJmqkESoQBoQE6fhpqqNZY5unLD0jkRot+EM2X3t/sYKAgjXObxxUk8ESYR22L5TfNmdzTaBx3S021/hybb+JMJiG8zpIBoqsB6HsxAOE0ESYTHeC6ihAl5XhW1EkERopaGkqQZRwlXhJSJIIrTiWkANFLCMG3IuF0BMqH6sIjR2GyY3SazrvZjVwOADzeS3mmpqfEqtLZXMvSyCg0nWA8YYusgkwlWT4HHZ3L6I3WXWd6brrv7y11/W/blUZZlufPsH1mivY+eBm5r6KWfrtcaYBBEkEbpaDZII12Z3O6nabUnHmw6UsqnpnHa+eNPuy9nOfxkuuS4YpEu8qoOHbtneU2/qp5ySdeOamV0gkIUuFM42+u0ngiTC1brFtjQxcF3Qc62Tujo85/h9nn5+gmS4io/f3mL3paw0IREWZGts8KWDG4hcAed77q37wPJ3X9+kwb7tuvDR1nXvgrrwZLeS9MbhaicX/zQRzMeCMcKHjcJWIBgbLGy1O5rrjfsNDD7QH1+bLvhv3JkvzMGDntjKn4rwkSTYSRTcs/NA4QH8jvbUujc/Wls2rHpxcaObXYounP1vuy9lK38S4SNsPfaQlSSFFZrSsb+xoqgJ56slw4POHmZUklpbGJ4hEbrDVkZjJcnjzvfcK/j3drq0hR50TlW4SgOutPdVdnKTsKR6hYwRMj7opkLjVcc6qvXJO/bubhYaa2S60uMy381ZmqxeCJOrpSdIgva23OJucWGFBu3tJsHVtNA9Bl1j19nacsvtLzcKY3MBkAhDzOGsfiBMvaLYjxOSCBFqo2O/EQTvxT4RxnqMMJFINNt5HdNminO+557tFRCFxhzpLq/O5l312D/uM9Z3jROJRL+k1mJfd+PbHXSNV3Higzvq6n18Co2dO+yr7VrD3frV2d2jMO53juPeNW618yKS4OpWu4m02vzCtRRKgk6e7RsHdqvlRCJRRSIEPPbWh3c0OjZv+ec3NxTeZGFkIE0w1+BgE4ZOEiEsszuDP05+/n5Xwb9vaJvUiQ/urPnamdkFJevGC44NpirL2LV6vS6O/eV2sd66n1bl3xU3Nqo2lq3aRevqvadk3biOnrz9SIXYezGrzQ0Ta263dXdkF8H1Tqw3YIjtzZL8812LfrThYN92NmItontrc3uox7vE/Wke7GQRN0yoCIvRbOuySRK07O7ILleGEkiCxWH4hkToeSJE8cnQybrsn7/fRRIsUmtLJUEgEVrGMxt88vUXNcqN1xU19eXCR1uVG6/j5ogNL7E/YdHiPEbI1lsBGRh8oPM99x5ZBZGqLFNHe0qnjm0m+Tk0M7tg9xkvB4wxQ3GM2RM0G+uYzOtW120Duyp7yMGFpFlSLBMhl95iEuHvSIQoaem4/uIkwiI0NT5FEEAiJBHGvJWwxhglfq0nEYKuMUAiBAASYWzY3ZCVVSUAiRAASIQAQCIEABIhAJAIAYBEWCKuceoBxDoRGmNm7LwuY++ZsQBIhABAIiwZme+oCFHaTZxEiHXNzC4QBIBEGG+j1+cJAkrZEIkQ67rKzRKUtsm4/uJs1Q9fvfLqtL65/GDNn/nq8xq28nfAwewGEiHgpZ0Hbmrqp5yln/3ja9OSpMG+7ez4YycR2rypF9cHN8W9a5zhK+O90bF5JevGLSfB5VoO3dJzrZMEseiK8FeCQCK0bIjT730SbGhzlsh+vD6vzQ0TBLMIjGWTCD1PhL0Xs7QaC2ZmFxwnwSXZ+wskQ5AIvWB3PKTn0iytxoK1HjB+4aOtyo3XPfbn5+93rfrs6Oz9BZ3vuUdgvRPrKzzTZ+h2uO7EB3cK/n2qsky58Tp1vJwq+O9VG8t048oOffV5TcF/f+vDOwR3HVPTObsv7SYRAi7q6i1cud0d2WXp9a0tGzTYt73gv53pukuA1+qx2B+66ScRxvgCylfHXaNjhVff5MbrinqfpsYK7d1d/tjf/+WvvxDkNdgdPojz1BkSoc3uADdM1ugWF+i+FkpoVvwwkCagRcreZz28HQljTHx/+USiShIj8B678e0O1dYkbb02WTf+2N+N9KdVv6ecwFqMl8WKMEFFGFN2N2hFcewmQUnaX2BlCRvkut5TGYh77LhZglCrL9Ctnpn9/whMAWe6bI+fniYRgqV2IVZo67P6PU8SmALsLGPM94xi/wwfEiFXQ++vNA66soXmbe5jfLBAlcxNEidiv/uMMWYokbA3TlzslJA4KLTN1iuvTlueQ2jly+1kzLFUOZhsTo+IitCZgcEHBGGFT97Z8tjfZe8v2KpYdr74dwJqUe8l2zdKjhM9EuGSHjsvOnry30TOYrW21trjwrG9XXBO3IWPthJkd3tEPOObROjsqsjk1cJWS1bJunFLleHRk7dXrXBWW6ccZ0dP3iYIJEJXroq25xOyyqS4ZPX08xM6eOhWwYTYezGrZN34qklwpD9NcN3tFr9J9BbFemXJI4FIJK5JqrfzWm6aaNUK0LXk2p7ShbN0i1eamV0oethhWQGQIIJUhCu1EQJ3/fz9LlfeZ+/ucpLgKhp4lAGJ0OXuse0WxRhNYVUbyxxXy8c6qtl8YQ12J1HTLSYRrmXUzoscjNHEQm68Tu++vqmo16Qqy/Tz97sKTsfBIid7MxpjzhHB/2CMcHkwHOxGc+GjrdzRtHLRuJjViQ/vrHrHnbFA65yMwTI+SCJcLxnaDgg3TeCXzPCcWg7dsvvydmNMP1Gka7yWz+y+0MHzIoCiOEiCIgmSCK00EttLjna+eJMAwnMOL7isLSYRWm9rVIUIKycXXGNMMxEkEVq1j6oQJVgNgkRY1FXT0Rb+bCWPMFaDkp4hgiTCYh2w+0InA9mAVxdYJ4sGSITxrQqHnLze7vNlAY8usEeIIInQ98bjYMdg4DEnPnDWnowx3URxdUyoXi9ADiZY72+s0OW+7QQRjjncyecIiZCKMLCq8OrwHA/VgWObGyYcvZ4kSCJ0zGkjsrtXHCAt3iBxuBM6Y4MkQtcccPJip+M7iC+nMxCoBq1hjNBqoByMFUqLm5RWbeS6A+t2HrjpZL9BSXqGKTNUhG6rposMvwwMPnCaBLMkQSpCr6rCSUm1dl/PXWRY5fR5L+w3SEXoGWNM2snrrw7PsfwOnidBSQNEkUToNUfPemD5HdZy0IX2YYzhQWQkQs+rQsfPenDzMZcoHb0Xs7rqvMfwLJEsHmOEdoLm4NkmS1KVZbo7sotgQpKz5xMvM+V0+IaKEMVUhTNysKW/JGXvL/AYUDzkxqwCkiAVYVCVoePg8fQ7uDRU8qwx5hrRJBFGNhmO9KdVv6ecYMbQ5oYJp0voJCnDFvx0jYPW7vQNGtom2ZwhhnYeuOlGEuQ5JCTC4OUfjTjq9H2efn6CZBgjz7VOOl05sqSaaJIIw5IM97nxPiTD+CTBH6/Pu/FWR5w+XweLGCN0M5gujBdKbNBAErRk1K0LMKgI3ebKZFYqQ5KgX70QkAi96CJfk9TjVjIcHZsnqCVic8OEm0mQDRVIhKFPhp1y4eaJtHg3ufdilqBGXLJu3JW7w3ncHPEAY4ReBTaRmJHkykzpjvaULpzdSlAjmgRdxKRpEmEkk6Frwa3dltSNKzsIakSMjs2roW3SzbfkSXQkQpLhktx4HUENuRMf3FFX7z0337InP+QCEiHJcMlg33Y1NVYQ2BByackcSZBESDK0gm3/w2VqOqedL950+21ZQ0wiLLlE6HgPw0KYfB28oydvq/eS63f3mTBNIqQyLMaxjmp98s4WguszlzZTpTtMIiQZUh1SBZIESYQkQ5cxdugtD6bFLPemG8/EAYkwasnQtUnXK3389ha9cZhFCG7y4I7wcu35Ld1AIoxlMrwmqd6r92eqjXMHD91y4+lya3nGGDNJpEmEcU+G3ZIOe3mMG9/uUG1NkmAXwcNxwIfYQIFEiEeT4T5Jf/P6OCTEcCRASVljTBXRJhGicEL05YTw9LxAusBLuDNMIoSFZOjpuOFycd/ZJjM8p5ZDt/w8JDvIkAhRRDJsk3TJz2N+9XmNWls2xCK+r7w6rW8uP/DzkHSFSYQIe1d5uVRlmS6c/e+SS4o+jf0V8r4x5jStmUQIZ8nwnKQ/BXX8qM5JnJrO6cQHd/yu/Faq5klzJEK4lww92bShWLXbkjp1bFMob7RMTed0puuXoKo+qkASIXxMiMclfRqmz7S/sUKH2zf6mhwzw3PKfDen8z33vFztYQdjgSRC+JgQJyXVhv1z7m+sUP3uclVtLFPTC4srXOp3P7nq5hCZ/PSVqX/lNDmdU2b4V039K6epn3JROC0HjDFDtE4SIWLYXQbzAqOOPZsizBgzk1+idYBoBCJjjEmQBKkIEa4KsVPSl0TCc1PGmDRhIBGChEgCBIkQkUiIzZKuEAlXusDNhKF0MUZYwowxQ/kxxGpJU0SkaO/nxwBJglSEKLEqMdBVKhGQlbSPjVKpCFHaVeLxZVXiKBF56M189VdFEiQRIj4JccYYsy+fFJ+JaVJcSn4JHppEIgRJcXJZUqyW1FPC3d4jJD+QCGGlUuxcShZanKydifCv9P6yxFdljOnmLGMlbpaguAazuKzvuKROhW+t84Ckc6z3BYkQQSXIZklLf5o8PNSopCFJQzwHGCRCRDlppiWlV+maU82BRAgAfuNmCQASISEAQCIEABIhAJAIAYBECAAkQgAgEQIAiRAASIQAQCIEABIhAJAIAYBECAAkQgAgEQIAiRAASIQAQCIEABIhAJAIAYBECAAkQgAgEQIAiRAASIQAQCIEABIhAJAIAYBECAAkQgAgEQIAiRAASIQAQCIEABIhAJAIAYBECAAkQgAgEQIAiRAASIQAQCIEABIhAJAIAYBECAClKGGMIQoAAAD0jAEAAEBBCAAAAApCAAAAUBACAACAghAAAAAUhAAAAKAgBAAAAAUhAAAAKAgBAABAQQgAAAAKQgAAAFAQAgAAgIIQAAAAFIQAAACgIAQAAAAFIQAAACgIAQAAQEEIAAAACkIAAABQEAIAAICCEAAAABSEAAAAoCAEAAAABSEAAAAoCAEAAEBBCAAAAApCAAAAUBACAACAghAAAAAUhAAAAKAgBAAAAAUhAAAAKAgBAABAQQgAAAAKQgAAAFAQAgAAgIIQAAAAFIQAAACgIAQAAAAFIQAAACgIAQAAQEEIAAAACkIAAABQEAIAAICCEAAAABSEAAAA8N0ThABAHCQSibSkdJEvmzTGTBI9ACWfI40xRAFAmAq3ZklVkvat+N/6iP5Ko5JmJF1b/r/GmCHONgAKQgBxKfCWirrm/P/uk1RLZNY0lS8cr0kaknTNGDNDWABQEAIIa8HXnC/2miU1ERFfZfIF4xAjjgAoCAF4WfBVSWrLF3xtklJEJRKykvrzBWM/I4wAKAgBWCn80vmCr1PRna8Ha0YldecLxUnCAYCCEIhf4VeVL/oo/LBaodjNiCJAQQigdIq/tKTj+eKPW72wI5svEs8xmghQEAIIf/FXtaz4YxUvvDS1rEhkJBGgIAQQYAHYLOm0WNmLcMhIOs1qZ4CCEIC3BWBnvgBk9A9RMJUvELsJBUBBCIACEKBABCgIAVgsAJvFLWDEB7eYAQpCAPlFIOckHSYagHokHWeRCkBBCMShCGzW4upMbgO7oHZbUrW/S0qS6neXq2pjmSQpXfOfv19Sv/vJh/9u1czsgkav//bI3039K6fJ6dyyf59/+PdTP+U4Ke6YktTJ6CFAQQiUUhF4XIu3gtkHcBWpyjLV73lSTY1PPSzmmhorSvJ3zQzPPSwqM8O/anTsN2XvL9AIVpfV4q3lc4QCoCAEolQALu0H+B7RWBzFa3qhQk2NT6nphQrV1iQJigWjY/MaHftNmeFflflujtHH/3hf7H8IUBACIS4CT0v6Uxx//5cOblDTCxVqbdlAwedjwZgZnlPmuzl9c/lBXMPwmRZHDykOAQpCINBC8LRiMhKYqixTa0ulXmrZoNaWDZz8EBsYfKBvBh9oYPB+nG5Hv2+MOc3ZBygIAb+KwDYtLgwp2TmBLx3coI6XUxR+Jab3YnaxWCztEcWsFhek9HPGAQpCwO0icF++CKwvtd+toz2ljpc3luwiDqwtMzyn3ouz6r2ULcVfbzRfHF7jTAMUhICTQrBbJbRP4N7d5frT4Wp1vMyCZ6yu92JWn/Xc04/5LXVKxGfGmOOcXYCCELBaBO6TNKQSuCXc0Z7SqWObWOgBR6amczrT9UupjCJmJTUzaghQEAKrFYLdivhoIAUgKBCL0mOM6eSMAhSEoAhMS+pXROcG7m+s0Kljm5j/h0Blhud0pusXXR2ei+qvMCqpzRgzydkEBSEQr0IwkiuFU5Vl+uTtLcwBRKid77mnM113o7jlDSuUQUEIxKQQPC7p0yh95v2NFfrk7S2q31POCUTkjI7N68SHd6I4evgmj8sDBSFQeoVgtyI0P7CjPaWP396iqo1lnDyUjJnZBR09+e+o7YPIPENQEAIUgv451lGtU8c2UwQiNsXhma676uq9R2EIUBACnhSBVVrcNib0C0UYCQQiN3I4qsVta3h+MigIgRAXg9fCXgjub6zQ/312K1vDAAVMTef0f528HYU5hxljTDNnDBSEQLgKwW6F+NZwqrJMX39Rw/YwQDEV1/CcXnl1OuyrlbmVDApCgEJwbcc6qvXJO1s4UYBDJz64E/b5hhSGoCAEAigEOyV9GcbPVrstqa+/qGGbGMADo2PzOnjon2EeNTxijOnmTIGCEPC2EAztc4Y72lO6cHYrJwnwydGTt8P6+DyelwwKQsCjQjC0K4cvfLSVJ4cAAeq9mNXRP98O40djRTIoCAEXi8FuhWyeYKqyTJf7fs9tYSBM1Vd4byczvxAUhICDQnCfpL+F6TPt3V2uy32/Z99AIMRmZhd08NA/9eP1+bB9tGe5jQwKQqC4YjBU+wlSCAIUhi4ZNcbs4+yAghBYuxDsVIhWD1MIAhSGHmE1MigIgQKFYKgWjVAIAhSGPmDRCSgIgWXFYJukS2H4LLXbkhoZSFMIAiVeGO588e9hWnzSbozp58yAghBxLgaHJDUF/TlYNQzET8hWJfNsZFAQIpaFYGhWELOPIBBvIdvHkJXICAT3xRBEMXguDMVgR3tKufE6ikEg5jpezueC9lDkgr/lcyTg77WZEUL4WAhWSbomqTbIz8E8QQCrCdH8wiljTJozAr9wRYRfxeA+SfeCLgYvfLRVN67soBgEUFDVxjLdHdmlCx8F/lzy2kQiYfK5E/D+Os0IIXwoBo9L+jTIz7C/sUKX+7ZzMgAU5bnWyTBsU/OmMYbbyKAgRKSLwX5JrUF+hsG+7WpqrOBkALAlMzynlkO3gv4YA8aYNs4GKAgRxWJwUgHeImZUEICbDh66pavDc0F+BOYVgoIQkSoEqyRNSgpsyd5Xn9eotWUDJwOAqwYGH+iPr00H+RGyktI83QQUhAh7MZiW9I+gjs8KYgBem5ldUEPrpKZ+ygX5MZ4xxkxyNuAWrppwsxhsDrIYPNZRzQpiAJ6r2limG1d26FhHdZAf4x/5nAu4cw1nhBAuFYOdkr4M6vgsHAEQhBAsODlijOnmTICCELEuBlOVZbrx7R8YFQQQmBBsZk1RCMe4iiKyxeD+xgrdHdlFMQggUEubWe8P7i7Fl/lcDFAQIl7F4LGOaraUARAql/u2BzmvkKIQzq7p3DJG1IrBCx9tVcfLKU4CgFA633NPb314J6jDc/sYFITwrRhslnQliGOzeARAFAS82OSAMWaIswAKQnhZDKYV0NYyI/1p1e8p5yQAoChcH/sUgoIQnhWDVZLuBXHsG9/uUG1NkpMAIFKmpnPa+eLNoA5fzRNNYBWLSlCMaxSDAGBdbU1SN77dEaucDQpClLBEIjEkqZZiEAAiUxTW5nM3QEEIV4rBc5KaKAYBIHJFYVM+hwMUhHBUDLZJ+pPfxx3s204xCKDkisLBYPZP/VM+lwOrX+9ZVII1isFAFpGwzyDc1Hsxq4HBB8oMzxX9aLFUZZlaWyrV1PgUbRKutsmjf74dxKFZZAIKQtgqCK9JqvfzmO++vkmnjm0m+LBlZnZB53v+R+d77nn2XNlUZZneOFytNw7/F49NhG1nuu7qL3/9xe/Djhpj9hF9UBCimGLwuKRP/TxmR3tKF85uJfgo2okP7qirN5AdkXSso1qfvLOFk4CiHT15W72Xsn4f9k1jDHMKQUEIS8VgWj5vPl27LakbV3YQfFg2M7ugg4f+qR+vz4fi8+zdXa7Lfb9n1BBF2XngpqZ+yvl9WDatxmPIXCik3+8DjgykiTosO3rytp5+fiI0xaAk/Xh9Xk8/P6GjJ29zgmDZ5f8nkEUm/UQeKzFCiEcbRAC3ir/6vEatLRsIPtY1OjavhrZJW6/d31ihw+0b9VJL5bqjeDOzC/pm8L56Ls3q6vCcvU4Oj1qERQEtMuHWMSgIsWox6PuqYuYNwsuLZkd7Sh+/vcXxbdyZ2QW99eGdoud7sWIeVgU0n5BVx6AgRMGCsFvSYb+Ol6os092RXQQerheDXnY0ir1wUxTCqs0NE56tjl9FjzGmk8iDghDLi8F9kv7m5zG5VQwrpqZz2vniTcudjBvf/sHzhR0zswva+eLfLV+8eeoOrBgYfKA/vjbt92GfNcbwzGOwqAQP+TqXpKM9RTEIS058cCdUxaAkVW1cPFaqsszV3wHx1tqyQR3tvo8mM48QkhghhKREItEs6Yqfx/z5+11sz4F1FTM6GMQijszwnFoO3eJEIeoOGGOGCEO8cUWGJJ3282BuTPJHPFwbs7atzP7GikBW9DY1Vmh/YwUnClwDQEGIaMuPDjb5dbzabUm9cbiawMOS0bHfLP1c/e7gtndJMzcQ0deUn0cOCkLE2HE/D3bq2CYiDsuqNv4f1grHADeonpzOcaJQCk4TgnhjDmGcT77P+w7yeDoUq5iNqINYyVvMHEcgAtiXMMaeIASxxuggQq1+T7n27i639Ii6l1+d1g8+PwLx5VetbRGyv7FCl/u2c0JRlACeYHJcjBTGFiOEcT75icSkpFo/jsUm1LCrmJW8e3eX+1YUPtc6aflZyjzGDnb5vFn1lDEmTdTjiTmE8S0Gm/0qBiWxkAS2NTVW6N3XrY0u/3h9Xsm6cY2OeTenMDM8p2TduOVi8N3XN1EMIiq5szZ/bQAFIWKkzc+DHebRXXDg1LHNRW3Y29A2qc0NExoYfODaZxgYfKDNDRNF7Tt4rKNap45t5gQiSrmzjajHE7eM43riE4kZSb5kGuZPwS3ne+7prQ+Lf+pH7bakTh3bpJdaKi3vgTkzu6BvBu/rTNcvmvqp+JXEH7+9hZFxuOLgoVu6Ojzn1+Gyxpgqok5BiHgUg83y8ckkFz7aqg5GCOGSYp8j7LfabUmNDKTZfB2uCWBxCU8uiSEyVjw1+3kwikG4qWrj4gKlkf605WcJ+yFVWaaR/rRuXNlBMYio59Bmok5BCApCV/FYL3ilfk/5w8Jwb4BPKtm7u1wj/WndHdnF4hGUSi6lIKQgREz49qi6psaniDY8Lwx/GEgrN16nrz6vUe027zenrt2W1GDfduXG6/TDAFvKoORyaRMRjx/mEMbthPs8f3Cwb7uaGCVEQHovZjUw+EDfXHa22vilgxvU8XJKrS0bCCoCUcx+nC5hHiEFIUq8IOyU9KVfx8uN1xF0hNrM7OLiFOb9IeySdeN+Hu6IMaabqMcHGTB+0n4diPmDiIKqjWUUg4gEn3NqmohTEKK0Nft1oPrdzKsCgIjm1GYiTkEIuIJRFwAgp4KCEOHk3wrjF7hlDAARzamsNKYgBAAAAAUhSlIikUj72r1kUQkAuKZ+95N+XzN4pjEFIUpUmhAAQDQFMIdwH1GnIAQAAAAFIQAAACgIAQAAQEEIAAAACkIAAABQEKIUGGOG/DxeZniOoANARHOq39cMUBACAACAghClaOpfOYIAAORUUBAihDJ+HWhymuQFABHNqRkiTkGIEs8pvmWT4V+JNgBEM6dOEnEKQlAQuoLbGwAQ2ZxKQRgzTxCC2BmS9J4vyeunnGZmF4J4/ibwiJnZBWWG55T5bk6j1+c1OvabsvcXCv5sqrJM9XueVP3ucjW9UKGmxgraMELRhqd+8rUgHCLq8ZIwxhCFuJ30RMK3k/7V5zVqbdlA0OGr3otZnen6xfULaO22pE4d26SOl1MEGb4aGHygP7427dvxjDEJoh4vdHvjadSvA30z+IBow3Mzsws6evK2knXjStaN6+ifb3symjL1U05H/7zsOCdva2Z2gROAUsulo0Q8fhghjONJTyTOSfqTH8dKVZbp7sgugg5vrlpj8zp46J+r3v71S6qyTJf7fq/6PeWcFHhic8OEn+38M2PMcaIeL4wQxtOQXwfK3l/giSXwpBDc3DChhrbJwIvBpXbe0DapzQ0TGh2b5wTBVZnhOb/b+RBRjx8WlcSQMaY/kfBvekjmuzk1NVYQeLji4KFbumqzk5GqLFNrS6WaGp9aXDiyYkRvdGxxwUlm+FcNDN4v+iK8VBjub6zQ5b7tnCy402lZfQAADbtJREFUlkP9vkYQ9fjhlnFcT3wiMSSpyY9jcdsYbpiZXdDOF/9edJF2rKNap45ttr1SeGZ2QWe67qqr917R7f7Gt39ghTIc8/l2ccYY00zU44dMFV++9QCz9xc0wOISOCwGn37e+kUxVVmmkf60cuN1+uSdLY6KsqqNZfrknS3KjddppD+tVGWZ5Xb/9PMTmuKJPXBgYPCB37eLGR2kIETMdPt5sPM994g4bGtonbT8s+++vkl3R3Z5ssCjfk+57o7s0sdvb7H8moP/5y1OIKKUO7uJOgUhYsQYMyNpwK/jXR2eY7I9bDnxwR3LW8gM9m3XqWObPf9Mbxyu1qDFOYJTP+V04oM7nEgUbXRs3vZ8WZsG8tcGxBBzCON88hOJZklX/Dpe7bakan+XJPAoujNhxcdvb9Ebh6t9/Wzne+7prQ+tFXu58TpOJopy9ORt9V7K+nnIA8aYISJPQYh4FoWTkmqJBKIsyIVLOw/ctDSCOdi3ndX2sGxqOqedL9709ZDGmDSRjy9uGeMcIUDU1e95MsBjW5ur6PfWIYi2M12/cC0ABSH8Y4whCQAOzNzn0XVw1+jYvN+3irkWgIIQkqT3CQGi7GqAT8OxeuymF7hdDGvOdN3lGgDfMYcQiw0hkfC1Ibz7+iYukLDklVenLe3DdqyjWp+8s8XXz3bigzuWNqxmc3ZYNTD4QH98bdrXYxpjEkQeFIRYKgiPS/rUr+NxgYRVxazkfff1Tb5sOyMtjuL85a/W5nkFsQIa0eTzU0kk6U1uF4OCECuLwhlJKb+O19Ge0oWzWwk81lXM84v9eI5w2D4PSkMA28xkjTFVRB4ScwjxqON+Hqz3UpZH2sGSy33bVbvN2h6WV4fnlKwb19GTtz25YCfrxi0Xg7XbkhSDsGRg8IHvC0n8zvkIN0YI8WiDSCSGJDX5dTxuHaMYxYzMLS/KPn5ni1pbNti+UL9VxNNSluzdXa4fBtKcNFgSwK3ijDGmmciDghCrFYRpSf/w85gvHdygr7+oIfiwpJg5havZ31ihpsanlK75z9Nzpv6V0+R0TpnhXx2vWmbOIIrxyqvT+uay73dLnjHGTBJ9UBBiraLQ1wUmXEBRrJnZBR089E/9eD1cz8feu7tcl/t+r6qNzMaBfx0cG1hIAgpCWC4Kr0mq9/OYPNoLdgrDoyf/HcToyiP2N1bo689rKARRlMzwnFoO3fL7sKPGmH1EHxSEsFoQpuXzrWNJuvHtDtXWJDkBsHVxPfq/bhc918+u2m1JXfjfW+nEwHZn5unnJ4I4NLeKQUGIootC328d125L6saVHQQfji+253v+R+d77rk2UT9VWaY3DlfrjcP/xUggHNt54KZvnZdluFUMCkLYLgr7JbX6eUxWZ8Iro2PzGh37TZPTOY2OzT/2HOKqyjLV7ylXuiap+j1Pqn5POUGD655rnQxi/uuAMaaN6IOCEE6KQl83rJbYzBdAabKzdZIL2IAa6+K+B6zwfQLy1eE5TzYWBoCgHD15O4hiMJAcDgpClKD8BOQjfh+391KWohBAyRSDATyJRJKOsIgEFIRwsyjslvQ+RSEARKYYfD+fu4F1MYcQxTWYRKJb0mG/j9vRntKFs1s5AQAoBq3pMcZ0cgZAQQgvi8Ih+fi84yUsNAEQJQEtIJF4TjEoCOFjUej7k0wk9ikEEA0B7TMo8SQSUBAigKJwUlKt38dNVZbpxrd/YHNgAKEzM7ugnS/+3bUN0Ys0ZYxJcxZgB1dU2JZPPFN+Hzd7f/GRT6Nj85wEAKExOjavp5+foBgEBSEoCv3U0Dap3otZTgKAwPVezKqhbTKow1MMwjFuGcOdhhTQ7WNJeungBn39RQ0nAUAgAlxJTDEICkKEsigcUgCrj6XFxSYjA2nmFQLwzczsghpaJ4NaPCKxmhgu4uoJ1+QTUyaQLvJPOT39/IQywWzxACBmMsNzevr5CYpBUBACaxSFPUEdv+XQLb3y6jQnAoBnjp68rZZDt4L8CD0Ug3Abt4zhTcNKJI5L+jSo46cqy/TDQFq1NUlOBgBXTE3n9FzrZFCriJe8aYw5x9mA2xghhCfyCetAUMfP3l/Qzhdv6kzXXU4GAMfOdN3VzhdvBl0MHqAYhFcYIYS3DSyRSEu6JikV1GdgI2sAdgW80fTDPq6kfcaYSc4IvMIVEp4yxkwaY6okjQaWSfMbWZ/44A4nBIBlJz64E+RG00tGjTFVFIPwGiOE8K+xJRKnJb0X5GdIVZbpct/vVb+nnBMCoHAFNjavg4f+GXQhKEnvG2NOc0ZAQYhSLAqbJV0J+nPs3V2uHwbSnBAAj3iudVI/Xg/FYzEPGGOGOCPwC7eM4at8gqtWgLeQJenH6/NK1o2z6ASApMVFI8m68TAUg6OSqikG4TdGCBFc4wvBLeQlg33b1dRYwUkBYiYzPBf0noLLcYsYFISIbVGYVsCrkJcwvxCIjxDNE5RYRQwKQuBhYdgt6XAYPsve3eW63Pd7tqkBStDM7IIOHvpnWOYJSotPHenkzICCEPhPUbhP0pBCMFpIYQhQCHosK6nZGHONswMKQqBwYditkIwWUhgCFIIe+MwYc5yzAwpCYP2isErSpEIyWkhhCFAIuiArKW2MmeEMIWy4siGUjDEz+SecHAnLZ/rx+ryefn5COw/c1OjYPCcJCKHRsXntPHBTTz8/EbZi8Ej+iSMUgwglRggRjYaaSAxJagrTZ0pVlunrL2rYrgYIgczwnF55dTosq4aXGzDGtHGGQEEIuFcUphWSLWpWevf1TTp1bDMnCfDZma67+stffwnjR2MrGVAQAh4Xhm2SLoXxszHPEPBeSOcHLtdujOnnTCFKuGohcowx/caYhKQ3w/bZluYZbm6YUO/FLCcLcFHvxaw2N0yEcX7gkjeNMQmKQUQRI4SIfiMO2TY1KzFqCNg3M7ugV16b1tXhuTB/TDaXBgUhQGFoHXMNAWtCPDeQQhAUhEAEisIqLT7tpD7MnzNVWaYLZ/9brS0bOGlA3sDgAx09+e8wrhReaVSLTxlhCxlQEAIRKAz7FbKtagqp3ZbUhf+9le1rEEuZ4Tkd/V+3NfVTLhIfV1IbhSAoCIFoFofdCvmtZIpDUASGGreGQUEIUBgGI1VZpk/e3qKOl1OcPERe78WsTnx4Jwq3gykEQUEIxKQw7JT0ZdQ+97GOap06tpnVyoiEmdkFnem6q67ee1H8+EeMMd2cRVAQAvEoDPdpcQFK5IbguLWMMIrgreDlslpcKHKNMwkKQiCehWFkFqCspqM9pVPHNqm2JskJhW+mpnM60/WLei9FehP2AUmdLBQBBSEFIbC8OOxUBG8nUyCCArBo3BYGKAiBdQvDSOxnaNX+xgqdOraJW8woSmZ4Tme6fgn7U0KKwf6BAAUhYLs47JR0ThGca7ia2m1Jdby8UW8c/i8WqUDS4iKQ8z3/o96Ls1GdA7iarKTjjAYCFISAW4VhVb4wPFyKv1/ttqTe6KxWR3uKIjEGxV/vpazOd98rteJvuZ58IchoIEBBCHhWHKa1uBClvpR/z1RlmVpbKvVSywYesxdRA4MP9M3gAw0M3o/aHoB2ZLS4QGSSMw9QEAJ+F4f7JHWXenG4WqHY1FjBiGLAZmYXlBmei1Pht9xovghkuxiAghAITXHYnC8Oa+Mag9ptSTW9UKGmxqfU9EIFK51dMjWdU+a7OWWGf1Xmu7lSvtVrKRz5InCIlgFQEAJhLw5jN3JoRaqyTPV7nlRT41Oq3/Ok9u0pj33RODWd07WxeY2O/abM8K8aHfstbqN8VjASCFAQApEvDtNaXJDSSjSKLx7TNUnV1jyh+j1Pqmpjmep3Pxna29Qzswsavf7b4v+O/aap6f9Xk9M5ijx7BrS4MGSSUAAUhEApFoinJR1XCW1lA7ggK+m0MeYcoQAoCIG4FYdpLd5abiIaiCFWBgMhwNJAIGDGmEljTLMxJmGMSUg6osVJ80ApmtLiY+MS+T/NFINA8BghBML+JV18UsppxXjlMiJfAJ7mSSEABSEA9wvE42L1MsJpVNI5CkCAghCAvwViWosjiIeJBgLQo8URwElCAVAQAghXkdgpqVMsVIG7MpK6Gf0DKAgBRLdIbMsXieyFCCsG8sVfP6EAKAgBlHaRmJa0VCgyJzGeRrW47VE/t30BCkIAKFQotonbzqUiI6mfwg8ABSEAN4rFfZKaKRZDXfQN8cxfABSEAIIsGJslLRWN+8T+iW6ZknRN0pCka8aYIUICgIIQQJSLxqp8sbhPUnrZf8ft2c7ZfJF3TdLk0n8bY2ZoJQAoCAFg9WKyOf+f6fyflf8teX8rO7Psvyfzfx75b0bwAFAQAgAAIDLKCAEAAAAFIQAAACgIAQAAQEEIAAAACkIAAABQEAIAAICCEAAAABSEAAAAoCAEAAAABSEAAAAoCAEAAEBBCAAAAApCAAAAUBACAACAghAAAAAUhAAAAKAgBAAAAAUhAAAAKAgBAABAQQgAAAAKQgAAAFAQAgAAgIIQAAAAFIQAAACgIAQAAAAFIQAAACgIAQAAQEEIAAAACkIAAABQEAIAAICCEAAAABSEAAAAoCAEAAAABSEAAAAoCAEAAEBBCAAAAApCAAAAUBACAACAghAAAAAUhAAAAKAgBAAAAAUhAAAAKAgBAABAQQgAAAAKQgAAAFAQAgAAgIIQAAAAQfj/AYNRMcifsmU/AAAAAElFTkSuQmCC;fontSize=21;fontFamily=Lucida Console;imageBackground=none;labelPosition=center;align=center;spacing=-34;" vertex="1" parent="1">
          <mxGeometry x="30.000000000000018" y="460" width="219.05" height="200" as="geometry" />
        </mxCell>
        <mxCell id="WKG7Bg_0KT1rRg3zPcpV-12" style="edgeStyle=orthogonalEdgeStyle;rounded=0;orthogonalLoop=1;jettySize=auto;html=1;exitX=1;exitY=0.25;exitDx=0;exitDy=0;entryX=0;entryY=0.5;entryDx=0;entryDy=0;entryPerimeter=0;fontFamily=Lucida Console;fontSize=16;" edge="1" parent="1" source="WKG7Bg_0KT1rRg3zPcpV-2" target="WKG7Bg_0KT1rRg3zPcpV-4">
          <mxGeometry relative="1" as="geometry" />
        </mxCell>
        <mxCell id="WKG7Bg_0KT1rRg3zPcpV-15" style="edgeStyle=orthogonalEdgeStyle;rounded=0;orthogonalLoop=1;jettySize=auto;html=1;exitX=1;exitY=0.5;exitDx=0;exitDy=0;entryX=0;entryY=0.5;entryDx=0;entryDy=0;entryPerimeter=0;fontFamily=Lucida Console;fontSize=16;" edge="1" parent="1" source="WKG7Bg_0KT1rRg3zPcpV-2" target="WKG7Bg_0KT1rRg3zPcpV-5">
          <mxGeometry relative="1" as="geometry" />
        </mxCell>
        <mxCell id="WKG7Bg_0KT1rRg3zPcpV-16" style="edgeStyle=orthogonalEdgeStyle;rounded=0;orthogonalLoop=1;jettySize=auto;html=1;exitX=1;exitY=0.75;exitDx=0;exitDy=0;entryX=0;entryY=0.5;entryDx=0;entryDy=0;entryPerimeter=0;fontFamily=Lucida Console;fontSize=16;" edge="1" parent="1" source="WKG7Bg_0KT1rRg3zPcpV-2" target="WKG7Bg_0KT1rRg3zPcpV-6">
          <mxGeometry relative="1" as="geometry">
            <Array as="points">
              <mxPoint x="210" y="129" />
              <mxPoint x="210" y="270" />
            </Array>
          </mxGeometry>
        </mxCell>
        <mxCell id="WKG7Bg_0KT1rRg3zPcpV-19" style="edgeStyle=orthogonalEdgeStyle;rounded=0;orthogonalLoop=1;jettySize=auto;html=1;exitX=0.25;exitY=1;exitDx=0;exitDy=0;entryX=0.368;entryY=0;entryDx=0;entryDy=0;entryPerimeter=0;fontFamily=Lucida Console;fontSize=16;" edge="1" parent="1" source="WKG7Bg_0KT1rRg3zPcpV-2" target="WKG7Bg_0KT1rRg3zPcpV-3">
          <mxGeometry relative="1" as="geometry" />
        </mxCell>
        <mxCell id="WKG7Bg_0KT1rRg3zPcpV-20" style="edgeStyle=orthogonalEdgeStyle;rounded=0;orthogonalLoop=1;jettySize=auto;html=1;exitX=0.75;exitY=1;exitDx=0;exitDy=0;entryX=0.5;entryY=0;entryDx=0;entryDy=0;fontFamily=Lucida Console;fontSize=16;" edge="1" parent="1" source="WKG7Bg_0KT1rRg3zPcpV-2" target="WKG7Bg_0KT1rRg3zPcpV-3">
          <mxGeometry relative="1" as="geometry" />
        </mxCell>
        <mxCell id="WKG7Bg_0KT1rRg3zPcpV-2" value="Drums" style="shape=image;verticalLabelPosition=top;labelBackgroundColor=default;verticalAlign=bottom;aspect=fixed;imageAspect=0;image=data:image/png,iVBORw0KGgoAAAANSUhEUgAAAgAAAAIACAYAAAD0eNT6AAAABHNCSVQICAgIfAhkiAAAAAlwSFlzAAAN1wAADdcBQiibeAAAABl0RVh0U29mdHdhcmUAd3d3Lmlua3NjYXBlLm9yZ5vuPBoAACAASURBVHic7N173KdTvf/x12eMTM7kMIZqI6eQY1FRjJ3kVElbckwIpV06szfRj7YKkU2FYhyqLadqhDJUymkMwmYQG5kZjZyNYQ6f3x9r3TP3jHvuue971rrWdXg/H4/v47bb9Vkf931da32+61rXWubuiEj7mdlwYCdgC2DL+BPgjvgZD1zj7jPLZCgiVTIVACLtZ2YbAGMIA39/xgP7u/v9+bMSkZKGlU5ARPKx4ChgAgsf/In/nQlmdpSZWd7sRKSk4aUTEJGsvgicMsj/zYhe/5tT06YjInWhRwAiLRWn/ScQBvShmA5srscBIu2kRwAiLRQX/I1h6IM/8X87JsYSkZZRASDSTjsxsGf+C7NljCUiLaMCQKSdUgz+PbZY+H9FRJpGBYBIO6UctFMWEyJSEyoARNopZQGgGQCRFtJbACItZGZJb2x3154AIi2jGQAREZEOUgEgIiLSQSoAREREOkgFgIiISAepABAREekgFQAiIiIdpAJARESkg1QAiIiIdJAKABERkQ7SMZ8iDWRmBqwMrBY/I3v982oZ2rsUmNzrM6XXP091bSkq0jjaClikhszsrcDGwBq8fnBfDViV+hTwM4GnmLdA6CkS/g7c4+6PlUtPRPqiAkCkIDNbAtgQ2CR+No0/ly+ZVwbPAXcDd8WfdwP3ufurRbMS6TAVACIVMbOVmTvA9/xcn/p8k6/aTOAB5i0M7nL3qUWzEukIFQAimZjZOsAHgQ8A7yTDs/mWmgzcDvwOuNbdHyqcj0grqQAQScTMlgNGEwb9HYE1y2bUGo8C1wHXAuPc/fnC+Yi0ggoAkSEys2GEb/Y7Egb9rejudH5VZgK3EoqB64Db3X122ZREmkkFgMggmNko4EOEAX8HYMWyGXXeM8D1hILgt+4+qXA+Io2hAkBkIcxscWB34NOEb/uLlc1IFmAWYVbgPOBX7j6jcD4itaYCQGQBzGxDwqC/L2HTHWmOqcBFwHnufl/pZETqSAWASC9mtizwCcLA/67C6UgatxFmBX7u7i+UTkakLlQAiABm9j7CoL8nsGThdCSPacAvCbMCfyydjEhpKgCks8xsKeBw4DPA2wqnI9V6GPgRcLa7v1w6GZESVABI55jZksARwFfRs/2umwp8BzjL3aeVTkakSioApDPMbARwGPB1wmE6Ij2eAv4L+KG7Ty+djEgVVABI68UDdw4FvoG245X+TQa+DfxYBxVJ26kAkNYyszcQFvYdTThWV2Sg/g6cRFgw+FrpZERyUAEgrRM37jkQ+A/gLWWzkYZ7HPh/wPnaWEjaRgWAtIqZbUN453vd0rlIqzwIfNrdbyqdiEgqw0onIJKCmS1pZqcDf0CDv6S3LvAHMzs9vkUi0niaAZDGM7PtCN/61yqcStVeAyYBT/b6+SRhIdvLwCvA9D5+9v5ngBHAG+PP3v/c++dShAWUq8fPqF4/35D137J+HiHMBtxYOhGRRaECQBrLzJYBTia82meF08llCnBv/NxPWJzWM+A/7YVvYDMzYCXmFgRrABsAG8XPyHLZZeXAD4GvufuLpZMRGQoVANJIZrYjcA7tWeT3LGGQv4+5A/697v7PolktIjN7E3OLgY2ADePPFUrmldDjwCHufl3pREQGSwWANIqZLQecQni9r8kmEtYr/AH4k7s/UTifSpnZm4FtgffHz3plM1pk5wFfcvfnSyciMlAqAKQxzGw0MIYw1dwkDvwvcwf8P7r7lLIp1YuZjQTex9yC4O0077HOk8D+7j6udCIiA6ECQBrBzA4EfgwsXjiVgXoGuAr4DWHAf7pwPo1iZisRCoJdgQ8DK5bNaMBmAIe6+/mlExFZGBUAUntmdjxwbOk8BmAKcCVwGXCju88snE8rmNlwYDvgY8BHaMbCwhPc/bjSSYj0RwWA1Fbc0e88YL/SufTjCeBywqD/Z3efXTifVjOzYcB7CcXAHsCby2bUrwsJrwtqB0GpJRUAUktmtjxhYN2+dC59mAZcApzj7reVTqbLzOxdwCHAJ4E6btBzA7CHuz9XOhGR+akAkNoxs7cCVxMWgtXJROBs4AJ16PUSC8YDgMOp3xsF/wvs7O6PlU5EpDcVAFIrZrYFYeFcXZ7zzgJ+BZwFXF964x3pX9yYaAfgCGB3YLGyGc0xBdjV3e8onYhIDxUAUhtmtgvwC8K2s6X9kzDo/9jd/146GRk8M1sDOJRQDLypcDoQtmfey93Hlk5EBFQASE3E/fyvo/xrfs8DpwKnaYvXdohbRn8ROApYrnA6M4AddY6A1IEKACnOzNYH/kLZ7WFfBs4AvuvuzxbMQzIxsxWArwCfp+ws07PAe9z9gYI5iKgAkLLMbGXgFsqd5DedcKjLt939H4VykAqZ2SrANwiHSI0olMYjwNbuPrVQ+yIqAKQcMxtBeE1q6wLNO3AucLy7P1mgfSnMzFYHjgMOpsy2w7cA27v79IX+N0UyUAEgRcTV2r8APl6g+YnAwe5+U4G2pWbMbBtCMVji9cFLCQsD1RFL5YaVTkA669tUP/jPBE4CNtHgLz3itbAJ4dqoevvmjxPuBZHKaQZAKmdmhxAO9qnSeMK3/rsrblcaxMw2IcwGbFlx04e6+zkVtykdpwJAKmVmOwJjgeEVNfkK4SCh09x9VkVtSoOZ2WKE1wZPAN5YUbMzgV3c/bqK2hNRASBzxVPXdgK2IHwD2gJYrWhSIrIoJgN3xM944BqdUik9VAAIAGa2ATCG6qc+RaQ644H93f3+0olIeVoE2HEWHAVMQIO/SNttCUwws6PimzjSYVU9h5X6+iJwSukkRKQyI5h7z59aMhEpS48AOixO+0+g3G5oIlLOdGBzPQ7oLj0C6Ki44G8MGvxFumoEMCb2BdJBKgC6ayf0zF+k67Yk9AXSQSoAumuL0gmISC2oL+goFQDdpW//IgLqCzpLBUB3qeoXEVBf0FkqAERERDpIBUB33VE6ARGphfGlE5AyVAB0l256EQH1BZ2lAqC7NAMgIqACoLO0E2BHxc0/bkYrgEW67BZgGx2V3U0qADpMWwGLdNo0YFN3f6h0IlKGHgF0WNwD/JjSeYhIEV/T4N9tKgDkNOBLhINBRKT9XgQOc/czSyciZekRgABzHgeMQWsCRNrsd8DB7v546USkPBUAMkdcGLgTYWewLePP1YomJXXxVOkEZEgmEd74uQMY7+5a8S9zqAAQaSEzS3pju7uljCci5WkNgIiISAepABAREekgFQAiIiIdpAJARESkg1QAiIiIdJAKABERkQ5SASAiItJBKgBEREQ6SAWAiIhIB6kAEBER6SAVACIiIh2kAkBERKSDVACIiIh0kAoAERGRDlIBICIi0kEqAERERDpIBYCIiEgHqQAQERHpIBUAIiIiHWTuXjoHqQkzGw7sBGwBbBl/rlY0KRFZFJOBO+JnPHCNu88sm5LUhQoAAcDMNgDGEAZ+EWmn8cD+7n5/6USkPD0C6DgLjgImoMFfpO22BCaY2VFmZqWTkbKGl05AivsicErpJESkMiOYe8+fWjIRKUuPADosTvtPIHQIItIt04HN9Tigu/QIoKPigr8xaPAX6aoRwJjYF0gHqQDorp3QM3+RrtuS0BdIB6kA6K4tSicgIrWgvqCjVAB0l779iwioL+gsFQDdpapfREB9QWepABAREekgFQDddUfpBESkFtQXdJQKgO4aXzoBEakF9QUdpQKgu1T1iwioL+gs7QTYUXHzj5vRCmCRLhsPvFsnBHaTCoAO01bAIp2mrYA7To8AOize+MeUzkNEijhGg3+3qQCQ04AvEb4NiEj7TSfc86eVTkTK0iMAAeY8DhiD1gSItNl4YH998xdQASC9xIWBOxF2Btsy/lytaFKL7jXg2dJJSCOtALyhdBKLaDJhlf8dhMH/Gi34kx4qAKRSZrYjMBao6gjSWcD3gWPdfVpFbUqDmdmSwAnAF4DFKmp2JrCLu19XUXsiWgMg1Yod3BEVNrkY4XnnPWa2Q4XtSgPFa+QewjVT1eAPcIQGf6maCgCpnLufA5xccbNrAb83s/PMbPmK25aaM7Plzew84PeEa6VKJ8d7QqRSegQgRZiZAb8APl6g+SnAZ9398gJtS82Y2R7AfwMjCzR/KbCXqyOWAlQASDFmNgK4Adi6UAq/Bo5293sLtS8FmdlGwEnAboVSuAXY3t31Cq4UoQJAijKzlQkdYdXTrj1mAz8HjnP3hwvlIBUys7cBxwOfoNxj0EeArd19aqH2RVQASHlmtj7wF8JrV6XMBH4KnODufy+Yh2RiZmsAxwKforq3UPryLPAed3+gYA4iKgCkHsxsO+A6YPHCqbwKnA18293/UTgXScDMVgG+ARwOLFE4nRnAju5+Y+E8RFQASH2Y2S6EhYFLlc4FeBn4CXC2dk1rpri75eHAQdTnmtrL3ceWTkQEVABIzZjZFsBvKLMie0FuAM4CrtQuavUWd7P8CGGvie0Lp9PbFGBXd7+jdCIiPVQASO2Y2VuBq4G3l85lPpOAHwPnuPuk0snIXGY2CjgEOBQYVTid+f0vsLO7P1Y6EZHeVABILcXNei6nXt/ieswErgTOAcZpVqCM+G1/NGHg/whlF/YtyA3AHu7+XOlEROanAkBqy8wWB84D9iudSz+eBX4FXAZc5+6vFs6n1cxsCWBH4GPA7pR9c2RhLgQ+7e4zSici0hcVAFJ7ZnY84fWtunuRcNDRZcBv3f3lwvm0gpktBXyIMOjvAixTNqMBOcHdjyudhEh/VABII5jZgYTn76VfExyoV4BrCAsab3T3Rwrn0yhmthawHbAr4YjqNxZNaOBmAIe6+/mlExFZGBUA0hhmNhoYA6xeOpcheAK4MX7+4O5/K5pNzZjZ2sD7CYP+dsCbS+YzRE8C+7v7uNKJiAyECgBpFDNbDjgF+HTpXBbR35lbEPwReLgrB8LEg6DeBryPuQP+GgVTSuE84Evu/nzpREQGSgWANJKZ7UhYhf+W0rkk8jJwH+Es+nvjz3uavhth3IVvY2Cj+HNjYEPqsTFPCo8Dh7j7daUTERksFQDSWGa2DHAycBhghdPJ5R/MLQjuJ8wcTIqfqe4+u2BumNkwYGXCu/ejCN/kN2DuoL9KueyycuCHwNfc/cXSyYgMhQoAabx4jsB5lDtRsJSZhB3mJs33mQK8RFiIOC3+7P3p/Z9BWGD3RmDJXv88/3+2NGF3xlHzfUZSz/fvc3qE8HrfjaUTEVkUKgCkFcxsSeDbwOcod8SrtNts4EzgG+4+rXQyIotKBYC0ipltQ5gNWLd0LtIqDxK+9d9UOhGRVPRNSVoldtAbEfaEf7xwOtJ8jxOupY00+EvbaAZAWsvM3kB4XfBomv+amVTr78BJwHnu/lrpZERyUAEgrRf3jz8U+AawWuF0pN4mE9aS/FjnOkjbqQCQzjCzEYRXBr8OrFo4HamXp4D/An7o7tNLJyNSBRUA0jnxjYEjgK8S3mGX7poKfAc4Syv7pWtUAEhnxVPmDgc+Q9iaVrrjYeBHwNk6tVG6SgWACGBm7yMsGNyTsPmNtM804JeEhX1/LJ2MSGkqAER6MbNlgU8QioF3FU5H0riNsDfEz939hdLJiNSFCgCRBTCzDQmFwL5orUDTTAUuInzbv690MiJ1pAJAZCHMbHFgd0IxsCOwWNmMZAFmAdcRvu3/yt1nFM5HpNZUAIgMgpmNAj4EfBDYAVixbEad9wxwPXAt8Ft3n1Q4H5HGUAEgMkTxKNx3EmYFPghsRfdOxqvaTOBWwoB/HXB76SORRZpKBYBIIma2HDCaUAzsCKxZNqPWeJQw2F8LjHP35wvnI9IKKgBEMjGzdQjFwAcIMwXahnhgJgO3A78DrnX3hwrnI9JKKgBEKmJmKwObApv0+rk+3X1sMBN4ALgbuKvnp7tPLZqVSEeoABApKB5UtCGhGOhdGCxfMq8MnmPegf5u4D4duCNSjgoAkRoys7cCGxOOMR5JeHzQ+7Mq9Zk5mEk4TGfyfJ8phGN173H3x8qlJyJ9UQEg0kBmZoTNiXoKgvmLhD0TN/lLXj+49/zzVFdHItI4KgBEWsjMkt7Y7m4p44lIecNKJyAiIiLVUwEgIiLSQSoAREREOkgFgIiISAepABAREekgFQAiIiIdpAJARESkg1QAiIiIdJAKABERkQ5SASAiItJBKgBEREQ6SAWAiIhIB6kAEBER6SAVACIiIh2kAkBERKSDVACIiIh0kAoAERGRDlIBICIi0kEqAERERDpIBYCIiEgHqQAQERHpIBUAIiIiHaQCQEREpINUAIiIiHSQCgAREZEOGp4rsJkNA7YGtgRGAavP93OZXG1Lp7wITAKenO/neOAWd59dMDdpOPVjUpEi/Zi5e7pgZiOAHYCPALsBqyYLLjJ4TwG/Bq4Ernf36YXzqYyZpbuxAXe3lPHqTP2Y1Ey2fixJAWBmGwPHALsASy9yQJH0XgLGAie6+z2lk8lNBcDgqR+TBkjajy1SAWBmbwG+BeyL1hNIM8wGLgL+090fL51MLioABk79mDRQkn5sSAWAma0IHA18DlhiqI2LFPQqcCZwkrs/UzqZ1FQALJz6MWmBRerHBl0AmNmOwM+AFQfbmEgNPQPs7e7XlU4kJRUA/VM/Ji0zpH5sUNNdZvZF4Gp000h7rAhcHa9t6QD1Y9JCQ+rHBjQDYGZLAD8EDhxSaiLNcD5wmLu/WjqRRaUZgNdTPyYdcT4D7McWWgCY2SrAVYR3YUXa7hbgw+7+j9KJLAoVAPNSPyYdM6B+rN8CIFbMN6KbRrrlFmC7Js8EqACYS/2YdNRC+7GFrQH4IbpppHu2Jlz70g7qx6SLFtqPLbAAiIsJDkyckEhTHKiFgc2nfkw6rt9+rM9HAPEVmauBxTImJlJ3s4Cdm/iKoB4BqB8TiRbYj72uAIibYzyEXpERgfB+7TpN2yyo6wWA+jGRefTZj/X1COBodNOI9OjZLU6aRf2YyFx99mPzzADEPbEfRNtiivT2KrBuk84O6PIMgPoxkT69rh+bfwbgW+imEZnfEoR7Q5pB/ZjI672uH5szAxCPwrwLnYYl0pfZwKZNOUq4qzMA6sdE+jVPP9b7JjkG3TQiCzKMcI9IvakfE1mwefoxc3fMbAQwFVi6WFoi9fcSsLK7Ty+dyMJ0cQZA/ZjIgMzpx4bH/2AH8t40s4BrgfE9H3efnLE96QgzWw3Ystfng+R773tpwr0yNlP8IYmvvL0lft4cf6Zu42TgceCJ+PPxGr4aqX5MGqlUP9YzA3AOcHCmxiYCB7j7rZnii8xhZlsBFwDrZWriXHc/JFPsPpnZMMK/z+bA25g7yPf8XLLKfHqZxrxFwRPAw8AEYKK7z64yGfVj0hZV9WNGeCYwCVg1cQMOfB84xt1fSRxbZIHM7I3AicAXgNRT108Bo3INbnGwXxfYgvBNYAtgM5o3rf0ScCdwB+Hb8h3Ag5l/b+rHpDWq6McMeA/w58TBAU5z96MyxBUZEDM7Fcixn/973f0vKQKZ2ZuAfwW2Igz2m9O8wX6gXiLMDtwB3Ar83t3/mSKwmakfk1bK2Y8Z8Hng9MSBJwKbqWKWkmIFfSfpp9H+3d3PGMr/MH5T3RL4ELAT8C66u2p9NnAbcA3wW8Iz9SHNEJiZ+jFppZz92HBgVOKgswjPynTTSFHu/oqZHUD4ZphyQc2g7hkzW5mwqOdDwI7ASglzabJhhCNLtwa+CTxtZtcRioFr3X3qIGKpH5NWytmPDQdWTxgQwo2rhTJSC+5+q5ldC+ycMOxC7xkz+xdgP2B3wtR+7V+jq4GVgE/Gj5vZHcCvgAvd/f8W8r9VPyatlasfG0b6ynl84ngiiyr1NdnnPWNmy5jZp8zsRuAR4ATCdL8G/8Ezwu/uBOARM7sx/m6XWcB/X/2YtF3yfmwY6Stn3ThSN6mvyTn3jJkNM7N/NbMLgSnAT4D3o0E/JSP8Tn8CTDGzC+PvvPfaCfVj0nbJ+zEDXgAWVFUPxShtjiF1EjfZmJQw5IvAO4EDCNP8aySMLQP3d+BCwvvSt6N+TFosRz9mhPdck2nClqHSPam3xpV2Uz8mdZS6H+vq60ciIiKdpgJARESkg1QAiIiIdJAKABERkQ5SASAiItJBKgBEREQ6SAWAiIhIB6kAEBER6SAVACIiIh2UfCdAESniKcL59Q8CUwnbFb8Uf87/6f2fQ9hCd+n4s79/XpFwJvn6wGoV/DuJSEYqAESaYzrwEGGg7/150N2fqzIRM1uWUAj0fDaIP9cGFq8yFxEZGhUAIvX1AHA9MA6YADzu7rPLptQ/MxtOKALeAWwfP+sXTUpE+qQCQKQ+/o8w2I8DxrXlNLp4itloQjEwGlizbEYiAioAREqawrwD/qOF86mEmf0Lc4uB0cCokvmIdJUKAJFqvQhcBowBbnT3zt9/ZrY1cACwF7BC4XREOkMFgEh+s4DfARcCV7r7tML51JKZLQHsRigGdgKGl81IpN1UAIjkczfhm/4l7j6ldDJNYmarAPsQioFNCqcj0koqAETSeh44Fxjj7n8tnUwbmNk7CIXAgYS9CEQkARUAImn8E/g+8AN3f750Mm1kZksDnwWOAlYpnI5I46kAEFk0U4BTgLPd/eXSyXSBmS0JHAp8Bb1BIDJkKgBEhuYJ4GTgPHefXjqZLoqLBg8Cvg68pXA6Io2jAkBkcP4GfJvwjH9G6WQEzGxxYH/gG4RdCEVkAFQAiAzMVMI3zQvcfVbpZOT1zGwxwpsD/4UOKxJZKBUAIv2bDfwYONrdny2djCxcPKjoW4QFg4sVTkektlQAiCzYeOBwdx9fOhEZPDPbHDgbeFfpXETqaFjpBERq6FngCGArDf7N5e4TgHcT/paVHpcs0gSaARCZy4ELgK+6+9TSyUg6cWfBU4B9S+ciUhcqAESC+4DD3P2m0olIPma2PXAWsH7pXERKy1EAPJU4nnTDCsAbCrX9I+ALep+/G+L+AacBh5fORaSk5AWAu1vKeNJ+ZvZ+4FpgiYqbfhE4xN1/UXG7WZjZW4CVCfvlr0goqlbs5/9ekbAO6MV+Pi8QXoGcCDwAPNyWQsnM9gLOAZapuOkXgfe5+10VtysNZ2ZJx2sVAFKUmW0M/AlYruKmJwB7ufvDFbebhJmtRFjd/i5gq/izioNyZgOPEYqBicwtDO5u4muSZrYOcCnVnzg4BXiPuz9acbvSYCoApDXiN9abqX4/9zOBL7v7qxW3OyRxynozwkDfM9jXbce72cBdwDjgeuAmd3+pbEoDY2YjgNMJ5wtU6UHgve7+dMXtSkOpAJBWMLMVgT9T7WKs54FPu/tlFbY5JPEI3EOArQnfThcvm9GgzQBuIxQE44Cb615wmdknCetBlq6w2duA0TpISgZCBYA0npm9kfAt8d0VNns7Ycq/1lOuZrYecDzwb4T7sy2mAVcBFwLX1XU75fj7vxTYuMJmfwvs7u4zK2xTGkgFgDRa3K/9CmC3Cpv9OXCAu79WYZuDZmbHAsfS/u1rpwCXEA5Uurt0MvOLBepPgb0qbPZ8d/9Uhe1JA6kAkEYzs/8m7MxWlTMIr/jVer8LMzsAOL90HgXcA4wBLnb3yaWT6WFmwwjXzmcrbPYEdz+uwvakYVQASGOZ2YGEb1ZVOcbdT6qwvSExs22B31NuH4Q6mAVcDpxUp9fjzOybQFWDsgMfcfdfVdSeNIwKAGkkM9sM+AswooLmZgGfcffzKmhrkcRHIo9T/ZsQdTYWONHdby6dCICZfY4wG1BF3/Y88E53f6iCtqRhUhcAOgxIsosr/i+nmsH/FWCPJgz+0TZo8J/fLsBfzGycme1QOhl3PxPYh/BmQ27LAZeb2VIVtCUdpwJAsorPUi8B/qWC5p4DdmzYFOqepROose2B35vZLWZW5aLR13H3nwG7E95myG0j4NwK2pGOUwEguR0PfLCCdiYB2zbpMB8zM+CjpfNogK2AX5nZ9fE1vSLc/RrgX4FnKmjuE2b2hQrakQ7TGgDJJn5ru4r8z04nE3ZUq/U7/n0xsxnA8NJ5NMhrwHcJawReKZGAmW0I3EA4dyGnmcAO7v7HzO1IQ2gRoDSCma1BeMVr+cxNPUc4WOWezO1kYWaTgZGl82igR4Ej3X1sicbNbEtCEZB718ApwEbu/s/M7UgDaBGgNMV55B/8pxN2UGvk4B9pH/ihWRP4jZldbmZvrrpxdx9PWL+Re2HgSODszG1IR6kAkOTM7DBgx8zNzCJs7funzO3kNrV0Ag33UeB+Mzuy6obd/VrgIBLPovbh4/GcApGkVABIUma2FvC9Cpo6pGGr/Rfk4tIJtMBSwBlmdoWZrVBlw+5+EfC1Cpo608z0uqgkpQJAkomv/F1A6JBz+rq7V7mjYE7nAxNLJ9ESHwHuNLOtq2zU3b8LnJa5mRUIj9VEklEBICl9kbCxTU6nufvJmduoTDwV79jSebTIW4E/mdlX4muWVfkS8LPMbexkZp/J3IZ0iN4CkCTM7O3AHeTd7e8iYP+6H+wzWHGguhT4WOlcWuZqwimQlSy0NLM3ELYx/teMzbwEbOLuj2RsQ2pKrwFK7cQB7BbgXRmbuR3Ypu5H+g5V/B2eBHx9EUM54ZHCvcA/CZvW9PeZDSwLLBM/y/b6uQqwXvysD6xONfvhp/QksKe731JFY2a2DOFeeHvGZv7g7ttljC81pQJAasfMDgbOydjEc8Bm7v5/GduohXgs8JkM/P3yycBt8XMrMN7dn8+U21LAuoSCYHNgNLAZ9X+UOA34uLtfXUVjcaOg24AlMzazj7tfkjG+1JAKAKkVM1seeJC8u6Lt4e5XZIxfK2Y2grB98seA3QiPVZ6On38AdxMG+9vc/YlSecKcv/92hH37RxP2sa+jmcDB7n5BFY2Z2UHkXbQ3CVjP3V/K2IbUjAoAqRUz+wHwuYxNnO7ule2JHp/jbkj4Zrsm8ABwJzAxNOnZ7gAAIABJREFULtirlJlZk9Y8mNmqhMJlf8Ie/nXiwNfiqv3szOxCYN+MTZzs7ov6yEgaRAWA1IaZvQOYACyWqYnKnvub2VsIO659AFi8j//KK8D/AF9092dz59MGZrYOsB9hEFyzcDq9nQp8OXdhZWZLA+MJj0xyeA3Y2N0fzBRfakYFgNSGmf0R2DZT+OeAzas44CdO155GWPi2MJOAQ0vtQd9EcYHjNsChwN7kKxgH4yLgIHfPupVvLJJvJd/bMb91950zxZaa0VkAUgtxa9Jcgz/Apysa/C8hPKsdyOAPMIqwB/1J+bJqFw/+5O77ERYRnkv49lrSvsAVZtbXbE8y7v5XIOcjrA+Z2e4Z40uLaQZABi2uBn+QMBjmcIa7/3um2HMs4kItJxzVekPClDojHuDzVeBg8u4dsTCV7C1hZj8H9soU/hHg7e7+aqb4UhOaAZA6OJJ8g//dwFcyxZ4jPvNflO1bDTgvFkMySO7+hLsfSVgb8APC4U4l7EtFZ1cAf8sUey3C4xWRQdEMgAxKXNj0f8CbMoR34D1VbNpiZmOBFM9OT3P3oxLE6bT4rPws4L2FUvhq7rcDzGwH4PeZwk8C1nb36ZniSw1oBkBKO5I8gz/AuRUN/m8grPZPYddEcTotPivflnC8bokjkk+OmzBl4+7XE94kyWEUcFim2NJSmgGQAYvbnD5KngLgacLGJs9kiD0PM9uM8PpiCg4s7+4vJIrXefFI35MI09pVfkmZCXw4546BZrY6YW+Jge70OBhTgLXc/ZUMsaUGNAMgJeX89v+1Kgb/aLOEsYywLa4k4u7PuvvhhFmapypsejhwac7jhN39SeCETOFHAkdkii0tpAJABiR++/9SpvB/Bn6aKXZfUm9Ks3bieAK4+zhgU2Bchc0uCfzSzFbK2Mb3gf/NFPurWpgqA6UCQAbq88CKGeLOBA6veLvbBxLHy9WZd567TyHMBHyTcHJhFVYHLogbGCUXNx/KtX32KsBnM8WWltEaAFmo+I3icfIUAKe6e66ZhT6Z2duB+xKFmwUs6+7TEsWTBTCz0cAlwKoVNZn1zQAz+xnwiQyhnwbeorUA7aM1AFLCvuQZ/J8EjssQd2EmEvb2T+F+Df7ViI8E3gncX1GTJ+VcD0B4pPZihrgrAftkiCstowJABiLXdOWXSxxnGk/1S/U6ls5kr1A8/ngbIPvrooRFgT+PbyUk5+6TgONzxCYs2BXplx4BSL/MbDsgx3a39wMbuXtVz3XnETv1e1m0HQ0nAFu5+8w0WclAmdmSwGXAThU0d6W7fzRH4LgnxSOEdQepvd/d/5ghrhSiRwBStVzfJL5davCH8KoZi7Z96gzgUxr8y4iPXXYHLq6guY+YWZb7IB51nWudgWYBpF+aAZAFige2PEr641sfBdatw+AZT/X7OuFeGKgZwBfc/aw8WclAxZX6PyD/yveXgQ3iI4ikzOyNhO21V0kceiawprv/PXFcKUQzAFKlw8hzdvvJdRj8Adz9aGAHQlEyEBOALTX410N8ffRI8s8ELAWcniNwXK2/KAdTLchw4PAMcaUlNAMgfTKzJYAngJUTh55E2K60VkeXxkOOTiDs7f825p0RmEVYs3AJ8N26FC8yl5ktDvyK/GsCdnX3samDxo22HgNSLzicCry5bvebDE3qGQAVANInM9uHcFZ6ake5e45vO8mY2bKE7X3XJmzyc7de9au/uDDweiDnq3uPAhvmeMfezI4Hjk0dF9jX3atYKyGZqQCQSpjZ1cCHEod9GvgXd385cVwRAMxsReAmYIOMzZzo7v+ROmjM/THSHxT0W3dPcfS1FKY1AJJd3Ac91XG5vX1fg7/kFA+U+iB5DxH6ipmtlzpozP3s1HGBD2Q+20AaSgWA9GVPwgKilJ4HzkwcU+R14kr9T5Lv7IA3ALkWgZ4KTE8cczjhnhaZhwoA6cveGWKe7+7PZ4gr8jpx2+BvZWxitJntljpoPPzo/NRxyXNPS8NpDYDMw8zWIBz8k/rvuLm735k4psgCmdkw4HfA6ExN3OruyRccmtk7gdsSh3XCAUHaE6DBtAZActuL9IP/vRr8pWpxp8l9yLceYCsz2yF1UHe/nXBgVUpGuLdF5hhG4tOozGy1lPGkcjmOJx2TIabIQsUp9ZzrAY7JFPfCDDFz3NtSkQxj64vDCBuzpLRl4nhSETNbm/R/v9lUs1+7SJ/ieoAfZwq/vZm9O0Pci0n8eBbYMt7j0kyp++ZJwwhnsqekAqC5crwr/Pt47KlISUcTdsXLIfksgLv/H/Cn1HHJc49LNVKPrU9qBkB6y/Huv6b/pbh4+uPXMoXfxcw2zRA3x2OAHPe4VKMRMwAfNLOtEseUzOJe6tsnDvsicEXimCJDdT7w50yxj84Q81LS7wmwfbzXpUHimPrBxGGzzAAsBlwQj7iU5ng36bcgvUx76EtdxJMDjyAc7pTaHqkXacV9M36dMibhHs+xZkEyiWPpBaQ/mXXSMGB84qAA6wEnZogr+Wj6X1rP3f9Knl38FiO8cpiaHgPIiYQxNbXxRngVcBKwauLgDnwfOCbHyVmSlpndCrwrYcingNXit66szMyqaEfawcxGEk71G5E49D3u/o6UAeN0/RRgxYRhb3N3PaatufjN/0TgC6Tfm+UpYNSwuFlG6mkmCAl/EbhTawLqLZ5ClnqByQ05B2UzW8zM3m9mPwCeMLMZZjbZzO4xs3Fm9mkzSz1lJi0Q9wY4N0Pojc1sk5QB3X0GcEPKmITXAVMWFJJYHDPvJIyhOXbX/bW7z+7ZCfDKDA30WA/4s5mNNbPjzWw3bRZUOzuQflfIcYnjzWFm2xK2K74R+BywOuHAk5HARoTFjOcC95nZv5mZtqeW+X0HeC1D3P0zxEx9Lw0j3PNSE2a2WhwbjzezsYTFqjmm/XtcCWDujpmNILwjm3oRmHTX29z9b6mDmtkBhE1d3jCI/9llwMf1mEB6M7NzgIMTh50CrOHuyRYamtn6wP2p4knnvQSs7O7ThwG4+3RgbNmcpEUezzT4H0t4lWswgz/Ax4CTUucjjfdt0r8RMBLYMWVAd38AmJwypnTa2DjmzzPteyL59suWbkk+/W9m6wHHLkKIr8fZAxEA3P0R4GcZQu+XIWbqdQDSTbPp9YbenALA3e8BLiqRkbROjuf/x7Po78GeGR93ifTIcUbAh81sicQxs62pkU65KI71QFwDMOf/MHsL8CCQ+uKVblnD3ZPtMGlm7wDuIs1q2I+4+1UJ4kgLxAWifwPWTBx6e3e/MVUwM1uLkKfIUL0KrOvuj/f8B/Os/I7/jzOrzkpaZWLKwT86hHSvwnwsURxpgbgwNMfM5+iUweLjisdSxpTOObP34A99v/p1EvBMNflIC+WYqtw6Yazd9FqgzCfHbntJC4BIjwFkqJ6hj4XQrysA3P0ZYG/y7Jct7Zd0sVJ8lppyc5UReh1QenP3h4BbE4d9l5mlfq1aBYAMxSxg7zi2z6PPzV/c/TrgK7mzkla6M3G8zYCUp5c9nTCWtEfqcysWB7ZJHPO2xPGkG74Sx/TXWeDub+5+GuGda5GBeo2wx3pKqbeRVgEgfbksQ8zUu+09AsxIHFPa7fw4lvdpYdu/HgbckjYfabGHU+6AFqUuAP6ROJ60gLs/BdybOGzqhYAzCUWAyEDcQhjDF6jfAsDdXwU+jIoAGZiJGWKmPKEQ4O7E8aQ9Uj9j39TMVkgcM8c9Ju1zC/DhOIYv0EIPgHH3fwDboccBsnAPpAxmZisBa6eMSfrFXtIeqXfbG0baBayQ+B6TVjof2C6O3f0a0Alw7v6qu38KOAq9HSALlvrbSepv/6CFVLJgN5J+O/TUJ7ppBkAWZBZwlLt/amHf/HsM6gjYuJhgZ7RPgPQt9beT1AXAZHd/InFMaQl3f470b7GsnzieCgDpyzPAzv0t+OvLoM+Aj68TrAOcQthaUKRH6s4p9QJAffuXhUm9DkAzAJLTq4SxeJ0FverXn0EXABA2C3L3LwPrEt6f1SmC8lT8BpVS6hkAFQCyMBMSx0s6A+DuT6MZWAlj7hjC3v5f7muTn4EYUgHQw90fd/cDgE2BXwAvLUo8abSk30ziwVQrpoyJFgDKwqX+hv3WDCdQaiFgd71EGGs3dfcD5t/bf7AWqQDo4e73uPsngJWBXYFzgadSxJbGSN1xrpw4ngPjE8eU9nmQcK2kMgx4W8J4oMcAXfMUYUzdFVjZ3T/R+0jfRTE8RZAe7j4dGAuMNbNhhENctgRGAavP93OZlG13QOqCajkg5TeT1Dvspf72P9Hdn08cU1rG3V82syeBNRKGXZ+0mwzpy1X7vAhMAp6c7+d44BZ3z/KYPWkB0FtM+C/x0zlmlvTAGXcfmTKemV0MfDJhyBcTxoL0BUDqXd6kvR4gbQGQeiFg6nvtYnffN2XADP2fTvDMIMkjAGmkJRPHS90ppd5B7Z+J40l71f1xVuq1Vqn7AmkIFQDd9cbE8VJ3SqlnALRyWgYqdQGwbOJ4qYttFQAdpQKgu+o+A6ACQEpJfWBU6vVOqe+11F8GpCFUAHRX6pteBYC0xQuJ49W9ANAMQEepAOiuus8ApF4DoAJABir1tVz3AkAzAB2lAqC7NAMg0jfNAEgnqADortQ3vRYBSlt0bQZABUBHqQDoLs0AiPStawWAHgF0lAqA7qr7GgAVAFKKHgFIJ6gAkLpKfW3qxEoRkV5UAHTX9MTx6v4tJ/VmLNJedd+4J/W9lrovkIZQAdBdrySOV/cCQIdPyUB17VpO3RdIQ6gA6K7UVf/SiePVvdOU9qp7AZD6XtMMQEepAOguPQIQ6ZseAUgnqADoLj0CEOlb165lPQLoKBUA3aUZAJG+aQZAOkEFQHd1bQZglcTxpL1SXyt1LwA0A9BRKgC6a1rieKk7pdSbsayXOJ60V+prpe4bC6XuC6QhVAB0V+ozz1OvTJ6aOJ4KABmo1NdK6ms59b2Wui+QhlAB0F2TE8dL/a1kYuJ46yeOJ+2V+lpJfS2nvtdS9wXSECoAuiv1Tb9y4ngPJI63upktlTimtEy8RlZPHDb1tZz6XlMB0FEqALor9U2fetr0YdLu32/AugnjSTutS7hWUplNuJZTSn2vqQDoKBUA3TUlcbyk06buPh14LGVMtA5AFi71NfJYvJZTSv2IInVfIA2hAqC7kj8CMLMVEsdMPXW6eeJ40j6pr5Gk13C8x/QIQJJQAdBdOW76ui+eGp04nrRP6mukCYtZVQB0lAqAjnL3l0m/QUnq6dPUMwCbmdnyiWNKS8RrY7PEYVNfw6nvsRdjXyAdpAKg2x5JHK/uMwDDgO0Sx5T22I70fWLdZwBS9wHSICoAuu1/E8dL/e3kbtK+CQCwfeJ40h6pr43ZhGs4pdT3WOo+QBpEBUC33Z84Xuo3AZ4F7koZE60DkAVLfW3cFa/hlFLPAKTuA6RBVAB0W+rqf20zG5445rjE8TYys1UTx5SGi9fERonDJr124721dsqYaAag01QAdFvqm39xYK3EMa9PHA/gYxliSrPluCZSX7trEe6xlFQAdJgKgG57GJiROGbqVdQ3kT7H/RPHk+ZLfU3MIFy7KaW+t2aQfpdCaRAVAB3m7jk6gKQLqdz9JeC2lDGBrcxsncQxpaHitbBV4rC3xWs3pdSLFB+OfYB0lAoAST0FmGORXep1AAD7ZYgpzZTjWshxzaa+tzT933EqACT1a0rrmNmbE8fM0Znua2YpD32RBorXwL4ZQqdeAPhmIPWsVep7XxpGBYCkfk4J6b+p3AxMSxxzTWCbxDGlebYhXAspTSNcsynlmFnLce9Lg6gAkFuBmYljJu2s3P1V4KqUMaNDM8SUZslxDVwVr9mUUhcAMwn3vnSYCoCOc/dpwJ2Jw+b4tnJhhph7m1nq1xalIeLffu8MoXNcq6nvqTvjvS8dpgJAIP1U4BoZVtlfR/pzyxcDvpE4pjTHNwjXQEpTCNdqMvFeWiNlTDT9L6gAkKD26wDcfRZwScqY0f4ZFi1KzcW/eY79IC6J12pKev4vWagAEIA/Z4iZo9MakyHmG4CvZogr9fZVwt8+tRzXaI57Kcc9Lw1j7l46h1Yys6S/WHfP+sqamT1I2teMpgIj3T3paX5m9ldg45QxgenAmu6e+hGD1JCZjQQeBUYkDn2Pu78jZUAzG0Z4rLBywrAPufu6CeO9TtP6v67SDID0uDFxvJXJc/Rujm9YI4CjM8SVejqa9IM/5Lk2tyft4A/p73VpKBUA0uM3GWLmeMZ6MZD6GSvAEWaW9Nub1E/8Gx+RIfQswrWZWo57KMe9Lg2kAkB6/J4wFZ7SHma2VMqA7j4ZuDxlzGgx4CztDthe8W97FulX/gNcHq/NZOK9s0fKmIR7/PeJY0pDqQAQYM5+AKm33F0a+GjimAAnZYgJ8F7gwEyxpbwDCX/jHHJckx8l3EMp3aD3/6WHCgDprRGPAdz9LmBs6rjRyWa2QqbYUkj8m56cKfzYeE2mlmP6/9cZYkpDqQCQ3nIMqjuY2agMcU/MEBPCgqtcMwxSzkmkX0zXI/m1GO+ZHVLHJV/hLA2kAkDmcPfHgb8mDjsM2CdxTNz9ZuCG1HGjQ80sx7vXUkD8W+Y69+GGeC2mtg/p++e/xntcBFABIK+X4zFAjvPWId8swDDgkvi+uDRY/BteQr6+Ltc1mOOe0ep/mYcKAJnfLzPE3NjMNk0d1N2vJ9+JZqsCF8eNWKSB4t/uYsLfModb4zWYVLxXUm92BXnubWkwdW4yD3e/E7g3Q+gcC5og3zcwCFuwHpsxvuR1LHm20e2R69rLca/cG+9tkTlUAEhfLsgQ8yAzWy51UHf/NelfX+ztP7UeoHni3+w/MzYxLl57ScV75KDUcclzT0vDqQCQvuTYbW854MjEMXscAbyWKXbPegCdGNgQ8W+V87n/a+TZTRDCPZK6UM61S6E0nAoAeZ24o9nvMoT+QuqdAQHcfSLw3dRxe1kVuNbM3pSxDUnAzFYEriXfc3+A78ZrLql4b3whdVzgd6l3KZR2UAEgC5LjYJM3AZ/JEBfC89hHM8UG2AD4jZktmbENWQTxbzOW8LfK5VHyPfv/DOEeSS3HvSwtoOOAM2n6cZhm9kbCMaTLJg49mXD07quJ42Jmu5D/VadrgN3dfUbmdmQQzGxx4FfATpmb2tXdk2+mY2ZLEIqL1RKHfoFwLPcrieP2q+n9X1doBkD6FDuM/8kQejXyLHIidsxX5Ijdy07AT3VoUH3Ev8VPyT/4X5Fj8I8OIv3gD/A/VQ/+0hyaAcikDRVwfB85x6tDjwFvc/eZqQPHBWD3A8nXGsznv4EjXTdQUXHw/wHw2cxNvQxs4O5PpA5sZsOBh4G3po4NbJbpnIJ+taH/6wLNAMgCxY4jx3a7bwX2zRCX2EF/I0fs+XwWuDBOPUsB8Xd/IfkHf4Bv5Bj8o33JM/jfUGLwl+bQDEAmbamAzWw3wrPV1B4kfKOanSE2ZnYF8JEcsedzDfAxHbFarbjg7zLyT/sDXOnuOY617tmt8H5g3Qzhd8+xV8FAtKX/azvNAMjCjAUeyhB3XTIcEtTLQYRHDbntBFyvVwSrE1/1u55qBv/HyLRmJdqHPIP/Q+jkP1kIFQDSr/gN/fRM4b+TY3dAAHd/FvgEkHydQR+2Bv6kzYLyi7/jmwi/89xmAp+I11Jy8dr/To7YwBm5ZtekPVQAyECcDzyXIe5I4FsZ4gLg7rcAR+eKP58NgNu1bXA+8Xd7O3nf8+/t6HgN5fItwj2Q2nOEtyJE+qUCQBbK3V8GzskU/ggz2yxTbIDvAVdnjN/bqsDvzOw4nSKYjpkNM7PjCLtT5tzhr7erCddOFvGaz7Wd8DnxnhXplxYBZtK2RTBmNgr4GzAiQ/hbgXfneqXOzFYC7gJWzxF/AcYB+7j7lArbbB0zG0nYx77KmZUngU3d/ekcweOrizcDW2UIPx1Y290nZYg9YG3r/9pK31JkQGKHclam8FsBh2SKTezI9wSqXKk/GrhLjwSGLv7u7qLawX8asGeuwT86hDyDP8BZpQd/aQ7NAGTSxgo4fpN+FFg6Q/hngPVydrxmtjNwFTA8Vxt9mA38mPA8OctisrYxsxWAk4BDqfZLykzgw+6e7ZFRvIcmAitmCP8SYZvtnMXLgLSx/2sjzQDIgMWO5fuZwq8InJwpNgCxYz8YqLLqHQYcBkw0s09pC+EFs+BThAHyMKrtnxw4OOfgH51MnsEf4Pt1GPylOTQDkElbK+D46tKjwAoZwjuwjbv/JUPsOczsK+R7/Wph/gwc4e5/LdR+LZnZOwiPmN5bKIWvunvOI6Uxs/cQXmHMcS8/S/j2/3yG2IPW1v6vbTQDIIMSO5hcHaUBP4wno2UTO/pTc7bRj/cCE8zsjLjArdPMbKSZnQFMoNzgf2oFg/8SwA/JM/gDfLcug780h2YAMmlzBWxmSxHeCMj1StZZ7p51f/c4FT+GTGcSDNB04FzgOxn3ma+luKHPVwmPZHK8WTJQFwH75z7Uycz+m3yv/T1FWPlfm1f/2tz/tYlmAGTQYkdzXMYmjjCzj2eMT+zwD6LsdqkjgM8BD5vZOWa2VsFcKmFma5nZOYTT7z5H2cF/LHBQBYP/x8k3+AMcV6fBX5pDMwCZtL0Cjt+g/wBsm6mJF4DN3f1vmeIDc06U+wllZwJ6zAJ+Rnhr4Ka2HDUcr5VtCKv69wYWK5sREL75H+TuM3I2YmZrEx5vLJupiT8B76/btdL2/q8tVABk0oUbwMzWA+4Gcj2znwC8x91fzRQfmDNAfQ84Kmc7g/QoYZC60N1zHMaUnZmtA+xHKK7WLJxOb6cCX67gm/8SwF+AzTM18SqwibtPzBR/yLrQ/7WBHgHIkMWO54SMTWwOnJIxPhAeB7j7lwjPpOtSEa8J/CfwoJndYmZHmFlV2+AOmZmtGnO9hXDk839Sn8HfCav9v1TRN+ZTyDf4A5xQx8FfmkMzAJl0pQI2s+HAHcA7MjbzcXf/Zcb4c5jZAYSFeVVuFjQY9xK2Gb4BuNHdcxzSNGBmtjywHbA9Yce+jUrm04+ZhPf8L6iiMTPbE7g0YxN/BbZw9ypOuxy0rvR/TacCIJMu3QBmtiVwC/me7VayHqBH3DHwUmDJKtpbBLOBOwkFwQTCBjoP5loQFt/+WBdYj/DNdjSwGfWfSZxGKCIrORSqguf+s4Ct3X18pviLrEv9X5OpAMikazeAmX0P+FLGJipZD9DDzLYGfkm1Bwil4ITDbB4gFAQTgX8QiqgXe/3s+WcIA9Uy8bNsr5+rEAb79YD1Cb+LWl+HfXiSsLd/zmN956jguT/AKe7+5YzxF1nX+r+mUgGQSdduADNbErgHyPkq2y+AT7r77IxtzBH3bb8A2LmK9iS5q4EDqtoeNx4BfQmwV8ZmHgE2dvcqD7YatK71f01V96k7aYjYIR2auZm9gNMztzFHHDh2JSwOrOWzVunTTMLfbNeK98Y/nbyDP8ChdR/8pTlUAEgy7n498NPMzXzOzI7J3MYc8Q2B7xL2O3isqnZlyB4DtnX371b5bny8Jj+XuZmfxntMJAk9Asikq1Ng8SjX+8m3TXCPQ9z93MxtzCP+u/0E+EiV7cqAXUnY3KfSY5fN7GDgnMzNPAVs0JQjpbva/zWNZgAkqdhB5f4mBOHQoA9X0M4c7v6su38U+DygrVfr42Xg8+7+0QKD/4cJh/zk9rmmDP7SHJoByKTrFbCZXQnkHqCnAzu6+58yt/M68TCb04GPVt22zOMK4N9LHKZkZtsC15H/PIOr3L1Rs05d7/+aQgVAJl2/AcxsFHAfsHzmpp4D3ufu92Rup09mtgvwA+qz211XPAoc6e5FDnMys42BP1LN9b2hu0/K3E5SXe//mkKPACSL2GHtTdi0JKflgWvMrMgAHAegDYETgddK5NAxrxF+1xsWHPzXBK4h/+A/C9i7aYO/NIcKAMnG3a8h7+ZAPUYBN8VvZZVz91fc/T8I2yGPK5FDR4wD3uHu/+Hur5RIIF5jNxGuudy+FO8hkSxUAEhW7n464Xjb3EYBf4zPZYtw94nuvgOwO3BrqTxa6FZgd3ffoeThN/Ha+iPVDP4/jveOSDZaA5CJnoHNZWaLA9cSDozJbTrwCXe/qoK2+mVmOwDHUM2/dxvdAJxYh3ff42r/n5N/wR+Ef+8PuvuMCtrKQv1fM6gAyEQ3wLzMbEXCN7m3VdDcLOCwqvcJWBAzezehENildC4NMZYw8N9cOhGY857/D8l32FVvDwNbufszFbSVjfq/ZtAjAKlE7NB2A56voLnFgHOq3DGwP+5+s7vvSjg571LyL4xsolmE381m7r5rjQb/Ywib/FQx+D8P7Nb0wV+aQzMAmagC7puZ7Ug4pKWKDhXgTMJ74pUcIDQQZrYasA+wP1Bk4WKN3AOMAS5298mlk+kRD/Y5nWo2tYJQAO3s7tdV1F5W6v+aQQVAJroBFszMjgTOqLDJXxBOhavkKOHBMLNNCIXAJ4GRhdOpyhTCqXlj3P3u0snMLx7pewH5D/bp7fPu/oMK28tK/V8zqADIRDdA/8zsbOCwCpucAPybu/+twjYHzMwWA3YE9iPsoLhk2YySmwZcBVwIXOfutXwMYmZrA/8DbF5hsz9098MrbC879X/NoAIgE90A/TOz4YQ3A0ZX2OwLwKfd/ZcVtjlo8Rvouwm/m9HAu4DFiyY1eDOA2wjv7o8Dbq7jDExvZrYncB6wbIXNjiOs+G/VcdPq/5pBBUAmugEWLp6udyuwTsVN/zdhk5VaD0g9zGxpYBtgB0JBsCn1W8A7G7iLMKBdD9zk7i+VTWlgYsF1CvDZipt+iLDiv3WH/Kj/awYVAJnoBhgYM1sPuIX826rOr9aPBPoTC6dNgPWB9eJnfeCt5C8MZgOPAQ8AE+PnAeDuJg5khab8Iezxv3XJjY1yUv/nlEa1AAAM2klEQVTXDCoAMtENMHDxPfmrqb4IeAE42N0vrbjdLMxsBGGfhZ7CYGXCdPYy/XwAXuzn8wIwlbkD/cPuPr2af6O8zOzjwLlUO+UPYfDfuS6vOuag/q8ZVABkohtgcOJq+GuBVQs0fxZwVFMeCciiiVP+pwJHFGj+KcIz/9q9/ZCS+r9mUAGQiW6AwTOzdYDfA28p0Pw9hN0D/1KgbamImb2HsKtfif0XHgf+1d0fKtB2pdT/NUPdFhJJh8WOcRvgwQLNb0w4UfA8M1upQPuSkZmtZGbnEU7yKzH4Pwhs04XBX5pDBYDUirs/AWxLWFFeNQMOAiaa2aFmpm8dDWfBoYQ1DAcR/sZVuwvYNl7bIrWhRwCZaAps0ZjZ8oRDYd5TMI1bgcPd/c6COcgQmdlmwNnAVgXT+Auwi7s/VzCHyqn/awbNAEgtxQ7zA0DJvdG3Am43szPMbLmCecggmNlyZnYGcDtlB//rgA90bfCX5lABILXl7tMIJwheVjCNxYAjgQfMbL94SIzUkJkNM7P9CK8rHkl1B0715TLCyX7TCuYg0i91ZlJr7v4a4VCW8wunMpJwat39ZnZg3MpYasDMhpvZgcD9hL9R6UOVzgf2iteuSG1pDUAmegaWVlyQdxrw76VziR4DTgZ+ov0Dyojv8x8EfI2wC2IdnA580Tvesar/awYVAJnoBsjDzL4JHFc6j14mA98DfuTuL5dOpgvMbCngM8CXgdUKp9Pb8e7+zdJJ1IH6v2ZQAZCJboB8zGxv4EfM3cq2Dv4JfB/4gbs/XzqZNooLMY8EvgC8qXA6vb0IfMbdf1Y6kbpQ/9cMKgAyiGe7pz7ec3hdz1AvIR7i8jPgnaVzmc/zwE+AMe5eYi+D1jGzTYH9CdP9dXsb43Zg7yYeKpWL+r/m0CLAxOLFf0GG0BfE2ALEDve9hGNc61TFLgd8EbjTzP5qZl8xs1Glk2oaMxsVf3d/Be4k/E7rNPg74dp7rwb/udT/NYtmABLqdfHvk6mJi4EDVAnPy8x2IvzeVymdywLMBq4nrFC/QmsF+haf7X+U8G1/B+r7BeUfhPvwmtKJ1In6v+ZRAZBIBRd/D90EfTCzkcBFhIGjzl4CLicUAze4++zC+RQV91XYnjDo7wEsXTajhboe2Nfdp5ROpE7U/zWTCoAEKrz4e+gm6EMcTL4GnAA04T39qcANwDhgXFcOiomnPo6On+2BlctmNCAzgWOBk7tetM1P/V9zqQBYRAUu/h66CRbAzN5NWCBYl3fDB+rvxGKAUBC04vAYM3szcwf80cAaZTMatMcIC/1uLp1I3aj/azYVAIsgfuMcQ/UXf4+Lgf31jeT14mFC5wB7ls5lETxEKAZuICyEe8TdU6+uTirukLgWsBnh2/1oYJ2iSS2aXwKHaD//11P/13wqAIaoBhd/D90E/YhHwX4feGPpXBKYAfyNsNf9xN4/3f3ZKhMxsxWA9YH15vu5NrB4lblk8grwBXf/celE6kj9XzuoABiCePFfAOxbOpfoIsJ0mG6CPpjZhsC9pfPIbCpzC4KphM1pXoo/5//0/s8hbKi0DGEB3jJ9fHr+85WZO9A34bn9otjI3e8rnUQdqf9rDxUAg1TDi7+HboJ+pN6ZTNpNO8/1Tf1fu9T1PdtaqvHFDyGnC3RcrYjkoP6vffTLGqCaX/w9dBOISHLq/9pJv6gBaMjF30M3gYgko/6vvfRLWoiGXfw9dBOIyCJT/9du+gX1o6EXfw/dBCIyZOr/2k+/nAVo+MXfQzeBiAya+r9u0C+mDy25+HvoJhCRAVP/1x36pcwnXijn046Lv8e+wPm6CUSkP+r/ukW/kF56Xfz7FU4lh/3QTSAiC6D+r3v0y4gKXfwXx09VdBOkswnwPWBS6UQ6bBLhb7BJ6USaTv1fN2krYIpe/AfEf676OM0LgQO7tG1m6q2Ae7aKjdfOaMK1swdh33zJ5yXgcsI1PK7nGs719+0C9X/d1fkCoOTF33OWdaEztTt1E1QxQJjZksBHCc8cPwAslrLNDpsF/I6w3/sV7j5t/v+CCoChUf/Xjf5vQTpdANTh4u+Vi26CjKoeIMxsJLA34draLGXbHXIn/7+9e+mRqgjDOP5UogFi3BgTty68RDcG8U40YWdc8BGGGWBPjDv4EIQ90MOgce/CuCPR4I1B4kaDunCnJsaNGiCSlItThzkD3Uxf6lS9VfX/JR0UmFN1ut73OUVP95muRj/23v/+sL/IBmBx5F87+TdLsxsAS8U/mBNNMJKcFwjn3IuS3pN0RNLb6n60Lh70t6QvJF2R9Kn3/od5v5ANwGLIv3uayL9ZmtwAWCz+Hk0wDisXCOfcI5IOqdsMHJF0WNJjEadWkn8lXVV3wb8i6br3/u4yB7KyviUg/x5Qff7N0twGIBT/RNJawmE/krQ2b4GFOW4pbRNsSdqotQmsXiCcc49Kek07G4K3JO2PcWyDbkv6UjsX/G+99//FOLDV9bWG/Jup6vybpakNQKbi/1Ddznehwsp0N65qm6CUC4Rzbp+kNyS9Lun5wePJMcYb0Z+Sbg4e30j62nt/Z4zBSlnfnMi/PVWbf7M0swEoqfh7NEE8pV8gnHNPaGcz8Nzgv5+RtC/lXAbuSPpFuy/0P0m66b3/K+VESl/fsZF/c6sy/2ZpYgNQYvH3aII4ar1AhPp4Wt1m4Cl19yF4fPC4///v/z2pe/PdP+HX4WPW7/2h7mL/q5UaqXV9YyD/FlZd/s1S/Qag5OLv0QSr4wJRN9Z3OvJvaVXl3yxV3xKxhuKXpHCsY+HYqaxJmnDbTKBM5N9Kmsi/ak+uluLv0QQA5kX+RVF9/lV5YrUVf48mALAX8i+qqvOvupMKC3VRlRV/L2MTXKy1CYBakH+jqDb/qjqhQfEf2+vvRnRZiYq/N2iCy6nGDONV2QRADci/UVWZf9WcTMbiz3ILyTDmumgCoHnkXxLV5V8VJ9Ja8fdoAgDkH/m3rOJPotXi79EEQLvIP/JvFUWfQOvF36MJgPaQfx3yb3nFTp7i340mANpB/u1G/i2nyIlT/NPRBED9yL/pyL/FFTfpTMW/JePF3xs0wVbCYYtuAqAU5N/DkX+LKWrC4Qm+oPTFX9QPhQhz3VD6JrhQYhMAJSD/5kP+za+YyQ6Kfz3hsMUVfy9TE6yrwCYArCP/FkP+zaeIiVL8y6EJgPKRf8sh//ZmfpIU/2poAqBc5N9qyL+HMz1Bij8OmgAoD/kXB/k3m9nJUfxx0QRAOci/uMi/6UxOjOIfB00A2Ef+jYP8e5C5SWUq/kuqvPh7gya4lHDYdRluAsAK8m9c5N9upiYUnqDzSl/8x1so/l441+NK3wTnLTYBYAH5lwb5t8PMZAbFv5Fw2OaKv5epCTZksAmA3Mi/tMi/jomJUPx50ARAfuRfHuSfgQ0AxZ8XTQDkQ/7l1Xr+ZZ0AxW9D600A5ED+2dBy/mUbnOK3peUmAFIj/2xpNf+yDEzx29RqEwApkX82tZh/yQd1zjmlL/5NUfxzGTTBZsJh+yZwCccEkiP/bGst/3LsOk4pffGfoPjnF56rE0rfBKcSjgfkQP4Z11L+Oe99usGce1bS95IOJBpyUxT/0jLcleyWpJe89z/HPrBzLmqhe+95tcKQEtaX/CtLTfk3S7JXAMKTORHFX4wMO+EDkia8HwC1If/K00L+pQzao5IOJxprUxR/FBma4LC6WgFqQv4VqPb8S7kBeDXROJui+KPK0ASpagVIhfwrVM35l3IDcDDBGJui+EeRuAlS1AqQEvlXsFrzr6YNwEQU/6gGTTAZeSg2AKgN+Ve4GvOvljdbTSSdpPjHF57jkxq/CWL7zeixEEfL60v+JVJw/k2VcgNwY6TjUvyJJWiCMWrlutFjIQ7r60v+VaLQ/Juq9A0AxZ/JyE1gfQOwHfFYiMP6+pJ/FSkw/6ZKuQG4Fvl4FH9mIzZB7FqR4oY6rwDYY319yb/KFJZ/UyW7E2C4ucHnivNZWIrfkMg/3OSqpHdir61z7hFJX0l6ZcVDbUt603t/d/VZIRbr60v+1auE/JulxFsBU/wGRWqCUW+F6Zx7QdJ3kvYveYjbkl723v8Yb1aIxfr6kn/1KiH/pkn6KYBwYqdXOATFb1Skl8NOj1n8IdjPrHCIM1z87bK+vuRfvUrIv2lyfAzwnKT31e125nUrfA2fczVs8DnZZdf33Bjzus9ZSR+o+9fevG6Hrzk7yowQk/X1Jf8qVUj+7ZL0WwC7Bu5eDpto7++JXZW0kXpnhNVYX9/wcvGW9v6e8bakNf7lXxbr62u9P7CaUtY32wZAuvd9k6Pq7n18UDt3QLoRHtckfcKut0zW1ze8cexdSYfUXSgOhT+6Hh7bkj7jDX9lsr6+1vsDqylhff8HbOKtHnRTdLYAAAAASUVORK5CYII=;align=center;labelPosition=center;html=1;fontSize=18;fontFamily=Lucida Console;" vertex="1" parent="1">
          <mxGeometry x="50" y="30" width="132" height="132" as="geometry" />
        </mxCell>
        <mxCell id="WKG7Bg_0KT1rRg3zPcpV-21" style="edgeStyle=orthogonalEdgeStyle;rounded=0;orthogonalLoop=1;jettySize=auto;html=1;exitX=0.5;exitY=1;exitDx=0;exitDy=0;fontFamily=Lucida Console;fontSize=16;" edge="1" parent="1" source="WKG7Bg_0KT1rRg3zPcpV-3" target="WKG7Bg_0KT1rRg3zPcpV-1">
          <mxGeometry relative="1" as="geometry" />
        </mxCell>
        <mxCell id="WKG7Bg_0KT1rRg3zPcpV-3" value="Audio Interface" style="shape=image;verticalLabelPosition=bottom;labelBackgroundColor=default;verticalAlign=top;aspect=fixed;imageAspect=0;image=data:image/png,iVBORw0KGgoAAAANSUhEUgAAAyAAAACOCAYAAADJjmxrAAAgAElEQVR4nO29f5BdVX7Y+fGrrq6urrbc6Wi1XbJK6VUUWVYUWaUQFssyljGryCqiIiwhBI+xFmPtLBkTlmUxwRgXxWKWpSgtISwhhChajMdjghVWhQmDNRqGwQTLGiJrGCFAo9FoQAih0QghmqZp3v7xfWfOufe9d++59577o1vfT9Wtlrrvu/e8++Oc7+/vTzA7WAAsB5YBP9P5OQ6MAMPAaOffA3UNUFEURVEURVFK5DPgI+BHnZ8fA+8BbwKHOj/fAN6va4C+/ETdA+jDKmA98CvAOmCs1tEoiqIoiqIoyuzgh8A3gD3A14Bv1zucbpqigLSADcCvARuB+fUOR1EURVEURVHmBB8A/xnYgSgkn9c7nPoVkJXAbwJXAQsLHOeTzqYoiqIoiqIoc5WhzpaXd4E/BrZTo2ekLgVkPfC7wKWe+38b+A4S23aw8/N94MPOVrsmpyiKoiiKoigVMIDkPo8iUUPLgJ/t/FyBGPh9+CpwDxKuNae5DHgFaKdsrwMPA1eg4ViKoiiKoiiK4ssC4EpElj5Iutz9MrCplpGWzAokESbpyx8G7gaW1jRGRVEURVEURZlrLEdk7CMky+K7O/vOekaA+4Apen/RKeBx4OK6BqgoiqIoiqIo5wkXI/kfSbL5vUibi1nJpcAxen+5c8A2YFFto1MURVEURVGU85NFwIOITN5LVj8KXFLb6HIwgGhOM3R/mUkk2UXzOhRFURRFURSlXhYgcvsk3XL7DBK61aptdJ4sAl6ityb1DDBR28gURVEURVEURenFEmAXvWX4FynWLqNUNgGn6J1cflmN41IURVEURVEUJZ3N9E5WP4l/+4zKuIHeIVc7kER0RVEURVEURVGazwjwJL1Dsq6rcVwR7qJ3kvmWGsekKIqiKIqiKEp+rqd3kvoddQ6qBTzaY1DHgVU1jktRFEVRFEVRlOKsQWT7uLz/MDUlpz/SYzCH0ERzRVEURVEURZkrLAHeolvuf6TqgdzbYxB70fK6iqIoiqIoijLXWADso1v+v7OqAdzQ4+SvosnmiqIoiqIoijJXGUFk/rge8MWyT3xFj5O+jno+FEVRFEVRFGWuM5/ucKwZpB1HKUwAZ2InPIY0H1SyMx+4DXgZ6ZXyAuJdUk/S7GQJcB/injyENN68Chioc1AKIO/UDcBu5F17CbgFGKtzUMqPuQx4CjgI7AceBFbWOiJFURQliUWIDuDqBKeAxaFPNIjkeLgnOg2sCH2i84RrgLP07jZ5HLi4vqEpObgTmKb3/TwALK1vaOc9lwAn6H1vTiNKolIP44gBpte9mQEeoqYKK4qiKEoqK+l2TLyC6AzBeIjuBWJzyBOcR1yCbdp4Erm2twOPA5Od359FhdbZwo3Yd+Iw4gW5A7Hozji/V89W9azA1i8/h5QNvx0pHXgaK+iqwl89A8Br2HdnF6LI34Mo7eb399U1QEVRFCWVK+nWD+4PdfBLehx8W6iDn4eYRfctusPXViMurDbw5YrHpWRnBCvI7qFbydiMVUJur3ZoCvA0VtGPh/QsxsawvlLxuBS4FrueXB/72yDwlc7fpoCF1Q5NURRFycDDdOsJhQ17g0hcbrzcblD3ynnEGux1XNNnny9gF955FY1LyYcRos7SP5/gfqzCqVTHGDYs7oo++6zFvo8aTlotLyHXfUefvw8C73T2ubWqQSmKoiiZGaS7PO8BCubA3hY74Dm00WARtmIF1n4sxF7v9RWMScmP0fpfTthnA/Z+atJzdVyKve5JVfpM2OOWCsakWKZIv+5PdfZ5uooBKYqiKLlZil1PzXZL0geStJMJ4Pdiv7sb+F7u4Smfd34mJVa6f/u8715KE9D7OTvwuT96b6oly7tzPt6bZYgB6ueQCnvzkevxGfAB8DYSzvs14Pv1DLEUBhHP5Frg7yJhyia09WPgXeANxOjzzc7v5grjyD3/+8j9X4CNNvkAkb0OAF8Hvl356MqjBaxCQnb+HiJ7GmPdp8B7wJtI9M3XkWsxVxhBvvfPA8uRZ2C487cPkXf7IPAN4C+R97+pvI00Kb/L+d3vA38M/CDrwZ4kqskcREuKFmUF9nqu67OP8ZJMoonLTedq7L0a77OPKeDwelWDUgAJXzRW9mv77ON6SZZVNC5F2I1c96f6/H0EW73s5qoGVTMLkHCzeNhz2rYP+BIwWv2Qg7EW2E53RZ2kbRLJFdpQw3hDMQxcB7xItnt+FDEIT1Q+4nAsRYpMmFBLn20GaVlwLbM3FaCFlB7fiV2jfLZTSCGVC6ofsjeDdPcH2Z71IEvoLiu6PtgQz29M2cljdFe6Woctz5v5pimVM4QkOLeRzqDxECs30fZ8EaKaxBPItT8DXBT723JsDfM9FY9LiVZOibvph4FnsULmXG90uxgRLOLCyGkkV2Y7UknPGAJ3IIUT4qXczyI5Z7Ppem1Cvktc2DqMVEZ7wvndzs52CFvcw2yvM7tKao8g1RJN0RlXqdqLGIBN64OTSJXMPdj1xhXIn0Tms9nCaiSsMn4PjyOGicexiujLSEGefXS/HyeQuWOo2uHnpoUom70a+L2OXJNnnd9vB54DjtD9frxIc2VyN+y8jegSmXqDPBY7QD8rlZKdtdgX6Swywd6PPHxG6TtF/gaPy4GbEMv708gDvB0pb7kZ695TwrCF6AT6KPAAYqVxF8e8k+SFSAWtR5DmhruQ9/NOZAJSr2R/lmAXsilkHrsfWdAmnd/3KwiRxmKkweE2xBL7PPI+34d4x7SIRH9a2ER0I2hsQ57zo87v81aPG0GUnHsRgf055B49iNyzifxDD0YLEaBcReIoEsKwmmh4mhFMnnR+N4Ao1vcT7XVzChF0mswiZC5z5YzdiNHG9SYvdv7uRg2MIff3GaKC7Es0Xxi/nKjV/wyyXq8natW/t/P3A7HPr0Dyc11P2VRn/yZ7BYaR9881bu9H5JW4B9rMAbfFPn8psv6dc45xmOZ7wVYRTdKeRtajy4l6Ljc5+7jrxyLknXbnzDYypzXR4PAM0XE+4vvBRXRrmqtKGOD5zCa6LRlme4vsAtEoYk051OeY7nYOUUy090E4bqQ7+coVrLIqk4sRYczHNX0KmZC1ilNvLsRaj+PbcWBjxuMNIeEubg+LftsUopRcVvRLzFHG6BZC3Wt3Z45jbkKEdZ/QBiP81GFBnU/USHESKUfcz6DQSwFxGUa8rK4y8xTNNDhtJGr5340oXL3op4C4LMWW3DaGvS8EHG8oBoj2VJtEwqj6GSr6KSCGFqKEuQr7XkroRB2A5UT7+xwieV7spYC4jCGGPleZuZdmNi79ItH56An636N+CojLRUS9hk1sXn0B0bk2KUw9wn2xD+4qaYDnOyNIvscuRDN+CrGaZrFgDCKLTtyN+w4i+D6Ntf4doHtRfhYVXEOxAJksdyPhWDvIbpUZRayZcWXmMOJy/TIyee2mOwxhGnFde73k5xmDwDXIO7YPeeeuJ7twtoXoYm8UwFcQi8925J16jaiFrt3ZZ22xrzFnWYt4Dl9BnvO7yC5EXUh3HP0komQ8i9ybnZ1zxI0/x5HnoSrhZTFR6/VXSM/fSFNADAsRpdccu1doaJ1swQqNZ0mvPuejgBg2E723Teq9NIysw66ikNZsOE0BMQwR7cNwnGYZjS/EyigziIyZJuekKSCGlUQVm6c8jl0l5h4auezSlP19FBDDl4h68q8sNNLwuM+7URATadFtdY3HTivNYAE2n6SNuHHvIXnimYcoOa4bb5JmWovON1YQtdQfQ5TLJQmfGUeUWFeYOUn6Qq1kYwQRXl3r/EPI3NhPaB1GBCLXFT1D+oKqZOdmosr4c0hoQ5KCeSFiQXWV/WcpP2xuPjYGfAYRInzwVUBAnsl7iAq7TQgHvAY7piP4hUplUUBAFDDXO9mE922QqDD2OH5Csq8CYrgaa2Q8SbqCUwUrsWGwZ/H3OPsqICDvuWlcapSQJnhCXOXjFfxCpbIoICCew+PY+WRzrpGWwzqiusQxUu5LPHlkT8kDrIMhxF11AxKP+DxiTT6G7Wrd7vz7GCLcPYeExHwRuah1a9hLsQm0bcR6mDUOMB6Helfy7o1lHvLc3oxchz3IAn8cO/FNI/fzCDKZ70SsMNfRHWtdB+uxoRPTSDhdlrCQAeR5Nlb3aWQxqpsBRNC7HvHs7ELep6PI/TBC4xnkWXwLCUt5GBHMLqH+EJL5iBXdvCfPkN06v46okvhEyAEWYCnynNyFTfQ8jFgrjSBzDhFmDiOL6HZEKLgcMYLUjZuv+BbZEzMXYfuNtJH7VFbn9UFsYvEM2d7RLAqI4UaiylWduLmPr+Pvqc2qgICsCa43rF8j0qpwn9EHMnwuqwIC8vybdeAw9VZGW4AVjs8ga4EvWRQQkDXcvc73ZThXGWwhahDxXceyKiAg+WzGeHmOZnm/4jkrlyTtHC+9O1cs48sRoW43/WP1s2znEMXlVpIt1GUwD2tBm0KEu7wsxC6IbZqfuGi4CJmcX6W7Wlue7RSilNxA9ULVMqyidJp0F20Sq7GK6RT1eEIWI8rgLrqr9OTZppBJ7C7EmlYlg0QFmSJK+jyiVtB7Co8uOyOIFXoH3aFkebfXEYVxI9UXRLjDGccLFAs1ug2rEL9KOXkh27DjzTpv51FAQMKQzDnrqsQ3ip2XjpEtJy6PAgLyvpnQnDPUlxdxFXb83om4HfIoICC5FWZdrLOAkMlxmiS7YSCrAgKihLgybNb8vlAsxyqBr5LNiJZHAQExJpnww0MZz1kmbiXQNgnVXUeIxi2fpTlfIg9jiBXVFbDjQqex6N2JVCPZililru78+xZE6HgCeZBO9znWy539q3BzGyEmlLttGPluRthrao3pxYjAES9hZ7bjiPfj0c5+NyH35EpEkd6KKIz3IO7aXnH6bWTifrbzubI9XUPO9zlDGAF7IXaxP0k1CtUIYvHZTXdpRfPdTGnJu5H7sBURhq/q/Ptm5D18HFE4+hVpONDZt4pcFzeu+oYAx2sRTZatyl1+KaJ09FIIpxGr/07EOnsr8l23IO/AdYgl/TYk7Ox5xJPY6z6fQITsvFXFsuAu1LsIo/xc5xzzsQDHc1mDvWYP5/h8XgUEbPjgOeqp/vUI+deXvAoIRKvgPZPxsyEYxVYne4Xsz2heBQTkPTbXrY4iGF9wzr81x+fzKCAg8ozxWB+hHhnWGK1OkH2dyquAgHgXzBxTh4GrF956xdVEF5MdFQ0wNBOIENorkfcx5HsWcbEvQl6u7XRbEc8hi3TeErppuA9nYov7jIxjhdaXAh43BGvoXTN8PyLsXEYxN/NyJLTuKbqF3pOIMlOWG9ssEjOEXSTWYF/6PMKOLwsQV3e8edg7iNJ+HcUEnvmIEPww3c3ZppE5qqySmyuwz1xWy2US7gJ5mPKU3EHk+scr451FjBi3IMJgXsF9CLFq3oXMGfECFy9TnuAzgH0eDhDW8PMA9juEVKSMUHKQfPe8iALiCsJ5Pl+EZdj3KE9SeBEFBKKC8Pocny+CKeiTV/ErooCAGOTayBxQZZjxIDb0Kq/il1cBAZm7jQeo6hygyymm+BVRQMA+c1OUF0qalXhkVc+QyB2xnTZVNbpALEWEHjck5zgipJYZE3cBonS4wusUYskN6fZtYV3Kzwc8rmE99VpM4lxEtJpLG/EW3EF57vQWYi1+kqi1+AyyGIRURMawHrUsccG+mPjvacInI44jz7yr5J9BFP8yw76WI/fBVfxnEAU1dHiWKQ97kPChRUux89SNgY89iHh+3RyxGUSAvZrySs4aj3O8qdx+wldn2Yp9tkPf9xZWQXwh0DHXUlwILqKAgBXEy5gPkthOsfeoqAICVvnbnfPzeRjFriF5heCiCogriFfZpNG8n+fIv1YXUUDACuInqbbMtom4yat4FVVAhrHX7sGcYwjNZqJrwuO9dnIXrGlmT/jVEBLW4VrgDiIhBFXGJA8iL55byWgSsfqEsHJuxAoT/WqmF8Usci+WdHwf5mMXLdeaWrVCbHqruIrlCSSmMQQ3d455mnLKZA5gn8VQXpABRGB2PR7HkHC3KueLFrKgusnh04ixIYQ1fJlz3MsDHK8XJrzraMBjrifqKZrsnGci4Dl86NXpeDfhvFUmbLHnQhYAtxhLCOPVlykuABdVQFrYZ2NbgXFkYT52Xc5bFCOEAuJW46mq7PxNFBeAiyogYA3LLxc4RlZep7gAXFQBcRXAqnJbL8I+Z3kNI0UVEJCIjjbNSaOYR3QtOBLfYanzx6of1iJcSrRN/TFkoquzqtEAovwYF6RxgRa1DD9O+VacS7FKTh39JK4jmmfzGtW7zeMMI5Og6xF5ieJWRJN3U6aVwiyCxyn+TqwmKvCfRnIF6q4IdxnRvKDjFM+tMIm7XRNlQJZgx5ylOkwvRom6uWeQsLG6q1QtJ9pocAqJTS5iGFrlHK9MYdII63cXPM4o1lNYRJktqoCAeKiMIaUK41yI84VQQMCW5q2qOpKZK4ucL4QC4jaEi3cbLwP3fEXWyKIKCIhHvkqDaojzhVBAhrFGwqYUkjLyjtkm3D9ujf2x6KRbNgPIGI1WNYW86CN1DirGKBKmYlyg08jLlEcQbGFjeH3rxudhAKsAFKmulZURogLUGcTSXnVVnSQWE00gPkN+t/ZC5zjrQwyuD66QW6Sfz5eIehi3k73sc5kMIQnsbkjYQ+RXjowbvWxLsQmpTG3QlMBFRI0we2leIYnNRMPmXiF/aMadnWO8FWZofQkh/IENfTpHMWU9hAKyAHsPilTb88WU4CySQxVKAanCqGBwPahF8ohCPYNmfqiiMeP9WONhEUIoIJdg70PZBtUWttlikYIlIRQQsF7XpjQSd3uitIk1II0niVQxOeVlAdHawgdpVt3jOBcSFRCeJ3suQagJzQeTd1FVEYKVRC3Ye2hO8lQvriDqpXmU7IrSFc7ny/YgmF4veYoWDBPtkfAO9XukklhKtOrdXrILuoPO58vuLGuqA+Ut/HAjUQPHrdTf06Yfw1gLYRtZrPOEVZr5aXu4ofXEFQSK5H6ZEJiieXshFBAIo/T6MIx9Nou8R6EUEDc8puzS+SYE5hTF3sdQCojpj7Gn4HF82Nc51/0FjxNCARnCGqWuKTieNFZjn68ioaahFBBT0e8MzTDkmhQCs+0A+3LE49W+U924MrEECQ8zE9F/AP4+8Nd1DciDvwR+DviPnf9vQASOLEK2W1XrB4HG1Q9z/CqUgHXYcKbPgd8HfgV4t4Jz5+VPkfv5Xzr/34pYGbLEWpr7+QHwabih9cRcy5/O+LkxZMEywsNXke/99TDDKoW3gV8A/nXn/xcg1vYs8bjuc1/2c/hO52ce69wDSPjeAPB94BeB/wt5j5rIx8D/DPwa8CHyfO0ie3y2eXfKvjfu8YtYT43B6FsFjhGSv+r8LNtLthor+Pxlyefy4VvYd6Ps7/4POj//K814H/d1fpZtvBzAGoP3Je1YEZ8A3+78+x8k7RgAE0b7EfBGyefywbzn86gm9C6NuE6xEuwE4cbqfUgzBcDVSPnIceSl/ufAv8l5rFbneOuBv4dorBOIEGm0zg+Rh+m7wJtITOfXyafsfAj8E8QKfT9y8V8B/iF+D6tZAD9HhNYyMfe+rFLChs1IP44h5Dr/Y+DPcx5rEJkALkbu5zJk/CNYxeBHyH14G7mf+5D7+XaO8xmB71FEgNqICOu/CvzQ4/P/befn+znOnRVzP7MolIsRi62x5PwB8LsFxrACedd+Drk3y5D7YizLH3W27yPvwwHgG4jQ8FnGc30K/DZiqNiBfO+XgH8EfNPj827exHsZz52VPO/aAGL9N7G930DeHZ/nrhcLkHvz3yP3e2nndyOdc32CKA/vIu/NG8i1/QZyz7LyR8ji+BxiUHocmd/+IMN4QUJSy8RdAxeRT6hoYRf/1wuPKAyHOj/LFkqMTPEp5RvNfPgU+B7yzJX93c282QRBFKzwNw9518qa15ZiZcqmfPc3EYWz7Hv+dzo/88gTZeCOYxn1OxW+j6wjRh77sc7hujhN2ELTWImtRjRJvmS+FiKgbsfG6uXZTiKC59qc3+ULWNf0cfwStaoM2TF18Mu0YGzC5hScIJ9lZhBRYnbSu6Gg73YUyR/Km9B6j3Os1/Bzm1YVxw62G61vyMoCbEjcDPlzjtYgeRhuMYas21kk5GQD+UIZLsEWDziHX7J3KFe6DzdgQzV8ccNlnyFfhZ2FSLiWSczNs00jyZbXkS9UYDx2ft9QiyIhhVlw18W8c/085xhFq/iFCsEyoRnnCh4njVuwYZtFCBWCBbZE9EMFj5OGKWBwV8HjhArBWom9hqHLVru41caKlsoPEYIFksfXRpKgyyRUqGWoECywa1+eRpBlEF9vFg7QrRm+WfWoUliEWMvmIxrUryLWN1+GkYTqf0F37Oe7iIvuTSRP4yPEUg5inR0B/jZyjVYii+Z85IZu7XxuGxIK9onneP4QsVY+3Tnec8DPk+zZcK1xCxFLTlkYS3lZXrALkbyCQcQy9stksxrMB/5X5PrHE6G/i2j6byAV0T5G7ucA8jKPYe/n6s7vFiPC2K1IqMD9SJiVr+v8dxGldFvnmDuRZzQptCqPVyIvxnvmcz/nIVXWTEjcrwF/nOFcA4iC/b/RvdB9gHgPzbtmPFKfYd+1v4UI/SuQ+zKCxO5egzwrDwP/T+dzPnwN+CVkUZiPCHG/QPIcF3/XyrTkmbA4X4vkw9hY5v8A/CbZQjzWAr+DVA5zFbpPsPfmLcQz91Hn98aL+NPIe2PuzwBi0Lm4M64/RBR533f5PeTe7Ooc497Oef99yufeRe5L1pDCrLjvZl6LsStA+D6zZWPWqbLLc/5k52ceL1lZmHtQdrEac20nSz6PL+6zV1ZTXTi/n3djCPq45PNk4UPkWQ/ZqLUIbxJtIbEMml0Bax7WmjCFWDR9GUSESrePwwxiEd5KPpfcCsRq+SLRusbHyV61abNzjH0kvyBu1aSLM486Gy93zlNGB+1lWO/TSbLdg1HEO+N6OyYRZeYasgvzLcQ128sSfJDsFa5ucz7/lZR9L3X2LbOaVAtbji/NCjKAKB9mXFli81ud/d1KR23E4ngT+axuE51j7iLaXPQ0YlnMYvm/EPvcHCO5PG0Lm7i4JeOYs5KlUsmt2GvwNNk8Qhdhm7G5nr97kfCrrF6UUWT+epSoN3kG+U4TGY41D5sYPUO6p8AURXg604izczV23cnrdR7DXpsNBccTygNyLdaDVSZmPiza5yakByREVS4fTP+lOwoeJ5QHpKoiNuud8xQ1roXygISqypWG8Uw/W/A4IT0gplhOkapcIYlXwroeogtbFa7tLJiypzNkq2JwCRLrar7TGcQ6F9LivBixersC8X6yuetNtYw26U21QtQVT2MMqxSFbvw3hP0OvuEwhmuxZYiNwnczYTX7Vcgk4gq7L5CtlrlpLtcmucP1EPa5KbNOdxaX+P3Ovlkm/dVEa3xPIYJpyG7LCxClwxV2jyCWfF82YsP+dpMswO/s7PdUnsF60sIaR9LC3NZj38vd+AvEY0gFnHhDwEsJVy1rEHmGTfMxYxi4A3+DzDg27O8Uyc/q9dg5vczqLiFCKoaw1+SKguMJpYDciDUAlYlZ284UPE5IBcQouvcUPE4aphLUAwWPE0oBCdWbI401znmK5lyEUkCqqgBm1v6iPfRCKSAt7LxfdgUwX1wjbRuR4bg79ssv1jW6GKaJUZaHcAAR0F2L3MOU63aMd+6eQRZf3wXeHW+SMGru01sZjp0Vs7ifJXyuiVuC01dwnEe0DGzIzvL9WIot9WmuRRYlwQgKUyQrWUa53plvmF482DlHWj7PZfgrwi43Ee0P8hXKLV4wgihKrpL4MP4WfNfbe2fCfsZKXGYnWbdGfdI1W4DNozmE/6K0jqhH6gDle0+/QDTn51X8vSHLsDHLr9D/HV9AeUYSwxBW2S26Hpp7cGvB4zyIvMdFheeHsNe4TNxu8mMFjjOOfO99RMM38mCMPmV3xjZrVtG5/UvI907zqKdxTWc805SrtIfOedpHcS+08eo/VvA4adyMNY4WYR32eS8SKjiBvRdFeoCFxOQ8RtbgbbFfNkFbWoEVbJ7z/MwYNnzILLhll51zWUu0n8Xz+D1AA1jX8Dn6L9iuG7UMq/kg1nW8PfCx3SR63/rgy4hezxcontiWhSuJWtwfwU/xG8MKHUfoL8Be7hy7jOd0IXbBvTlhv/nY77kfP4F7iKhieIxqewetINrvYx/+pVJN2NMM/b2Vo1hhOElRKYJ559Msc0ahncRfAPsS3f1BqqoFP4q1OraRMADf0FkjKKVZqZ/DKjhlYKICJikeIhnKcxGKPVQjkFXVbNUXtylrFu97HqosMuJDKE+KD6E8F6EwkRNJEQkhCKVwh2Izdp1rSg6IacoakQUfi/0yS1hDWZh45XfwWwAWEQ0BeJzyk456EbfY7yM53tywCBuOkRQPboSno4R/qMyiO01YN+0IIqCmWTZd1mAnjqwepZAsJqrU7sTP2r4WKwD2a/jVwoak7SH89zMxqcdJfheM9+4sflWfRonmEzxLPRPuINbD00aUZ5/ndgQbnrmf/oK58TieJbzia/IL0oQzV3H3tcS7Hu0jlC9s9eMqbP7RFP45VcZTOkX/59FtKndtsWF2sQgbO100hAZsNahjAY5VlCobs4F9z8pS4rNQZWO2i/HzblZFVdW/AJ4gm+G4TFZg70PZzapDNd4MhXEsNKmqrWt0bSNzfVcX9LLc2r6Y8AdfZWg+UUv5TeUNzRtjATFWBx9lwbX+be6zzxKsZ+h5wgmtl2LDGkJPUia3YAq/uNCVWMFlkv7XoioG6S596rOAmdC6JEHKtZpsKzxSi4nzbpOcfO7miPiU2x0mmu8Rcsx5uQ777B7DL+RnLenzxTysUeAA4QwaK7GeqeZ4vQQAACAASURBVKSERVdxf8Hz2G6S317KLXDgwypsSNYMfgvzMNaKujthPxPCeI5wjeWGsZ6104RRrJdTrqczCybUcopqjAZVlHT35RlkLEXDmXwYwM4ddYe0j2Pnxyq81Fdi1+66Le8m5+BIReczods7KjpfEkYmLloIISRufsuPvcJNUkCGsZbvZzz2n4e1Is9QbkJvVtx481fxE2D2YF+YfkKuWzTgMYorIWuwAv9bhF2YlmKtAj7V1ZZiBZYzFE86DImJnf7xi5OCK0glCZrGYhRKeb6CaMJykrJk3p3XSH+OBrGhL20kF6cpbMYq5m/hJ3g/jn3O+j3zVxH19BRVQpYg73YbCXuLlwV3Mf1lfBV3V+l8gfJLjfoygQ3t9K1k6FrK+iVvL8YKecconvQ6hFVq2oRdS4zSXkZlwSyY4go+a2sIVmGvZ9H8jSIsxM4PVck3Zr2oW/kyQvg7VBNFMIj1INapfLWwQnjZRQcMxoh8lnLzjtNYj33vJmocR5zGKyA3Ya1aPmEP7oJRt6WhF66ysN1j/+VYgX1Lwn6u0Po8+R/2q7Eu+TOEb1JkhLzDpIcuuVWyspZcrgpTGadNcl6FwRWk+llpB4l6FR4hf4jAHc5x0gRxYw2dwS9Mx1gz2/QPK6uTq4kqXmmLrZv7kqQc34X93vvIH1Kx3jnfNMnP9yjWKOCjuF+C/e6+xo4qWYL15qRVuTKY3Imk8plrsYLlafKXul2IDVNp45+n5osJ/5mkmt4/vXCVgaIlgbNgrmvZZZOTMKGaR6kuF8oN/9lY0TnjjGANulWGwZnwn8OU3zi5HybMdZrqckeHsEaRok0oi2AS74s2RQxNoxWQQWyXW59Ss26VrCa5meK4gptPvPIjnX0P0V+IiocFHUW0b18LxwQ2n6SNTFJ5u/32YzFWOPCJN3ZzkYqWrCyLFtYLMIVfdQmTQ5JUEWUMm5RshK4s7vI1WO9ZG8mHSrKug1V6fErNmoQ2X0W6Ltw5wWfBNQaC0ySHC7iV6k4h3gbfhXU+Yvk2hoWzpD/fRpE8SbonYxzrNfT1/tTBSqJVrtIEwZX4VbvahFXWZpD507cgwQBSmcWt3LWN8JbiQawCVkUIUC/M/FK1Rd6tsFdloQrDSuy7V3U/hF3YtbwOQdzIHmepNk9vEXbtr8NTPoKVJZ+o+Ny3Y40NExWfG2wIXJtmRZBAwxUQUwJ2kvTE7SVYy30Tkp2ScKtcnSF9cZzATphpiZu3EC2DeghxN65DLG1mIR1BvCtbEEHY/cxeykmUMy7ow6QLG25jvhCJn2XiVrk6SPrC4r50KxL2G8Qqn2Z7FRGS1xB9J8YQi+aNRJsHGkUnTWh1S8CmhUaMYgW0/WRvWlc1X8FavtISD0ewXom0qi3XYAXoNiJQPog8u4uwz/gwEg50JTK3up95y2NMrhXNx7Biil5kqZJVF24VFJ+ytMbDnVYydgXRvk/nEAPL1ci9MB6hAeReXYLMM0djn9ni/U2yY9a3NtUnqZrIgrqs8cbYcYRqQ1MGsT05fLzwoVmFVaJDe9XSWIeVI+qwxhuvUx3zkjFmTlFu35NezMOuly9SbfEc1xjVNO8HNFwBMd2ofZKgjXv+BM21+Lm4lVW+7LG/CfV50WPfJUS9Ge42Q7RRorsdRTwyZbwgw1jBK60D9yA2VnMv9blss7AWu7D4WHjMIugTA34BUW+Gu01hFe/49hr+oRVGsPPp2moaLE1SPM6+CuZhcw58mkKZghFHSX8XFiDXw1Xg3e1sn9+fRIRAn2d7C9ZYkSasbXTO0ZRut2mYsEyfMFu3sVma4jaIXAO3YanPvZlGqrH4ek2KYLyhZ/CrOBeCi7DPa11hUKuxwvAuqhPK3N5TdYVBuZX6Lq/onAuxHrc6FC+Qedh4IQ5RnZzmFjGqKwzKrXJYleI5iJUbJqle8fKhsQqIG5+alofgWm+b0LPEF7freVrVFrdKz4Tn8Zch3g/T7bXXdgaxEF9FuYK+m4yVFo9ukmdnqL9KTBaMt+Is6ZOrKUhwCv/rfhGyeLlW2vh2ArH2ZInpHsMKJGkVxpaSTdFqCu5El2ZtXoj9jus9j78I8Zi8SrTLuLtNIsLWdWRLCDeLiE+fBvOul91ULiRjWA+PT7UYU5XKt+LaMCKEPEN/44sxdtxOtWESE1hD1DHKL9G6Enutj1JvfwI3H/KRCs5nQmHaVFN+th9ubuM5ym8GOoqdF6YIVyEuD+upNjdtI3Zte5nq8n164ebplm0cahGV49OMvnXRWAXElGr1iU81ISd7Sh1ReFrYxdSnCkmRMmqLEBfs1YgAtAlR8qryLviWo3Njo+uuEJOVUezinlZlYxQ7Meaxgi1FFO8vIMLVBsSCmseSaLqRniB9gjbW6reYHZ4pF1PxJymJ2VCkfOICxGBwBRJmcxmiSOdZbBdjF+y0+F1T4GCG5odexTFJ2dOkKwAmr8fneY0zjFybyzrnvBK5Vz69mcpiA3YuOEp5npALseGF56ivH4yLK2tspzwB0S1HvZv6566l2LXiHOX1WhvHKjttmlEV1M3Le5XylOCrsO9VFcp9GvGS9T4hp3mINwWuQrnPSyMVkBY2bi2tDKnbgCpUgs0QsjA9gVgOTiKL3QFkkryccBOYbz4ANK+bqi9u3fG0SlZudZhQIRBjnePuRHI0TiHP1z7Eo3AJ4UIA3CTmNCu3CXuqsxoM2DCQNKugW7qyCQtZVlZi37U0D5Fx25+l3hwXY7U94rGvqS5UV1JzEdwSmWmGh/nY+aSuMJrQXIUNSTpN+NCcrdhQzXM0oxM5yDpqErPbSG5kyKpgo1jDg/EM1t2LwrAKq4RME7657npsyJOPLFUlbl+0I4T1ygwQLRLyDs0JFZ6PTS0wAnfI8ugTWKN2GwnFr6Nhsy+NVEBWO+dOE8qNRfalAOcdRhZ8YyVK2k4gZVdDKCLmgUwLKXCVrYkA560Kk2h6jvTrZSwEIbT2+YiC0S9Hwt0OI96hoi/rCDak4vqUfU0S6pkA583LKH6VhcBWYjpCva7sIpjmY2kexwXYZ6OOSj0G02H+0ZT93Dlztnk/DOZ98AnTNPPEg2UPqkI2Yqt3mcW4qBFmKTY/so0YXprg+XAZIFrx8DQSnlx0TryaqAD+DM0rR72MaNPklyn+/o4iSryZ1yfxq7ZZNV/CKt3TiNJQVBi/iKiAf4DqSu76Mg/py+QqYEU9YAOIPOrmtT1As5UPaKgCcjN2skzCTWwuapFdTXJsfb/tEMVd5r4hBQPYBSpNuG0S25Exp3VvdjsEF52E3VKcWbYXKZ4cZxId0woGLHHOW5dQYMJ2pkm3DDaxk2pW3M7Paff59c6+VTWtijOM9TilVb8zdfb3lj2oEnHn87RcPhNSc6DsQVXMEqJhGucQJSvNEBfnAsQ45xZHeIFqEuvzsoXonH0QWeeyeCyGkGfHFPkwArhPj6a6mEe0aMwM4sXMmhsygfQIMgYwcw2bbJC4CNuI1chAd5AtXKqFGImMcclsj9M8hdPQQhLijQJmlM8ryGbUHkNCqN1reJLqq+rlpZEKiLHYpHWXNpUFzlHsQVtP/4ooPtsZigmQWUIKjLvap/N2UzCKXVpZU9Pp+fWC57ue/onAPtsRisWLrnOOlWZ98b02ZWFKI6clLbvet7R+Ik1mABv2kNao1PfalIVbijopR6GFrfR0YwXjKhOTqJlWSt332sxGWsiz6fYiaSMGgEcRgWMjomSs6vzchNz7HXQb0g6TrsA2hXHkO7iC2RRizLkHUS4uRnKqViNz7VVISM/zdBcZeJpmVv/pxQa6C8acQJSTW5ACIRci93xNZ/+tyDwV/9wpJBy47lwXH4YQYdyVwWYQT8aDyHp+KfKdVyFr0eXI93sKO5+bbS/N63fRjxXYfEOznUVk4DuwOWrmnl+MeLPuRRSW+HvyCLOjCqyhkQqIeaC+lLKfKU1bpL7xErof4DzbOxSLXfUNKTBhMIcLnKtKxrHXaH3KvsZqVaTvx3r6l0TNsr1K/tj/Fv6eKtOjwqcIQRn4PnezNf+oF77X3FRum6aekDPfd90Nv6qqlGtZmHDNSZKFp3nY71xWAm/dDCECpptEnGV7BXmGZ2O45BJEsPYJh45vZxHrd1r1zKayGfFW5TGivYUoKyHzCqpiDAmBzxOJMoMI7VmqPzaJCxDji0+4eHw7gchMTQs186FxCsiYc940b0AI67HpYh1iK5L86RtSYLpaztD8BnAgGru5PkkKmpuLkFegGMT2ewixFSkzazxVaT1e7u7sd7DAuYpgFKU0b4BvLsJswJRAPk1yjKzbc6KOJEYzD6f1Zrmls987pY+ofBZir3laCIqJ77+l7EE1gJWIQrqH/kL5CWQ9u4XZ7aV0GUSs3Y8ga2Mv49I0Egr9OBIVMRuF714sQoywz2ArQ8a3M4gl/B7EMzBXWIfkhLxK/+iUo4iH64vMHS/oPMQI8wSiTLoeDrNNIt6hhxDZfDYaGAyNU0DcfhdJGp27UK3PeS5XOA615e1bsdk5RtIEmqU/ShMwvU7OpOznhlTkdSGacrKhtjPkLxHoW72oTiu7651Kqk7WwoY2bCl/WKXjvkNJsfUjzn51WNl9+12Ykos7Sx9RNfgalvZ09vPpjzLXGEWUjJWdn3NF6E6jhaz9yxBv3yJmtwCWhWEkz8Pc89kUalOUBdjnfYLZYXwNwSDyjC9Hnvlxmp9YnoUuBaTuL2fiNT8FfuCxH8CbOc/12zk/l8Q/z/m5N5x/J1lb3e86G2Jb/07n59sp+5nQkR8CH+Q8V+j7OY/81UPMfVpM8mRp9hug+spm7nP2Rt+9ZAI0OVZ537Um8TbweeffSSFLHwHveuxXFub+HPLcL+kezibMM/YzKfuZ7zvbw87y8CPgu8C3Oz8/qnc4lfE58k6+idz/HwCf1Tqi6vgY+B72nuddJ2cj72Of9+8Bn9Q6muowcvAbyDP/HnbtmpPUrYAYV9oHJF9oY7n8ECskZGGIcjw7l5PPIvNd7ESapIB8gl1sZoPb0Vhp0iZLI2zkFXBXUI4g8k9yfs4IRy2S76d7Xaq+n65354cJ+7njz3p/1iKhI/cTtn/OeiRx8V7kPc4yb32MNW6khVaZ6/I3swwuAAPY6j9p7475Dlnzc0yIx4NIWFooi+pSpOrQNqT/zmjGz5t3x/fe1NnNW1EURQlE3e7Mn+z8TLPomEXtRznPs5ZySrSNIWFYf5nxc58hytQY6YLAh4jLfTa43c0Y0+6nESKSBOEkyurVcBHyHbJaGF2hMUlA+tD5d9X305zvM5ItSq5i5Gt1G0WKRGx2fncLosD8M+BbnseJM47k1ax3fncb8F+Bf4q/gvQB4p36b1L2M/NLViG6KO6zkPTsjWA9bO9nOP7twO8TVQi3Af8C+HcZjuPSQuK2byaqED4A/BbwHz2Pc7LzM20ePNv5ORvmQUVRFCWFuj0gvgLrT3V+fpi4V3/KrBiQt4Sr+S5pC6q5Nj+VuFcz8L2fRRXKv5Xzc2mYmOOsuN83qY69u1/VgpQZV9q98b2HLo8SVT4My5Bchbzf9Ul653yt7hzX18OS9V2r6964Yyiyn8s1SNJq/FoNI/kUWfsPGL6EKJnxNWQUuW+rPI9jvkda/4e6lENFURSlBOpWQIxX4mPP/fLGvpbpts8byuCrWHza+Tkbanz73k/zXT5N3Ks/ZQohee6nr2Lhft+qE+t8FYus92YZyX0HFpOvkeY6kpPlVyCNnHwwz2OaYmE8Q1XfG9c7m3R/XI+1byz87xf8e79x/F7C3weBf+l5LHNv0jzUdd0bRVEUpQTqVkB8LY6+AkQ/ykzgyntsY/FLqxhlFtzJnOepEnM/yxYmyryfWUJbDK71NslL537fqhPrzLjSLM1Z7816j31+yfNYWY/7K57HMvNGmgfVV4EOjXs+XwXWxyAxTnpuxVqyh+KuIF1RT1IeXXwV47rujaIoilICdSsgvnG9RkhPE5768d2cnyvz2Oa7pAlFvsJTE/ANp/AVhvuRVu42L5+RXI2tH+7zm3SffPcrA19l31eJNPjMIXnmmZDHLTP8LARuKGLSO5E1h8j3Gma9PyHvjckDTHsffOdLRVEUZRZQtwLiKxQZq3TecKf/Qv58gyTeRRJiszKEXVDTLO6+wlMT8L2f73V+juc8z3/O+bk0vkY+z4SbuJ10P/PE8IfCCG4tkpWL95x/++TDfMNjnz0e+8T5esDjmvtzImW/uoRc3xC+j519fd6dd0kvif0XZA+F/DbpXsivex7L3Ju0ebBoHqCiKIrSIOpWQIywM5/kMABTqnGYfAnlnwH/Kcfn0vCt9BJnKfbaJ9XzH8EKi+8l7NcUjBCRVmLWlBDN29vke8Bf5fxsEk/l/JwpCfwZyQKfe12qvp+uwJikyGftPfMd4E8T/v4u8O89jhPnGyQrN2/g9/7NwypSab0zjFB/3OO4IfkcWxEu7d3x7ZthuLvg33vxGVISOe/fXUyJ9bR746uoKIqiKLOAuhUQ38ZsrlCUt//DNsI2dfkMeCjnZ813+JxkgbVIT4Y6ONj56SpYvfhO56crHGblgZyf68f7wB/l/OzPdn66/V16Ye77J8D3c54rL66Al9QR/F2sldn3Xfstenulvgv8Y/JbrX8NsdDH+TbwP+LnrfJtwDiKVczqeNfM2H42ca/sDfn+X+D/oPu5/ARppPo1z+PE+b+Bf9Xj9x8Cv4F/6WXfBozm+86VBoyKoijnNXX3AYkrFv2E8Q86+y4DfgH4ao5z/TXwx0hZyhD8W9LDG/rxi52ff0WyEOVa1svMYwmFuZ/DSHnifkL2XyFhH4NItaM/yXGuPwF+BynJGoLfJ3+C69rOz2+m7Ges1m537qowXefnI+9RUhjbXwAbkef033oe+1eRxPH/AVEsX0a8jkWS7X/QGcOlneMOAi8C/x/+VaDWdX6+T/L76gr0dQi5byLPUVrS+MvIHHYRouT7PEe/B2xHqob9DHAA8R7laepq+BzpI2JKMP93wGud4/oWiViC9TqlvTu+ispcoIXc3/XAzyHXaQwJ3f0Eub5vA/uQULe8fXaayBjyvX8ReScXI5EALST88AfIu/IyojzPhsgAJRkjB/wyUr57GbKGDCNr8g+Re74fued/wdzsED6KFO/4JcRIONH53QBi2HkfWZv2An+ONeTOap4E2s5WRsfwJN7pnPfmlP0e6ez3UoFzzQcOE/2+ebaD5E+gBhEA2qSHKdztnG82MIa9RhtS9n2ps98jBc63EilQUPR+Pkt+b+AgUqGsTbpyu7OzX95Qr6L4XvNbO/sdK31E5bML+S5fTtlvS2e/SerxDPte8+XY5zaU8l0XW5HvcYbkaz4f/3llNrMM8eweJ9v8dRRZK/L2pKqbFqLEPgNM4/+9Z4AXkHl3NpSpV6KsRKJITpHteT+OvCd5Q7ibxkbgaWCKbNfhACI3z5beSJuIjv9JqF8Beapz3p0p+13W2W+aYn09VpJ9gne3YxR78Bc5x1qXsu/uzn6PFzhf1RxExpwWW35bZ78jBc+3CThH/vu5l2LK5Ebsc5lWJOFEZ98bC5yvCPd1zr8/Zb+V2OuzsuxBlcgwVkH9Qsq+j3X221P2oPqwDnvN0/LcjnT2u73sQZWMr0Ju5v4ZZs9im4UViAAyQ3RuOoxcowew8+p+JJx4F7IWuftPI56uMhvvhuZaxKvlfo8p4FXkuzzo/H478p6+RPecfwyZV+uO6lDSWY01DLnb64ih6C5EsN6KNDu9G5kj4s/JDPAV0r3GTeVK5H2OP/uvIDLf7cgzvRUxUD2AXLcTsc+cRdb2ps+NjVRAvtg572mSrWADwMnOvjcUPOci5CZnFVb3kJ4kmoav4D2Ev2W9Sfh6qhZjF9y83ZgNa8jn2dpB8cZm5v15NmU/V6j37RIdmg3YiTtNWXqts+/9JY5nmHInzauR73CO9Mps5vm5o8TxJDGAFaquTdm3Cs9oi/xV6nwYw1r8Nqfsa4TQV0scTx0MIoKDa/Xfj3SZjysRz+Is2g5LEeHkLecYk53f1Z3jmcRyomvwNCJ8biJapW+xs49rsBtEwlUex66TbcQqfGHJY1fyMYS8y+7zvhcRsH3lqoXI+2GiSIzQfhezR/lcDDxPVJF6GjG0+Ja/X4WsA64ycgJRappKIxWQZc6516TsaxaiNAuuL1cjWneaoLofuDzA+Qawgk6ah2C9c/4yBYHQXIldUNJeJuPhiS+qeRgEbsKG9CVtu5EY66IswC5+Sd3AQSbNNqJE18UwVuhLm6huxE5qobtPr0diuI0C+joSAhWaFzvHfyJlP1fIWZuyb5k8h1WMk1iKHe/6wGNYiLyPZ7HP6/3kbwLbj5ud46cJDsZK6FtZazawCBG+zH08QvIa008BMbSQd8j17j9PsWiBsrga+3y1Eev2RJ99+ykgLguQXCQzn0xTn5dZ6c0E1qjVRrwZGwse80ok/NAc8yWaLyttIBpy9hzFPDjDiFHb9Qg+QjOVsUYqIOBvfVyBnWQuC3j+NYhCsAtJ7NuLxKPeSVhr9TXYCTLNTX5/Z999Ac9fBaNYITdNaXOVlVDxnAOIULYNWbT3I8Lu04iCsiTQecCGNB0nPQbZWDzShMuyeaEzju0p+41hhYSQi/m19FcMtwU8jxvSlKZsGi+sjzBcJkbpO+4xDvM8vRDw/BOIJ7rXvXmdcIroEFZQvidlXx8BdLaxnGj41EOkX9s0BcQwig1rNvctb6XBMjCKZxsRxNLW8Sz3fy1RgTTkfKLkZwVRxXgb4XJ2RpC1zBz7MGHX+JBcg/X+nCU9LDgLS4h6FHfh702pisYqIHd2zv1W2o6IIGm8Ek3U8voxhFW00oS/FtaSf1PJ4yoDc4+eTtmvhY1t/krZgwrMIqyAnlZAYRyrOF9a8rjS+AJ2AkyboB7ACsRF8mQMo6QXDUjzgvpiEu73eOxrJu68ZbVDsQC7QKVZBy/GXrNLAp3/GZLvzV2BzmMS7idJD724HeshmAsswSofU/iH1/oqIIabiFqb8zbxDYlR9NtICI2PYpRVAR3Dej6b6DVbClxA+PuxrHPcpuUBLMWGCU2R7HlfhRihn0HCLQ8jc/NOZM5IKj1+PXaNfYtmKd0gYaZmfEfpXwp/AJnPH8QaUA8h69mTwHX0nzMHkJBE8+w/Q7PCMBurgCxxzp9mrVzj7DubhPO7sNb+NJfbBmffojkndbAZO+GkhQAYgbgJwnkWjJJ1knRB/pbOvseof0IYxipOacLPODbELIRwbnIykrYQ/V22OMdLE87dcKYLApy7KL5Vu8AqWYcoblEcoTsJOr75GIjSWIwNF/CxUPsWtZgNDGNDfqfIFoKSVQEB8Taae/oS9c49G5yxvIq/oJzHAzaEvV5tygnvzMIAEoLr5unMIKHARYwHQ4hg7np9ZpA5JESIcVFGsO/vOXqv7wOIUG32S9v2I+tWr2f5CqLPWFMqo63Cznn9lKNRRFn2qQg2g4Ru9bvHDzj7hu6XVoTGKiBgF9O0eG2wLrezNNfd5rISK8g96LG/sUSmJTY3FbdgwK0p+7aQycK8nCEs7WVzOfZ9uT5l3xZ24WmKNc68Py977Gu8kzMUz48wx0radhU8xzj22XvGY/9tnX1fL3jeUFyB9Q6kxTNfgF1wiwrormEnaeEr6nU2eS4nSTdOXOKcey6U3HStk1dk/GweBQSiXodQHqysLMC+k2+RzfqfNwRvGLuunKO+SknDiBc26b3KU81uHtEcol7vatraVDY7nLH0KjSxHr8c3F7ba/Q2GG1x9imzgIovQ9jqXSfpPY/dQPZSxGZ7mt5Galeur0umj9NoBcTNB0hTKuZjb9g+mqPp9sK1ArxDuoC9CnsvZnPNe1Op5zjp8c1rsIKUj+W3TiawcfKveOyfJe+nKlxhc33KvoNYBeooxZJafTwgRRaNFjb84hzp13s+1jJVtLJeKAawFk0f69XD2EW+iAfRxwNStAmgCb1q42eVNkUqnit43ibghsyl5b30Iq8CAlYQnCI5jKUsnsC+k/1CT/pRJAdoITb8Z3fGz4YiXkb4AkS+2Ug0KXt9xuO6cttDSGnbJYigbwTeGeqruLjeGV8v48gNZOv50mubpHcehanEOU19399gIl9m6PZ2DWLfzSLbMbp7Qg1hn68jNCMfpNEKSAv74jzqsb9RWNpIbfAm0sImBM7gp1B8pbP/3hLHVQXzsaE+X/LY37WOp+VU1MUw1up0hnSrWgtbLnB7uUPLTJYk5ouwhQV2k1/hH6F/krN5R4o01zOFG9r4Wf/uxV9JrpIbsAJbmrV4hHQLmy+mL0e/rUiJ4kuwAoePZ2qtc965kHxurPGvkS8UqogCMoxVatPy8kLjGtR81oE4RYsQGI9iHbLNGDbyoZdhZRhb4e35DMedwBoLenlP3IbLdRn0zDq5j+7n3c1PCrHFy5YPYY1mdUaRuFUy48akFuk5d1m2M3T37FqBnXNvCfrN8tFoBQRshRxfzfUh7LibEt7iYjTxNn4hEu6iG6Lsb90YgdAn3KKFtXi2aV7vk0Gi47va4zOm0/MMzWuW5FaJ8nnn3eo1RcomX0N/S/t9BY7rWtd9wjgnsN6PpuWSuVWifIwxq7ALXdYQF5fF9A8F2E9+Je1CbPGBI6TH/7ewhQH25Dxnk7gUex3z9qgoooBANGw0qxeiCMagllfxClEFzVw7n5DTkBh55iz93x0jlM3g7102c/E79L+mW7BGjKojRNznPR4mtYl0T2vWbYrufAhX2C1i1CrCPdj7FC9jboxfIbfDdM/9RgbzqdRZNo1XQAawmqvPZDFItKHLneUNLTOuNfZp0iffAazL7LVyh1YZ41gviI8gNZ9okmZab42qGCJqHfZRdt0wQR+BuA6MQnUEP+HSdAtvI/HseZNa13XOPY0sRq/hp9D1w/RYaSOWZh93s0n2Pu65PXi3dwAAGbFJREFUf9UYK+EMfkLr5diFfT/56+GPI/fWKAzvIAtp3mt0ATb+v5eVrhfXY+9n0SalTcDMHUXym4oqICDW6DZiGKuCcawFNq3ZZD9CKCBuyGmoKns+mPCbpNDF5WQfmwm7TJKRXAPTIs/jhqLf8z5EtPx0yO11utcjY8R4POSX82QQO+/FDVyrCa+EmS3+bruRKHUbdRuvgIDERpqxXOex/zDR+scPU2+1jwFszGsb/5AV1y1ZZzO00BjLtK8gtQg7Sc2Qz20fklFsgYQsi7dJOD1D80oCGlZiBQSfuPS42/gZioUuDVK86IBrSTrgeTxTpa0Jk3I/BrDKeK8whl64CcdHKO51K1oqdAN28TuHnwDpKu6zrTR3L+Zj37Eia2sIBcQodqeoxhoaovpfqD4wJgTOpwhMKEwo5amEfdzcIF9FwUexMaFnM1RrYHGf93iVN9dLXcYWlxezlJwPjVtMJO7xNYU4yth6VVnd3vlbljC/MpgVCgjYEqdn8KtyNUI0PGYP9XTEXEy+ZjArseEgdWjrZeIKUofw66i8mGhZvu2enwvNBYggZ8bh29jKDXdoWnhPHOOpm8ZP8R0kOmfsp57E1jGipTZfxS+EYRwb3rSntNGFwRVOfKtcbcEKAGdI73hfBi0kX8RY+U7hLzwaBbfJinsWrsN+nyIVxEIoIGPYe1K0C7UPIYT+UAqIUYbeKXCMrExgr3c/Y6p53vdnOK7r0enlWRpAvCNtwjYq9cE872eJPu+uR6CsLV4mfB72+uf1wOXFrJHxHJTVlHsN2nTnRF/W+f0M9faJmTUKyCJsCIBvlatBop6Hk1S7+H6BaILtI/hZfYaxwvYJmtEwKjTryF7laoyo5+Eg1XmGBoHbsInX0/grEhPY52AfzW+WOYJVsrJUuXJDDM8i1veqPI+biNa+34mfot/ClsScpB7FKSvGepWlytUmog0fH6O6hWcpIvS4QoFvzoEREttIV/i5gFlfi5aXDqGAgA3zLbtEaSjhL5QC4grtVb73pgjNFNE5coyovBJPpE7DVPs7i4SvmuMuIOqlrkLRdOkneLuRLWVu8ZyTuprMGiNXvKDOfZR/DU4TlTvmUTwUMgSzRgGBaPWKLDGrW7HehDbidioz6W410c6rZ8gW1mGuf9Eymk3HrXLlW/J0AAkNcuMlt1Oud2sDUe/LO2RrgOVWyZotvQsuwCpbz+GvSFxGNGl5L+UqiUuI5uJkUQzBhi60qb9Gvi9xA4VvmMYE0T4BJxHrZFkK8QhyfU0yfBsRvnxD7NaSrUrWbCFUI8VQCogJDS27LG2oHIRQCsgA9vkqkm+WFTek2Bg+jhMtQbszx3GXEZ17zyFrlbtW1lEd1EQ7xEN6H6UaBSR+XlMI6KVwXzGVcWc88dK7h6jmOsRlSXPeunoBQR8F5LHYLy+ra3Q9cKtc3Zbhc8uIWuFmkMUwVHfQFhIeYRJZzfYMsvD74savz4VOv0m4Va76NSbqx1psuUIziT9COMVyAAmbcsPnZjrn8LUcx/MjmpJA78uN5FP4xxGvlvsevIAocqE8ImsQa6G7aL9EthrvbmJzUSGuatwQTd88F7CePNcgcxgx0oRq+LkQMS64wtBxsgl5y7HhGUepN0wgJK7QWzTXKJQC4uZllMkW7FxdhFAKCNgCN1UXqxlH7lu878UppIxuXqOAMcjEE5qPU1/upDFkxT067vpd5hZXrE1u7YlwXzEVN3TWDSMdo5pr0Ka7ZLqRVevss+aGprfpFCbaFvtlk5IyB4l2Ee3VdCaJK+h+8A8j7ueNZMsrGEGUs21Ewz/aiKUxq6vTTRjdRb2J81WxALsInCObtXwA8ZzEr/0+ZEFZR7bEygWIkvAY3aVHnyN7tRS35HKRcrJ14npDsyrE64mGzLURi9xDyMSTRagcQiw49xD1RrURS07WOWozdpE+QD35REUxDS3biKKcJalyMeI5dAWgSSTJ+3r88uwMLUTxuxlZ7F3h5wxyz7JcX9dCfI7e3Y1nK/Ow16ZoZEEoBcTE6BdVDNIwCcdFFZ2QCojJi6g6HMcwjsgwNyOyRKjeQ4sQhe8mRA6pK+w36Xk/QXQeL2uLJ+abRPTpYN8yHbfIiTtPr6Caa/Bj4d7BNDysMxHd3Auz3Q+2Y7XZvljX6PowD9vMbYZ8CtJliCITtxRMIwLxLmRSuheZOG9FhMiHEWH0cI/PziA3M0+38uud4/mWDZ0rLCValjOrV2oQWUTdLrJmm0JcwE8jiY/3IPfyduR+PoYITb1KAU4h1oE8NcNdJX62Wddd4r1OsngdDRcjnqC4tW8GyTV5HlHW7usc/1bkPj3U+dyhHp9tI8LDVWRX1DdiPQBvIYrnbMXNkXie7PPGYuS96NXr4yRyjXcg9+YO5N7chTTR+jKi7J/t8dmjyL3M6lVZhFUwp8g3lzaZkMJzKAXEVWTLxKdSkw8hr6Ep2b+94HGU3izE3qv1sb9VJXifjp3XDeWvSjHr9465npGyt3jD0TpC0eKYqnBmuxO6S6M1oWNinEVYy3mb/JWFFiPC6D7y1WGeQRSGW8hfocXNhTjI3Ew6T+MCbJLsOfKH/a1EtOi8cZWTiMB9PfnCPuIVoV6g/mY/RRnGVq9p41/5K84CJKzrJXorFD7bfkSQyZtLs8U5d9Eu4U3BDdv0rfwVZxBZmJ8muTN90vYOkk9wMfm8tyuIGgKa5HkPhRtyUTQZOJQCYprjTRU8Thq3dc5ztOBxQiogxkNbVR+U840kD0i/Bqeht3glLKMMzAT7lum4oUaul2sV1VyDNt35P9uxMkpdmDnBbDcPAD+M7fRTVY/Kgx8Av4xNKN8G/DTwO8DnGY7zfeAPOtsYsniuBH4Wyd0YwYYPfAR8CHwXEXD/GvhG53d5GECsvMbD9C3gV4EPch5vNvNXwK8g3qX5SBzr/wL8u4zH+Tbwv3e2hYjV5e8iOUCLkAnRTAA/Qu7d28j9/BbwF8AnOb/DKBLCYqy2/wn4Z8CnOY/XFD4G/iHijbgYUfbHgd/s/M2X94F/1dlGEOFhFfKuLe38zljMP0bet+8hSvm3kXetyLtxOzYh8XvId3q7wPGawr9EnrE7kb46LwP/iGzf7VPgTztbCzEIXIDcm2XIOzmv87dPkXvzLvAmcn/+AnijwHe4GHnnxzrH/5+APypwvKbyEbI+tWhO2J9RWH9U8nmMXJFHQS4LM5bzcc2tgo+AzxBZJ27Qe49qnoV3Y/83Bt64nFsm7rs1inx3nJ9VEL8O5n6U/d4n8Tdi//8QJNba1UqaHEIyRjRReA+zo1b8BFGr8m6asyDVyTKifTZ2MDuuy0VEx/0ocy+HJ979/QCzo2xtvD9Ika7gTeYGrBf3DLOj6EG8P8hZ5l7YVRwzT9xe8Di3IYVUipYn9umiHQJXrigS9jgf+d5PUWz+aWErtG0pcBwlmX6J/iYHoewt7rE3hYxeCfcVU1nkjCfutYvnsJa1xaNKTBrDvcG+ZXa+QnSM6yHq4mwj4UlNZpjufh9NKR3ciyuJhjk8yuwP0wnJONEyxgfJl4dRBS0k/M6E9UwjIYxzlRbRuuXn6N9QqwmsJxrWs5Nw1Z6ayGa655amKvAL6e4P0tT3PCSmMl5TurpXFYa0AHuv46VI62AZdjxZC4wo/pi+J/HSwvEKSGVtF8fOa2SLeFJ22ZiQs3g1sgcp/xqcJRr6NYStTlanoSpeEOrHzgO3TOOZWoaWnS1Ex/00okw1haVELbF1dSWeDbSQYgjGMjqNvKhNKsd5EdHE96OEK+vcdDYR7WL7IuX21snKAqIWtima34E+FIuJeoWP0ax5ZgCp+uMmr2fpDzLbMeWtqywD2o9hrCBSxTPSrydEHZiqk6eZe97qJmESjU8Rvc7D5M83893e6XHOugTvp7FyqYvbH6esLV5qN5Q3sih99Yx4RaHZENYEIgSZ0npG87uDehe3MWTCdRty7WZuJMCWzSVEiw0cRxLE6/QYTSDJtm7Rgh00K7a5ChYS7XMyjVRHqnNCG0aEW3dhe43zz8I5gCjwZrFtI96Guq/DJqzrv40osVvqHFANLMF+/7oNFqYi0CTVrJH3dM53oIJzpfEcMpYn6h7IHGcRdq2MeyPcAhplbPGu41U/7y6m5OxZuqsVugajMrb4vF9V2GUSiZFW8W7os60j9xaiFtrTyIJcZYWpcSRcxbX0vcPsiM1uEoOIEukqcEcRV2aV5YqX0d074QDFK7HMdi5DylKbazKJxNlOVDiGeUhMvFtb/jTyjJzP1s2l2FKjZnuObkGgTFrIwu8atWaQqiznY8U/sGFP22seh3k2qgoHc8Oe6lS+JrBCcRPCweY6JtQybomfR1ROC7kdpdtQacZRR/jjMFYWjIctl+kFiV/zEayBbmvA75eVjUTHucP949bYH5vgMs3KKFKy0y33No1Yba8gXNMfl2Gk4++zRC3kJxABqanx2LOBxYjm7ioiZ5FF/BLKETTHEFd93ELxFjKJ1NXgqWkMISFObr7FDOLp20I5z/0govw8RfczcR/nr3Dbi01EPcNtJLfqDspTFFcjCaDHiT4TO6nfE1M3VyHXY4psTR9DchH2vlSpkO7BKsJ18XhnDEV7kih+mHyPaboLB7g9MkJtM3TnAa+lnufdxSTAH6ZbOdpO+OtwEvFAudze+dtp6pVH3VzSNjFP+NLYH+t01RRlBEkMfofodzI9H25HNNA8+QWmdO+dSBy8G/LQRiqe3MT51ViwbMaRXh+mb4jZziANJG9EBJw813wcmbjup3dvmNeQCfN8tqonMYgYL+J9WKaROeQeRFnMoxyMIGVmb0Ust278qFHy7+T8C4XLwnq6PSJGEHsUEYwnyP58DyCCxXWI99xVOoyg/QTNyhOqkwGs1/DZGs7fwnqkql7b3fjzyys+N8gcYub1LTWc32UEWW+uRWSQUOvKKFKQ4lrk+9ZNC9tgdHePv8eF0aJbvBDMAPZ5r7Px3mJsBEW8Ct4g3UaiItsU3dEZi7Hr5t1Bv1l23CqwbTqGsJ9wdjiG1Z4+Q2r2flTd+ILTQtw+v45MfL08IO8j9ey/h3zXj7CdNP8G4jIcQaxWpj5+nI+QevpPAF8jW18SxZ8hxJP160jpzl6T9/eRXgU/IHo/B4GfRCbqeYjCvYzecaHvA3+MuAi/FfQbzG0uRu7NVfS+rj9E7s3b2B47Z5C55m9ie/AsRu5Nrzy0T4E/Q+7NnzH7e65UxRIkJvk36G2B/wR7bz5A7s3Zzu9/EntvFiL3ZoLe3sC/RObBP0HeI8VyNTY84rfI3vOoCHci0QEAv4T02KmS3Ygh4j3g56ju2RhGDEvLge90zv1ZRed2GUOu/3VEDWU/QIw0/ybncceRvIpriFrY3+6c7w9zHjcEm5HoE4DfBv6187cWMu6iFSQ/B34X+D9jv78b8fYC/CLwzYLnKcJDSGjwp8DPE5UpxpDwsKIpDz8C/inwVed3LcT7eDHyvv0M9fUAGSValOC7wN+O7xSv09zk0rZZmYcsAI8STXLOux1EwoOuQMOs6mCc/tbXrNsMskjdjyg2GmZVjCEkVOpBognIebejiLv6C6i3IwQXIgLpHqKhbHk244W8CVFMlGRMTPo5qrNUb8B6ALZXdM44y7HP2h6qKyryZewcX1fu3ny6PcTxyIkdfT/dn8V0R3nEj3t/wbEXxRQtmUJCouJcTf6ckGN097oAUXzM8/54uK+Sm3nY+3SYbiP2AKKMxe+d7/YKvede18t0TcgvlIPNRMcc79IO2DjVIi/FbGER4h25EamH/hziqnsNeUgOd/79UudvDyNa7AZmT4Ww84lliJfrVmTSeR5xb+7H3s99yOK3C6netBUJUWlSqd+5yHzE+vlFRCl5Fglf3Ie9N/uR+/U8YiS4GTGATFQ/3POKIUQQvhaxxD6FCMn7EKHpMFJK9dXO759ELItXIV3tNTQxG+PYwgknKV9puwgbgnGIeo1lbp7plyn/2bnfOV+d4SemwM8MkhdqPCCLiVYVzFoW2YRWTiFzq4nwWIrNu2nTafZWE/OxeYJnkDkjzghyf3xL9Jr82l4RLWuxz/tBmmMcXodVil6lt8yxBPEeu0VvkrYD9H9mbnT2a0LVN2MIMNsVvXYaIRpn3at8mKIoiqIo+bgQu86eBC4o6TwbsFV4TtKMfJxHsPLFM5RTGGYAsbC656lLUV6IFSh7dbBvYRWJvRmOu5Jk6/YgYkRoU0/OkcsF2PzN0/T3RBnP+WOIQeo4IrQfR77LI0ioUj/v2WVE36umtT0wfWjayPfrZ8iej+Qq7USMP6cRJfMoYhC/i+SiHnc553mV+mX4uF5xhoT33u0w3kbCHhRFURRFCcNG7KI8SdjymC0k4dUIvqcoT8nJSouojPEa3VWSirAQW/K4jQj3dQpgPs0PL8GOd9zzuKay0eGEfUxEyzTlKHpZuBirDE8TtklsvIlxmUp9UW7B3uvjhC0JPYYoLeb4e2lGZcgtRHWK7Uk7b4jtvKfkwSmKoijK+cZFRPPXnqd4SNYaoiXED9MMz0ccNz59EgnrK5IXMoCESLthPI9Tfz6fsUYnlf91e6X4lqv2aSzn9pqIl2atgzWIFd+M6SV6h2Rl4SKi/YYO0vxctGux+VAh+iO1Osd055JdNCf8zDUIpIYEtuhObKq7e6uiKIqizDXGsR26jXX4ScRi7Bs2NIB4VFzrZ7tznKq7P2dhE1Gh6TgS259FWF6AKB5uY9TT1F9u13AdNpy9n4JljL4zyPfx4dbOZ44l7GM6cU8mnLtqxpA8M3OvZoCnkefXV1kcQpKa3ffGWNabInSnsZpogZZzSH7k6gzHGEM8p6/HjhPSu1SUeMPFY3jMa/EazbtKHKCiKIqinM9cSXelpFOIcHYnEue/EYmBN30k7kHW5rOxz+1j9nT7HkWSxeM9fl5HilHchCSsXtrZLgduQDwA8b5NU4g12VeIr4IF2OpGd/b4+yC2P8KLGY7r9m37Uo+/z8MKpk9lOG5VbCTquTBK2nOI/Hkd8k5c2vm5FXlOdtNdue9l6qtwVoQBJC8oXsXzOFKa905EibwcuV5XIu/DI3Q/+zOIwWFxpd8gnXgPqnt9PrSI7pJgRV1liqIoiqL0poUI2y/Q3RA1bZtGkq03VD7qMCxABC43RMd3O44Ip00Tvgxu4v02pNrRKFKMwA1P2ZjxuE9jhc+7ke8/injPXOG+qfkQIN/5GfwrP7nK5lPU1+E8JEOIgrWX7M/+ScRz0rSEe5Dnzh3rJP45TpEqEk3VohVFURRlrrEISWD+CuIZiQtoU4iF+wkk3KgJyaahWIsI1HuwJYvjnqGXEEv5pTS/FPQ8bEWqfluefh3zsd3G+223FBx7VcxHvHo7EOUp7hE7gwjojyG9Q5ocWliEZYhXZCe93/sTiKdsNvQsc0tMtxGvpTdL6P7y68OOT1EURVEUD0YRQW2uCl/9GETi3edTfzWnvAwjifZxheo1JMQmL/OQsJZTseO+zOz1hhkGkGe+6Qpm2Qwx+3qVbaTbQ5vZQxkvyXuQ5iQzKYqiKIqizBZaSOjVRsKGzQwixYI20txQNOX8YAh4i6jukKsj/WK6XWG3hRmjoiiKoiiKoihzhDvpLi7Qr+liKrfFDnYOmCg8REVRFEVRFEVR5gJL6a5SVigPaZDuRKe9aCiWoiiKoiiKopzvDNJdWvkAARLlL4kdtI2U/lIURVEURVEU5fzFLTdttmD9WR7scfAi1RsURVEURVEURZm9XEWY0tJ9GaS7UcppYGXIkyiKoiiKoiiK0nhWIn1a4mWgg/comUCUDvdEx5CmSYqiKIqiKIqizH0mEB0g3ii0tFLQlwMzsRO+ztzqxKooiqIoiqIoSjfz6e73MQNsKvvEX6Q73utVYKTsEyuKoiiKoiiKUgsjiMwf1wO+WNUA7u1x8r2oJ0RRFEVRFEVR5hoLgH10y/93VD2QXmW3DqGNChVFURRFURRlrrAUOEy33P9IHYNpAY/2GMxxYFUdA1IURVEURVEUJRhrgBN0y/sPI7pAbdzVY1DngC01jklRFEVRFEVRlPxsBSbplvNvr3NQLjfQXR2rDTyBJqcriqIoiqIoymxhHvAk3XL9DHBdjePqySakBnB8sEeAy2ocl6IoiqIoiqIo6VwOHKVbnj8JXFrjuBJZCLxE96DbwC5gSX1DUxRFURRFURSlB0uB5+gtw+8Bxusbmh8DwD30DsmaREr4arleRVEURVEURamXBcB99M71mAHupuZk86xcSm8XjklS34Z4TBRFURRFURRFqY5FwEP0VjzaiAy/vq7BFWUE0aqm6P3lpoDHgXV1DVBRFEVRFEVRzhMuBraTLJvfAwzXNcCQLAd20/uLusnqdwPLahqjoiiKoiiKosw1liNKRb/IJLO9wByVwzcBL5P85dvAQaTByZVovoiiKIqiKIqi+LIAuArpVH6IdLn7JWBDlQP8iSpP5nAx8Hv4l/P6NvAd4E1EOXkTeB/4sLN9XsIYFUVRFEVRFKVptJBeHfMQZWMZ8LOdnyuBFZ7H+SoSffTNEsaYSF0KiGEV8BvA1RRLSP8Y+KizKYqiKIqiKMpcYx6Sm1EkP+Nd4I+AHYiBvxbqVkAMLcQb8uvARjTsSlEURVEURVFC8D7wZ0h386/RgMihpiggcVYClwC/glTIGqt3OIqiKIqiKIoyK/gh8A2kgeCfI2kMjaKpCkicBUgG/zLgZzo/x5EyvyPYOLhZ1ShFURRFURRFUTz5HJv/bFIP3kNyow91fr6BeDwazf8P4m0sHVEAHuAAAAAASUVORK5CYII=;fontSize=18;fontFamily=Lucida Console;" vertex="1" parent="1">
          <mxGeometry x="10" y="340" width="292.96" height="52" as="geometry" />
        </mxCell>
        <mxCell id="WKG7Bg_0KT1rRg3zPcpV-26" style="edgeStyle=none;rounded=0;orthogonalLoop=1;jettySize=auto;html=1;exitX=1;exitY=0.5;exitDx=0;exitDy=0;exitPerimeter=0;fontFamily=Lucida Console;fontSize=15;endArrow=classic;endFill=1;" edge="1" parent="1" source="WKG7Bg_0KT1rRg3zPcpV-4">
          <mxGeometry relative="1" as="geometry">
            <mxPoint x="610" y="130" as="targetPoint" />
          </mxGeometry>
        </mxCell>
        <mxCell id="WKG7Bg_0KT1rRg3zPcpV-4" value="&lt;font style=&quot;font-size: 16px;&quot;&gt;Piezo&lt;/font&gt;" style="pointerEvents=1;verticalLabelPosition=bottom;shadow=0;dashed=0;align=center;html=1;verticalAlign=top;shape=mxgraph.electrical.electro-mechanical.piezo_sounder;pointerEvents=1;fontFamily=Lucida Console;fontSize=18;" vertex="1" parent="1">
          <mxGeometry x="310" y="50" width="100" height="40" as="geometry" />
        </mxCell>
        <mxCell id="WKG7Bg_0KT1rRg3zPcpV-25" style="edgeStyle=none;rounded=0;orthogonalLoop=1;jettySize=auto;html=1;exitX=1;exitY=0.5;exitDx=0;exitDy=0;exitPerimeter=0;fontFamily=Lucida Console;fontSize=15;endArrow=classic;endFill=1;" edge="1" parent="1" source="WKG7Bg_0KT1rRg3zPcpV-5">
          <mxGeometry relative="1" as="geometry">
            <mxPoint x="610" y="130" as="targetPoint" />
          </mxGeometry>
        </mxCell>
        <mxCell id="WKG7Bg_0KT1rRg3zPcpV-5" value="&lt;font style=&quot;font-size: 16px;&quot;&gt;Piezo&lt;/font&gt;" style="pointerEvents=1;verticalLabelPosition=bottom;shadow=0;dashed=0;align=center;html=1;verticalAlign=top;shape=mxgraph.electrical.electro-mechanical.piezo_sounder;pointerEvents=1;fontFamily=Lucida Console;fontSize=18;" vertex="1" parent="1">
          <mxGeometry x="310" y="140" width="100" height="40" as="geometry" />
        </mxCell>
        <mxCell id="WKG7Bg_0KT1rRg3zPcpV-6" value="Button" style="labelPosition=center;verticalLabelPosition=middle;align=center;html=1;shape=mxgraph.basic.button;dx=10;fontFamily=Lucida Console;fontSize=16;" vertex="1" parent="1">
          <mxGeometry x="310" y="240" width="100" height="60" as="geometry" />
        </mxCell>
        <mxCell id="WKG7Bg_0KT1rRg3zPcpV-7" value="Arduino Uno" style="dashed=0;outlineConnect=0;html=1;align=center;labelPosition=center;verticalLabelPosition=bottom;verticalAlign=top;shape=mxgraph.weblogos.arduino;fillColor=#36868D;strokeColor=none;fontFamily=Lucida Console;fontSize=16;" vertex="1" parent="1">
          <mxGeometry x="620" y="100" width="109.53" height="52" as="geometry" />
        </mxCell>
        <mxCell id="WKG7Bg_0KT1rRg3zPcpV-23" style="edgeStyle=orthogonalEdgeStyle;rounded=0;orthogonalLoop=1;jettySize=auto;html=1;exitX=0.5;exitY=1;exitDx=0;exitDy=0;fontFamily=Lucida Console;fontSize=15;" edge="1" parent="1" source="WKG7Bg_0KT1rRg3zPcpV-9">
          <mxGeometry relative="1" as="geometry">
            <mxPoint x="670" y="610" as="targetPoint" />
            <Array as="points">
              <mxPoint x="675" y="610" />
            </Array>
          </mxGeometry>
        </mxCell>
        <mxCell id="WKG7Bg_0KT1rRg3zPcpV-24" style="rounded=0;orthogonalLoop=1;jettySize=auto;html=1;exitX=0.5;exitY=0;exitDx=0;exitDy=0;fontFamily=Lucida Console;fontSize=15;endArrow=classic;endFill=1;shape=link;" edge="1" parent="1" source="WKG7Bg_0KT1rRg3zPcpV-9">
          <mxGeometry relative="1" as="geometry">
            <mxPoint x="675" y="180" as="targetPoint" />
          </mxGeometry>
        </mxCell>
        <mxCell id="WKG7Bg_0KT1rRg3zPcpV-9" value="Node.js Server" style="shape=image;verticalLabelPosition=bottom;labelBackgroundColor=default;verticalAlign=top;aspect=fixed;imageAspect=0;image=data:image/svg+xml,PHN2ZyB4bWxucz0iaHR0cDovL3d3dy53My5vcmcvMjAwMC9zdmciIHZpZXdCb3g9IjAgMCA1MTIgNTEyIiBoZWlnaHQ9IjUxMnB4IiB3aWR0aD0iNTEycHgiPjx0aXRsZT5pb25pY29ucy12NV9sb2dvczwvdGl0bGU+PHBhdGggZD0iTTQyOS43NiwxMzAuMDcsMjc0LjMzLDM2Ljg1YTM3LDM3LDAsMCwwLTM2LjY1LDBMODIuMjQsMTMwLjA2QTM4LjIsMzguMiwwLDAsMCw2NCwxNjIuODNWMzQ5YTM4LjI2LDM4LjI2LDAsMCwwLDE4LjI0LDMyLjhMMTIzLDQwNi4xNGwuMjMuMTNjMjAuNTgsMTAuNTMsMjguNDYsMTAuNTMsMzcuNTksMTAuNTMsMzIuMTQsMCw1Mi4xMS0yMC44LDUyLjExLTU0LjI5VjE4MmE4LjUxLDguNTEsMCwwLDAtOC40Mi04LjU4SDE4Mi4xM2E4LjUxLDguNTEsMCwwLDAtOC40Miw4LjU4VjM2Mi41MWExNSwxNSwwLDAsMS02Ljg1LDEzLjA3Yy01LjksMy42LTE0LjQ3LDIuODQtMjQuMTQtMi4xNWwtMzkuMDYtMjMuNTFhMS4xLDEuMSwwLDAsMS0uNDgtLjkyVjE2NS40NmExLjMyLDEuMzIsMCwwLDEsLjU5LTEuMDZsMTUxLjg0LTkzYS44Mi44MiwwLDAsMSwuNzMsMGwxNTEuOTMsOTNhMS4zNCwxLjM0LDAsMCwxLC41NSwxLjFWMzQ5YTEuMjgsMS4yOCwwLDAsMS0uNDUsMUwyNTYuMzEsNDQwLjY1YTEuMjIsMS4yMiwwLDAsMS0uOCwwbC0zOC44My0yMy4wNmE3LjgsNy44LDAsMCwwLTcuODMtLjQxbC0uMzQuMmMtMTAuNzIsNi4zNS0xMy42LDgtMjMuNTQsMTEuNjItMS42Mi41OS01LjQzLDItNS43Niw1Ljc3czMuMjksNi40NSw2LjUxLDguMzJsNTEuOSwzMS44N2EzNS42NywzNS42NywwLDAsMCwxOC4zLDUuMDdsLjU4LDBoMGEzNS44NywzNS44NywwLDAsMCwxNy44My01LjA3bDE1NS40My05My4xM0EzOC4zNywzOC4zNywwLDAsMCw0NDgsMzQ5VjE2Mi44M0EzOC4yMSwzOC4yMSwwLDAsMCw0MjkuNzYsMTMwLjA3WiIvPjxwYXRoIGQ9Ik0zMDcuODgsMzE4LjA1Yy0zNy4yOSwwLTQ1LjI0LTEwLjQyLTQ3LjYtMjcuMjRhOC40Myw4LjQzLDAsMCwwLTguMjItNy4zMmgtMTkuOGE4LjQ0LDguNDQsMCwwLDAtOC4yNiw4LjU4YzAsMTQuNTgsNS4xMiw2Mi4xNyw4My45Miw2Mi4xN2gwYzI0LjM4LDAsNDQuNjYtNS43LDU4LjYzLTE2LjQ5UzM4OCwzMTEuMjYsMzg4LDI5Mi41NWMwLTM3LjU1LTI0LjUtNDcuODMtNzIuNzUtNTQuNTUtNDkuMDUtNi44Mi00OS4wNS0xMC4yOS00OS4wNS0xNy44OSwwLTUuNDcsMC0xOC4yOCwzNS40Ni0xOC4yOCwyNS4yMywwLDM4Ljc0LDMuMTksNDMuMDYsMjBhOC4zNSw4LjM1LDAsMCwwLDguMDYsNi42N2gxOS44N2E4LjI0LDguMjQsMCwwLDAsNi4xNi0yLjg2LDguOTEsOC45MSwwLDAsMCwyLjEyLTYuNDRjLTIuNTctMzUuNTUtMjguNTYtNTMuNTgtNzkuMjQtNTMuNTgtNDYuMDYsMC03My41NSwyMC43NS03My41NSw1NS41LDAsMzguMSwyOC40OSw0OC44Nyw3MS4yOSw1My4zMyw1MCw1LjE3LDUwLDEyLjcxLDUwLDE5LjM3QzM0OS40NiwzMDQuMiwzNDUuMTUsMzE4LjA1LDMwNy44OCwzMTguMDVaIi8+PC9zdmc+;fontFamily=Lucida Console;fontSize=15;" vertex="1" parent="1">
          <mxGeometry x="588.77" y="320" width="172" height="172" as="geometry" />
        </mxCell>
        <mxCell id="WKG7Bg_0KT1rRg3zPcpV-10" value="Chat room" style="sketch=0;pointerEvents=1;shadow=0;dashed=0;html=1;strokeColor=none;fillColor=#505050;labelPosition=center;verticalLabelPosition=bottom;verticalAlign=top;outlineConnect=0;align=center;shape=mxgraph.office.concepts.web_page;fontFamily=Lucida Console;fontSize=16;" vertex="1" parent="1">
          <mxGeometry x="642.49" y="620" width="87.04" height="94" as="geometry" />
        </mxCell>
        <mxCell id="WKG7Bg_0KT1rRg3zPcpV-27" value="" style="endArrow=classic;html=1;rounded=0;fontFamily=Lucida Console;fontSize=15;exitX=1.02;exitY=0.528;exitDx=0;exitDy=0;exitPerimeter=0;" edge="1" parent="1" source="WKG7Bg_0KT1rRg3zPcpV-6">
          <mxGeometry width="50" height="50" relative="1" as="geometry">
            <mxPoint x="490" y="260" as="sourcePoint" />
            <mxPoint x="610" y="130" as="targetPoint" />
          </mxGeometry>
        </mxCell>
      </root>
    </mxGraphModel>
  </diagram>
</mxfile>
